<ttFont>
    <TTGlyph name=".notdef" xMin="-20" yMin="0" xMax="553" yMax="700">
      <contour>
        <pt x="53" y="700" on="1"/>
        <pt x="553" y="700" on="1"/>
        <pt x="480" y="0" on="1"/>
        <pt x="-20" y="0" on="1"/>
      </contour>
      <contour>
        <pt x="467" y="650" on="1"/>
        <pt x="127" y="650" on="1"/>
        <pt x="271" y="395" on="1"/>
      </contour>
      <contour>
        <pt x="236" y="350" on="1"/>
        <pt x="92" y="605" on="1"/>
        <pt x="39" y="95" on="1"/>
      </contour>
      <contour>
        <pt x="492" y="605" on="1"/>
        <pt x="296" y="350" on="1"/>
        <pt x="439" y="95" on="1"/>
      </contour>
      <contour>
        <pt x="405" y="50" on="1"/>
        <pt x="261" y="305" on="1"/>
        <pt x="65" y="50" on="1"/>
      </contour>
    </TTGlyph>
    <TTGlyph name="A" xMin="-15" yMin="-2" xMax="466" yMax="702">
      <contour>
        <pt x="-15" y="-2" on="0"/>
        <pt x="-13" y="15" on="1"/>
        <pt x="-13" y="19" on="0"/>
        <pt x="-11" y="25" on="0"/>
        <pt x="-10" y="28" on="1"/>
        <pt x="240" y="683" on="1"/>
        <pt x="247" y="702" on="0"/>
        <pt x="282" y="702" on="1"/>
        <pt x="311" y="702" on="1"/>
        <pt x="346" y="702" on="0"/>
        <pt x="349" y="683" on="1"/>
        <pt x="464" y="28" on="1"/>
        <pt x="466" y="18" on="0"/>
        <pt x="466" y="15" on="1"/>
        <pt x="465" y="7" on="0"/>
        <pt x="445" y="-2" on="0"/>
        <pt x="427" y="-2" on="1"/>
        <pt x="410" y="-2" on="1"/>
        <pt x="380" y="-2" on="0"/>
        <pt x="379" y="14" on="1"/>
        <pt x="353" y="178" on="1"/>
        <pt x="135" y="178" on="1"/>
        <pt x="76" y="14" on="1"/>
        <pt x="69" y="-2" on="0"/>
        <pt x="38" y="-2" on="1"/>
        <pt x="22" y="-2" on="1"/>
      </contour>
      <contour>
        <pt x="340" y="250" on="1"/>
        <pt x="296" y="533" on="1"/>
        <pt x="292" y="560" on="0"/>
        <pt x="290" y="594" on="1"/>
        <pt x="285" y="594" on="1"/>
        <pt x="270" y="547" on="0"/>
        <pt x="265" y="533" on="1"/>
        <pt x="161" y="250" on="1"/>
      </contour>
    </TTGlyph>
    <TTGlyph name="AE" xMin="-27" yMin="-2" xMax="703" yMax="700">
      <contour>
        <pt x="-27" y="-2" on="0"/>
        <pt x="-25" y="15" on="1"/>
        <pt x="-22" y="26" on="0"/>
        <pt x="-19" y="31" on="1"/>
        <pt x="304" y="673" on="1"/>
        <pt x="312" y="687" on="0"/>
        <pt x="329" y="700" on="0"/>
        <pt x="342" y="700" on="1"/>
        <pt x="684" y="700" on="1"/>
        <pt x="703" y="700" on="0"/>
        <pt x="700" y="670" on="1"/>
        <pt x="698" y="654" on="1"/>
        <pt x="695" y="624" on="0"/>
        <pt x="676" y="624" on="1"/>
        <pt x="420" y="624" on="1"/>
        <pt x="431" y="396" on="1"/>
        <pt x="649" y="396" on="1"/>
        <pt x="668" y="396" on="0"/>
        <pt x="665" y="366" on="1"/>
        <pt x="663" y="350" on="1"/>
        <pt x="660" y="320" on="0"/>
        <pt x="641" y="320" on="1"/>
        <pt x="435" y="320" on="1"/>
        <pt x="448" y="76" on="1"/>
        <pt x="640" y="76" on="1"/>
        <pt x="656" y="76" on="0"/>
        <pt x="656" y="57" on="1"/>
        <pt x="656" y="50" on="0"/>
        <pt x="655" y="46" on="1"/>
        <pt x="654" y="30" on="1"/>
        <pt x="652" y="14" on="0"/>
        <pt x="642" y="0" on="0"/>
        <pt x="632" y="0" on="1"/>
        <pt x="389" y="0" on="1"/>
        <pt x="363" y="0" on="0"/>
        <pt x="363" y="29" on="1"/>
        <pt x="356" y="178" on="1"/>
        <pt x="140" y="178" on="1"/>
        <pt x="60" y="14" on="1"/>
        <pt x="53" y="-2" on="0"/>
        <pt x="25" y="-2" on="1"/>
        <pt x="11" y="-2" on="1"/>
      </contour>
      <contour>
        <pt x="351" y="253" on="1"/>
        <pt x="339" y="526" on="1"/>
        <pt x="343" y="584" on="1"/>
        <pt x="341" y="584" on="1"/>
        <pt x="316" y="526" on="1"/>
        <pt x="180" y="253" on="1"/>
      </contour>
    </TTGlyph>
    <TTGlyph name="AEacute" xMin="-25" yMin="-2" xMax="700" yMax="909">
      <component glyphName="AE" x="0" y="0" flags="0x0"/>
      <component glyphName="acute" x="352" y="177" flags="0x4"/>
    </TTGlyph>
    <TTGlyph name="Aacute" xMin="-13" yMin="-2" xMax="466" yMax="909">
      <component glyphName="A" x="0" y="0" flags="0x0"/>
      <component glyphName="acute" x="210" y="177" flags="0x4"/>
    </TTGlyph>
    <TTGlyph name="Abreve" xMin="-13" yMin="-2" xMax="466" yMax="892">
      <component glyphName="A" x="0" y="0" flags="0x0"/>
      <component glyphName="breve" x="146" y="177" flags="0x4"/>
    </TTGlyph>
    <TTGlyph name="Acircumflex" xMin="-13" yMin="-2" xMax="466" yMax="895">
      <component glyphName="A" x="0" y="0" flags="0x0"/>
      <component glyphName="circumflex" x="145" y="177" flags="0x4"/>
    </TTGlyph>
    <TTGlyph name="Adieresis" xMin="-13" yMin="-2" xMax="466" yMax="879">
      <component glyphName="A" x="0" y="0" flags="0x0"/>
      <component glyphName="dieresis" x="143" y="177" flags="0x4"/>
    </TTGlyph>
    <TTGlyph name="Agrave" xMin="-13" yMin="-2" xMax="466" yMax="909">
      <component glyphName="A" x="0" y="0" flags="0x0"/>
      <component glyphName="grave" x="138" y="177" flags="0x4"/>
    </TTGlyph>
    <TTGlyph name="Amacron" xMin="-13" yMin="-2" xMax="466" yMax="859">
      <component glyphName="A" x="0" y="0" flags="0x0"/>
      <component glyphName="macron" x="145" y="177" flags="0x4"/>
    </TTGlyph>
    <TTGlyph name="Aogonek" xMin="-15" yMin="-173" xMax="509" yMax="702">
      <contour>
        <pt x="509" y="-103" on="0"/>
        <pt x="509" y="-127" on="1"/>
        <pt x="509" y="-145" on="0"/>
        <pt x="496" y="-154" on="1"/>
        <pt x="468" y="-173" on="0"/>
        <pt x="430" y="-173" on="1"/>
        <pt x="376" y="-173" on="0"/>
        <pt x="338" y="-116" on="0"/>
        <pt x="338" y="-85" on="1"/>
        <pt x="338" y="-61" on="0"/>
        <pt x="357" y="-2" on="0"/>
        <pt x="377" y="24" on="1"/>
        <pt x="353" y="178" on="1"/>
        <pt x="135" y="178" on="1"/>
        <pt x="76" y="14" on="1"/>
        <pt x="69" y="-2" on="0"/>
        <pt x="38" y="-2" on="1"/>
        <pt x="22" y="-2" on="1"/>
        <pt x="-15" y="-2" on="0"/>
        <pt x="-13" y="15" on="1"/>
        <pt x="-13" y="19" on="0"/>
        <pt x="-11" y="25" on="0"/>
        <pt x="-10" y="28" on="1"/>
        <pt x="240" y="683" on="1"/>
        <pt x="247" y="702" on="0"/>
        <pt x="282" y="702" on="1"/>
        <pt x="311" y="702" on="1"/>
        <pt x="346" y="702" on="0"/>
        <pt x="349" y="683" on="1"/>
        <pt x="464" y="28" on="1"/>
        <pt x="466" y="18" on="0"/>
        <pt x="466" y="15" on="1"/>
        <pt x="465" y="7" on="0"/>
        <pt x="445" y="-2" on="0"/>
        <pt x="427" y="-2" on="1"/>
        <pt x="416" y="-2" on="1"/>
        <pt x="399" y="-37" on="0"/>
        <pt x="399" y="-67" on="1"/>
        <pt x="399" y="-110" on="0"/>
        <pt x="449" y="-110" on="1"/>
        <pt x="457" y="-110" on="0"/>
        <pt x="485" y="-103" on="0"/>
        <pt x="489" y="-103" on="1"/>
      </contour>
      <contour>
        <pt x="340" y="250" on="1"/>
        <pt x="296" y="533" on="1"/>
        <pt x="292" y="560" on="0"/>
        <pt x="290" y="594" on="1"/>
        <pt x="285" y="594" on="1"/>
        <pt x="270" y="547" on="0"/>
        <pt x="265" y="533" on="1"/>
        <pt x="161" y="250" on="1"/>
      </contour>
    </TTGlyph>
    <TTGlyph name="Aring" xMin="-13" yMin="-2" xMax="466" yMax="910">
      <component glyphName="A" x="0" y="0" flags="0x0"/>
      <component glyphName="ring" x="142" y="177" flags="0x4"/>
    </TTGlyph>
    <TTGlyph name="Aringacute" xMin="-15" yMin="-2" xMax="466" yMax="929">
      <contour>
        <pt x="272" y="822" on="0"/>
        <pt x="272" y="832" on="1"/>
        <pt x="305" y="885" on="1"/>
        <pt x="311" y="893" on="0"/>
        <pt x="317" y="903" on="1"/>
        <pt x="326" y="917" on="0"/>
        <pt x="357" y="929" on="0"/>
        <pt x="382" y="929" on="1"/>
        <pt x="407" y="929" on="0"/>
        <pt x="429" y="923" on="0"/>
        <pt x="428" y="916" on="1"/>
        <pt x="428" y="913" on="0"/>
        <pt x="415" y="900" on="0"/>
        <pt x="401" y="888" on="1"/>
        <pt x="347" y="840" on="1"/>
        <pt x="329" y="822" on="0"/>
        <pt x="294" y="822" on="1"/>
      </contour>
      <contour>
        <pt x="466" y="18" on="0"/>
        <pt x="466" y="15" on="1"/>
        <pt x="465" y="7" on="0"/>
        <pt x="445" y="-2" on="0"/>
        <pt x="427" y="-2" on="1"/>
        <pt x="410" y="-2" on="1"/>
        <pt x="380" y="-2" on="0"/>
        <pt x="379" y="14" on="1"/>
        <pt x="353" y="178" on="1"/>
        <pt x="135" y="178" on="1"/>
        <pt x="76" y="14" on="1"/>
        <pt x="69" y="-2" on="0"/>
        <pt x="38" y="-2" on="1"/>
        <pt x="22" y="-2" on="1"/>
        <pt x="-15" y="-2" on="0"/>
        <pt x="-13" y="15" on="1"/>
        <pt x="-13" y="19" on="0"/>
        <pt x="-11" y="25" on="0"/>
        <pt x="-10" y="28" on="1"/>
        <pt x="228" y="650" on="1"/>
        <pt x="213" y="668" on="0"/>
        <pt x="213" y="695" on="1"/>
        <pt x="213" y="738" on="0"/>
        <pt x="266" y="793" on="0"/>
        <pt x="306" y="793" on="1"/>
        <pt x="341" y="793" on="0"/>
        <pt x="382" y="753" on="0"/>
        <pt x="382" y="719" on="1"/>
        <pt x="382" y="679" on="0"/>
        <pt x="355" y="650" on="1"/>
        <pt x="464" y="28" on="1"/>
      </contour>
      <contour>
        <pt x="250" y="680" on="0"/>
        <pt x="271" y="659" on="0"/>
        <pt x="291" y="659" on="1"/>
        <pt x="315" y="659" on="0"/>
        <pt x="344" y="689" on="0"/>
        <pt x="344" y="716" on="1"/>
        <pt x="344" y="736" on="0"/>
        <pt x="322" y="758" on="0"/>
        <pt x="302" y="758" on="1"/>
        <pt x="278" y="758" on="0"/>
        <pt x="250" y="727" on="0"/>
        <pt x="250" y="700" on="1"/>
      </contour>
      <contour>
        <pt x="340" y="250" on="1"/>
        <pt x="296" y="533" on="1"/>
        <pt x="292" y="560" on="0"/>
        <pt x="290" y="594" on="1"/>
        <pt x="285" y="594" on="1"/>
        <pt x="270" y="547" on="0"/>
        <pt x="265" y="533" on="1"/>
        <pt x="161" y="250" on="1"/>
      </contour>
    </TTGlyph>
    <TTGlyph name="Atilde" xMin="-13" yMin="-2" xMax="466" yMax="868">
      <component glyphName="A" x="0" y="0" flags="0x0"/>
      <component glyphName="tilde" x="149" y="177" flags="0x4"/>
    </TTGlyph>
    <TTGlyph name="B" xMin="53" yMin="0" xMax="499" yMax="700">
      <contour>
        <pt x="65" y="0" on="0"/>
        <pt x="53" y="14" on="0"/>
        <pt x="55" y="30" on="1"/>
        <pt x="123" y="670" on="1"/>
        <pt x="125" y="686" on="0"/>
        <pt x="139" y="700" on="0"/>
        <pt x="154" y="700" on="1"/>
        <pt x="317" y="700" on="1"/>
        <pt x="408" y="700" on="0"/>
        <pt x="499" y="620" on="0"/>
        <pt x="499" y="550" on="1"/>
        <pt x="499" y="541" on="0"/>
        <pt x="497" y="523" on="1"/>
        <pt x="492" y="473" on="0"/>
        <pt x="428" y="383" on="0"/>
        <pt x="391" y="371" on="1"/>
        <pt x="391" y="367" on="1"/>
        <pt x="424" y="355" on="0"/>
        <pt x="488" y="293" on="0"/>
        <pt x="488" y="226" on="1"/>
        <pt x="488" y="210" on="0"/>
        <pt x="487" y="201" on="1"/>
        <pt x="477" y="98" on="0"/>
        <pt x="359" y="0" on="0"/>
        <pt x="253" y="0" on="1"/>
        <pt x="80" y="0" on="1"/>
      </contour>
      <contour>
        <pt x="288" y="398" on="1"/>
        <pt x="334" y="398" on="0"/>
        <pt x="398" y="465" on="0"/>
        <pt x="403" y="515" on="1"/>
        <pt x="404" y="523" on="0"/>
        <pt x="404" y="537" on="1"/>
        <pt x="404" y="581" on="0"/>
        <pt x="358" y="624" on="0"/>
        <pt x="310" y="624" on="1"/>
        <pt x="208" y="624" on="1"/>
        <pt x="184" y="398" on="1"/>
      </contour>
      <contour>
        <pt x="279" y="76" on="1"/>
        <pt x="327" y="76" on="0"/>
        <pt x="389" y="145" on="0"/>
        <pt x="396" y="205" on="1"/>
        <pt x="397" y="211" on="0"/>
        <pt x="397" y="222" on="1"/>
        <pt x="397" y="270" on="0"/>
        <pt x="343" y="322" on="0"/>
        <pt x="291" y="322" on="1"/>
        <pt x="176" y="322" on="1"/>
        <pt x="150" y="76" on="1"/>
      </contour>
    </TTGlyph>
    <TTGlyph name="C" xMin="53" yMin="-6" xMax="471" yMax="706">
      <contour>
        <pt x="165" y="-6" on="0"/>
        <pt x="53" y="125" on="0"/>
        <pt x="53" y="262" on="1"/>
        <pt x="53" y="297" on="0"/>
        <pt x="58" y="350" on="1"/>
        <pt x="71" y="474" on="0"/>
        <pt x="139" y="629" on="0"/>
        <pt x="262" y="706" on="0"/>
        <pt x="357" y="706" on="1"/>
        <pt x="385" y="706" on="0"/>
        <pt x="437" y="696" on="0"/>
        <pt x="456" y="687" on="1"/>
        <pt x="465" y="683" on="0"/>
        <pt x="471" y="671" on="0"/>
        <pt x="470" y="660" on="1"/>
        <pt x="469" y="644" on="0"/>
        <pt x="447" y="599" on="0"/>
        <pt x="433" y="607" on="1"/>
        <pt x="393" y="628" on="0"/>
        <pt x="349" y="628" on="1"/>
        <pt x="263" y="628" on="0"/>
        <pt x="167" y="494" on="0"/>
        <pt x="151" y="351" on="1"/>
        <pt x="146" y="301" on="0"/>
        <pt x="146" y="269" on="1"/>
        <pt x="146" y="169" on="0"/>
        <pt x="217" y="72" on="0"/>
        <pt x="289" y="72" on="1"/>
        <pt x="340" y="72" on="0"/>
        <pt x="386" y="97" on="1"/>
        <pt x="392" y="99" on="0"/>
        <pt x="395" y="99" on="1"/>
        <pt x="408" y="99" on="0"/>
        <pt x="419" y="64" on="0"/>
        <pt x="418" y="48" on="1"/>
        <pt x="416" y="38" on="0"/>
        <pt x="404" y="22" on="0"/>
        <pt x="390" y="15" on="1"/>
        <pt x="372" y="7" on="0"/>
        <pt x="313" y="-6" on="0"/>
        <pt x="281" y="-6" on="1"/>
      </contour>
    </TTGlyph>
    <TTGlyph name="Cacute" xMin="53" yMin="-6" xMax="470" yMax="909">
      <component glyphName="C" x="0" y="0" flags="0x0"/>
      <component glyphName="acute" x="225" y="177" flags="0x4"/>
    </TTGlyph>
    <TTGlyph name="Cacute.loclPLK" xMin="53" yMin="-6" xMax="470" yMax="909">
      <component glyphName="C" x="0" y="0" flags="0x0"/>
      <component glyphName="acute.loclPLK" x="222" y="177" flags="0x4"/>
    </TTGlyph>
    <TTGlyph name="Ccaron" xMin="53" yMin="-6" xMax="470" yMax="902">
      <component glyphName="C" x="0" y="0" flags="0x0"/>
      <component glyphName="caron" x="162" y="177" flags="0x4"/>
    </TTGlyph>
    <TTGlyph name="Ccedilla" xMin="53" yMin="-210" xMax="471" yMax="706">
      <contour>
        <pt x="465" y="683" on="0"/>
        <pt x="471" y="671" on="0"/>
        <pt x="470" y="660" on="1"/>
        <pt x="469" y="644" on="0"/>
        <pt x="447" y="599" on="0"/>
        <pt x="433" y="607" on="1"/>
        <pt x="393" y="628" on="0"/>
        <pt x="349" y="628" on="1"/>
        <pt x="263" y="628" on="0"/>
        <pt x="167" y="494" on="0"/>
        <pt x="151" y="351" on="1"/>
        <pt x="146" y="301" on="0"/>
        <pt x="146" y="269" on="1"/>
        <pt x="146" y="169" on="0"/>
        <pt x="217" y="72" on="0"/>
        <pt x="289" y="72" on="1"/>
        <pt x="340" y="72" on="0"/>
        <pt x="386" y="97" on="1"/>
        <pt x="392" y="99" on="0"/>
        <pt x="395" y="99" on="1"/>
        <pt x="408" y="99" on="0"/>
        <pt x="419" y="64" on="0"/>
        <pt x="418" y="48" on="1"/>
        <pt x="416" y="38" on="0"/>
        <pt x="404" y="22" on="0"/>
        <pt x="390" y="15" on="1"/>
        <pt x="372" y="7" on="0"/>
        <pt x="313" y="-6" on="0"/>
        <pt x="281" y="-6" on="1"/>
        <pt x="267" y="-6" on="1"/>
        <pt x="252" y="-60" on="1"/>
        <pt x="279" y="-60" on="0"/>
        <pt x="326" y="-89" on="0"/>
        <pt x="326" y="-127" on="1"/>
        <pt x="326" y="-210" on="0"/>
        <pt x="230" y="-210" on="1"/>
        <pt x="198" y="-210" on="0"/>
        <pt x="136" y="-186" on="0"/>
        <pt x="136" y="-167" on="1"/>
        <pt x="136" y="-158" on="0"/>
        <pt x="148" y="-141" on="0"/>
        <pt x="155" y="-141" on="1"/>
        <pt x="162" y="-141" on="0"/>
        <pt x="178" y="-148" on="1"/>
        <pt x="204" y="-161" on="0"/>
        <pt x="224" y="-161" on="1"/>
        <pt x="238" y="-161" on="0"/>
        <pt x="260" y="-146" on="0"/>
        <pt x="260" y="-132" on="1"/>
        <pt x="260" y="-117" on="0"/>
        <pt x="243" y="-103" on="0"/>
        <pt x="227" y="-98" on="1"/>
        <pt x="216" y="-94" on="0"/>
        <pt x="205" y="-86" on="0"/>
        <pt x="205" y="-79" on="1"/>
        <pt x="205" y="-72" on="0"/>
        <pt x="214" y="-39" on="0"/>
        <pt x="227" y="-2" on="1"/>
        <pt x="139" y="12" on="0"/>
        <pt x="53" y="142" on="0"/>
        <pt x="53" y="262" on="1"/>
        <pt x="53" y="298" on="0"/>
        <pt x="58" y="350" on="1"/>
        <pt x="71" y="474" on="0"/>
        <pt x="139" y="629" on="0"/>
        <pt x="262" y="706" on="0"/>
        <pt x="357" y="706" on="1"/>
        <pt x="385" y="706" on="0"/>
        <pt x="437" y="696" on="0"/>
        <pt x="456" y="687" on="1"/>
      </contour>
    </TTGlyph>
    <TTGlyph name="Ccircumflex" xMin="53" yMin="-6" xMax="470" yMax="895">
      <component glyphName="C" x="0" y="0" flags="0x0"/>
      <component glyphName="circumflex" x="160" y="177" flags="0x4"/>
    </TTGlyph>
    <TTGlyph name="Cdotaccent" xMin="53" yMin="-6" xMax="470" yMax="879">
      <component glyphName="C" x="0" y="0" flags="0x0"/>
      <component glyphName="dotaccent" x="157" y="177" flags="0x4"/>
    </TTGlyph>
    <TTGlyph name="D" xMin="53" yMin="0" xMax="540" yMax="700">
      <contour>
        <pt x="65" y="0" on="0"/>
        <pt x="53" y="14" on="0"/>
        <pt x="55" y="30" on="1"/>
        <pt x="123" y="670" on="1"/>
        <pt x="125" y="686" on="0"/>
        <pt x="139" y="700" on="0"/>
        <pt x="153" y="700" on="1"/>
        <pt x="321" y="700" on="1"/>
        <pt x="540" y="700" on="0"/>
        <pt x="540" y="434" on="1"/>
        <pt x="540" y="400" on="0"/>
        <pt x="535" y="350" on="1"/>
        <pt x="499" y="0" on="0"/>
        <pt x="247" y="0" on="1"/>
        <pt x="79" y="0" on="1"/>
      </contour>
      <contour>
        <pt x="253" y="76" on="1"/>
        <pt x="328" y="76" on="0"/>
        <pt x="428" y="207" on="0"/>
        <pt x="443" y="350" on="1"/>
        <pt x="447" y="386" on="0"/>
        <pt x="447" y="425" on="1"/>
        <pt x="447" y="528" on="0"/>
        <pt x="375" y="624" on="0"/>
        <pt x="311" y="624" on="1"/>
        <pt x="209" y="624" on="1"/>
        <pt x="151" y="76" on="1"/>
      </contour>
    </TTGlyph>
    <TTGlyph name="Dcaron" xMin="55" yMin="0" xMax="540" yMax="902">
      <component glyphName="D" x="0" y="0" flags="0x0"/>
      <component glyphName="caron" x="168" y="177" flags="0x4"/>
    </TTGlyph>
    <TTGlyph name="Dcroat" xMin="20" yMin="0" xMax="540" yMax="700">
      <component glyphName="Eth" x="0" y="0" flags="0x0"/>
    </TTGlyph>
    <TTGlyph name="E" xMin="53" yMin="0" xMax="460" yMax="700">
      <contour>
        <pt x="65" y="0" on="0"/>
        <pt x="53" y="14" on="0"/>
        <pt x="55" y="30" on="1"/>
        <pt x="123" y="670" on="1"/>
        <pt x="125" y="686" on="0"/>
        <pt x="139" y="700" on="0"/>
        <pt x="153" y="700" on="1"/>
        <pt x="441" y="700" on="1"/>
        <pt x="460" y="700" on="0"/>
        <pt x="457" y="670" on="1"/>
        <pt x="455" y="654" on="1"/>
        <pt x="452" y="624" on="0"/>
        <pt x="433" y="624" on="1"/>
        <pt x="208" y="624" on="1"/>
        <pt x="184" y="396" on="1"/>
        <pt x="386" y="396" on="1"/>
        <pt x="405" y="396" on="0"/>
        <pt x="402" y="366" on="1"/>
        <pt x="400" y="350" on="1"/>
        <pt x="397" y="320" on="0"/>
        <pt x="378" y="320" on="1"/>
        <pt x="176" y="320" on="1"/>
        <pt x="150" y="76" on="1"/>
        <pt x="375" y="76" on="1"/>
        <pt x="385" y="76" on="0"/>
        <pt x="393" y="62" on="0"/>
        <pt x="391" y="46" on="1"/>
        <pt x="389" y="30" on="1"/>
        <pt x="387" y="14" on="0"/>
        <pt x="377" y="0" on="0"/>
        <pt x="367" y="0" on="1"/>
        <pt x="79" y="0" on="1"/>
      </contour>
    </TTGlyph>
    <TTGlyph name="Eacute" xMin="55" yMin="0" xMax="457" yMax="909">
      <component glyphName="E" x="0" y="0" flags="0x0"/>
      <component glyphName="acute" x="204" y="177" flags="0x4"/>
    </TTGlyph>
    <TTGlyph name="Ebreve" xMin="55" yMin="0" xMax="457" yMax="892">
      <component glyphName="E" x="0" y="0" flags="0x0"/>
      <component glyphName="breve" x="140" y="177" flags="0x4"/>
    </TTGlyph>
    <TTGlyph name="Ecaron" xMin="55" yMin="0" xMax="457" yMax="902">
      <component glyphName="E" x="0" y="0" flags="0x0"/>
      <component glyphName="caron" x="141" y="177" flags="0x4"/>
    </TTGlyph>
    <TTGlyph name="Ecircumflex" xMin="55" yMin="0" xMax="457" yMax="895">
      <component glyphName="E" x="0" y="0" flags="0x0"/>
      <component glyphName="circumflex" x="139" y="177" flags="0x4"/>
    </TTGlyph>
    <TTGlyph name="Edieresis" xMin="55" yMin="0" xMax="457" yMax="879">
      <component glyphName="E" x="0" y="0" flags="0x0"/>
      <component glyphName="dieresis" x="137" y="177" flags="0x4"/>
    </TTGlyph>
    <TTGlyph name="Edotaccent" xMin="55" yMin="0" xMax="457" yMax="879">
      <component glyphName="E" x="0" y="0" flags="0x0"/>
      <component glyphName="dotaccent" x="136" y="177" flags="0x4"/>
    </TTGlyph>
    <TTGlyph name="Egrave" xMin="55" yMin="0" xMax="457" yMax="909">
      <component glyphName="E" x="0" y="0" flags="0x0"/>
      <component glyphName="grave" x="132" y="177" flags="0x4"/>
    </TTGlyph>
    <TTGlyph name="Emacron" xMin="55" yMin="0" xMax="457" yMax="859">
      <component glyphName="E" x="0" y="0" flags="0x0"/>
      <component glyphName="macron" x="139" y="177" flags="0x4"/>
    </TTGlyph>
    <TTGlyph name="Eng" xMin="45" yMin="-212" xMax="563" yMax="702">
      <contour>
        <pt x="563" y="702" on="0"/>
        <pt x="561" y="680" on="1"/>
        <pt x="482" y="-80" on="1"/>
        <pt x="474" y="-154" on="0"/>
        <pt x="401" y="-212" on="0"/>
        <pt x="359" y="-212" on="1"/>
        <pt x="290" y="-212" on="0"/>
        <pt x="292" y="-182" on="1"/>
        <pt x="293" y="-171" on="0"/>
        <pt x="309" y="-135" on="0"/>
        <pt x="318" y="-135" on="1"/>
        <pt x="322" y="-135" on="0"/>
        <pt x="338" y="-140" on="0"/>
        <pt x="354" y="-140" on="1"/>
        <pt x="371" y="-140" on="0"/>
        <pt x="395" y="-111" on="0"/>
        <pt x="399" y="-72" on="1"/>
        <pt x="406" y="-4" on="1"/>
        <pt x="208" y="485" on="1"/>
        <pt x="197" y="513" on="0"/>
        <pt x="189" y="548" on="1"/>
        <pt x="184" y="546" on="1"/>
        <pt x="186" y="534" on="0"/>
        <pt x="186" y="510" on="1"/>
        <pt x="186" y="490" on="0"/>
        <pt x="185" y="480" on="1"/>
        <pt x="136" y="20" on="1"/>
        <pt x="134" y="-2" on="0"/>
        <pt x="95" y="-2" on="1"/>
        <pt x="83" y="-2" on="1"/>
        <pt x="45" y="-2" on="0"/>
        <pt x="48" y="20" on="1"/>
        <pt x="117" y="680" on="1"/>
        <pt x="119" y="702" on="0"/>
        <pt x="157" y="702" on="1"/>
        <pt x="181" y="702" on="1"/>
        <pt x="196" y="702" on="0"/>
        <pt x="214" y="693" on="0"/>
        <pt x="218" y="682" on="1"/>
        <pt x="401" y="225" on="1"/>
        <pt x="414" y="190" on="0"/>
        <pt x="421" y="162" on="1"/>
        <pt x="426" y="164" on="1"/>
        <pt x="424" y="176" on="0"/>
        <pt x="424" y="200" on="1"/>
        <pt x="424" y="220" on="0"/>
        <pt x="425" y="230" on="1"/>
        <pt x="473" y="680" on="1"/>
        <pt x="475" y="702" on="0"/>
        <pt x="513" y="702" on="1"/>
        <pt x="525" y="702" on="1"/>
      </contour>
    </TTGlyph>
    <TTGlyph name="Eogonek" xMin="53" yMin="-177" xMax="469" yMax="700">
      <contour>
        <pt x="469" y="-107" on="0"/>
        <pt x="469" y="-131" on="1"/>
        <pt x="469" y="-149" on="0"/>
        <pt x="456" y="-158" on="1"/>
        <pt x="428" y="-177" on="0"/>
        <pt x="390" y="-177" on="1"/>
        <pt x="336" y="-177" on="0"/>
        <pt x="298" y="-120" on="0"/>
        <pt x="298" y="-89" on="1"/>
        <pt x="298" y="-71" on="0"/>
        <pt x="310" y="-23" on="0"/>
        <pt x="323" y="0" on="1"/>
        <pt x="79" y="0" on="1"/>
        <pt x="65" y="0" on="0"/>
        <pt x="53" y="14" on="0"/>
        <pt x="55" y="30" on="1"/>
        <pt x="123" y="670" on="1"/>
        <pt x="125" y="686" on="0"/>
        <pt x="139" y="700" on="0"/>
        <pt x="153" y="700" on="1"/>
        <pt x="441" y="700" on="1"/>
        <pt x="460" y="700" on="0"/>
        <pt x="457" y="670" on="1"/>
        <pt x="455" y="654" on="1"/>
        <pt x="452" y="624" on="0"/>
        <pt x="433" y="624" on="1"/>
        <pt x="208" y="624" on="1"/>
        <pt x="184" y="396" on="1"/>
        <pt x="386" y="396" on="1"/>
        <pt x="405" y="396" on="0"/>
        <pt x="402" y="366" on="1"/>
        <pt x="400" y="350" on="1"/>
        <pt x="397" y="320" on="0"/>
        <pt x="378" y="320" on="1"/>
        <pt x="176" y="320" on="1"/>
        <pt x="150" y="76" on="1"/>
        <pt x="375" y="76" on="1"/>
        <pt x="385" y="76" on="0"/>
        <pt x="393" y="62" on="0"/>
        <pt x="391" y="46" on="1"/>
        <pt x="389" y="30" on="1"/>
        <pt x="387" y="15" on="0"/>
        <pt x="384" y="10" on="1"/>
        <pt x="385" y="10" on="1"/>
        <pt x="372" y="-11" on="0"/>
        <pt x="359" y="-55" on="0"/>
        <pt x="359" y="-71" on="1"/>
        <pt x="359" y="-114" on="0"/>
        <pt x="409" y="-114" on="1"/>
        <pt x="417" y="-114" on="0"/>
        <pt x="445" y="-107" on="0"/>
        <pt x="449" y="-107" on="1"/>
      </contour>
    </TTGlyph>
    <TTGlyph name="Eth" xMin="20" yMin="0" xMax="540" yMax="700">
      <contour>
        <pt x="540" y="700" on="0"/>
        <pt x="540" y="434" on="1"/>
        <pt x="540" y="400" on="0"/>
        <pt x="535" y="350" on="1"/>
        <pt x="499" y="0" on="0"/>
        <pt x="247" y="0" on="1"/>
        <pt x="79" y="0" on="1"/>
        <pt x="65" y="0" on="0"/>
        <pt x="53" y="14" on="0"/>
        <pt x="55" y="30" on="1"/>
        <pt x="86" y="320" on="1"/>
        <pt x="37" y="320" on="1"/>
        <pt x="20" y="320" on="0"/>
        <pt x="20" y="342" on="1"/>
        <pt x="20" y="367" on="0"/>
        <pt x="29" y="396" on="0"/>
        <pt x="45" y="396" on="1"/>
        <pt x="94" y="396" on="1"/>
        <pt x="123" y="670" on="1"/>
        <pt x="125" y="686" on="0"/>
        <pt x="139" y="700" on="0"/>
        <pt x="153" y="700" on="1"/>
        <pt x="321" y="700" on="1"/>
      </contour>
      <contour>
        <pt x="447" y="386" on="0"/>
        <pt x="447" y="425" on="1"/>
        <pt x="447" y="528" on="0"/>
        <pt x="375" y="624" on="0"/>
        <pt x="311" y="624" on="1"/>
        <pt x="209" y="624" on="1"/>
        <pt x="185" y="396" on="1"/>
        <pt x="295" y="396" on="1"/>
        <pt x="312" y="396" on="0"/>
        <pt x="312" y="374" on="1"/>
        <pt x="312" y="349" on="0"/>
        <pt x="303" y="320" on="0"/>
        <pt x="287" y="320" on="1"/>
        <pt x="177" y="320" on="1"/>
        <pt x="151" y="76" on="1"/>
        <pt x="253" y="76" on="1"/>
        <pt x="328" y="76" on="0"/>
        <pt x="428" y="207" on="0"/>
        <pt x="443" y="350" on="1"/>
      </contour>
    </TTGlyph>
    <TTGlyph name="Euro" xMin="3" yMin="-6" xMax="503" yMax="706">
      <contour>
        <pt x="178" y="-6" on="0"/>
        <pt x="71" y="113" on="0"/>
        <pt x="67" y="236" on="1"/>
        <pt x="22" y="236" on="1"/>
        <pt x="12" y="236" on="0"/>
        <pt x="3" y="250" on="0"/>
        <pt x="5" y="266" on="1"/>
        <pt x="6" y="273" on="1"/>
        <pt x="9" y="303" on="0"/>
        <pt x="29" y="303" on="1"/>
        <pt x="68" y="303" on="1"/>
        <pt x="72" y="350" on="1"/>
        <pt x="78" y="396" on="1"/>
        <pt x="39" y="396" on="1"/>
        <pt x="29" y="396" on="0"/>
        <pt x="20" y="410" on="0"/>
        <pt x="22" y="426" on="1"/>
        <pt x="23" y="433" on="1"/>
        <pt x="26" y="463" on="0"/>
        <pt x="46" y="463" on="1"/>
        <pt x="92" y="463" on="1"/>
        <pt x="122" y="585" on="0"/>
        <pt x="257" y="706" on="0"/>
        <pt x="359" y="706" on="1"/>
        <pt x="396" y="706" on="0"/>
        <pt x="462" y="686" on="0"/>
        <pt x="503" y="658" on="0"/>
        <pt x="503" y="645" on="1"/>
        <pt x="503" y="632" on="0"/>
        <pt x="474" y="588" on="0"/>
        <pt x="462" y="588" on="1"/>
        <pt x="458" y="588" on="0"/>
        <pt x="425" y="612" on="0"/>
        <pt x="381" y="629" on="0"/>
        <pt x="350" y="629" on="1"/>
        <pt x="289" y="629" on="0"/>
        <pt x="205" y="549" on="0"/>
        <pt x="183" y="463" on="1"/>
        <pt x="413" y="463" on="1"/>
        <pt x="423" y="463" on="0"/>
        <pt x="432" y="449" on="0"/>
        <pt x="430" y="433" on="1"/>
        <pt x="429" y="426" on="1"/>
        <pt x="426" y="396" on="0"/>
        <pt x="406" y="396" on="1"/>
        <pt x="170" y="396" on="1"/>
        <pt x="164" y="351" on="1"/>
        <pt x="160" y="303" on="1"/>
        <pt x="396" y="303" on="1"/>
        <pt x="406" y="303" on="0"/>
        <pt x="415" y="289" on="0"/>
        <pt x="413" y="273" on="1"/>
        <pt x="412" y="266" on="1"/>
        <pt x="409" y="236" on="0"/>
        <pt x="389" y="236" on="1"/>
        <pt x="159" y="236" on="1"/>
        <pt x="163" y="152" on="0"/>
        <pt x="230" y="71" on="0"/>
        <pt x="288" y="71" on="1"/>
        <pt x="324" y="71" on="0"/>
        <pt x="378" y="92" on="0"/>
        <pt x="405" y="109" on="1"/>
        <pt x="419" y="118" on="0"/>
        <pt x="423" y="118" on="1"/>
        <pt x="434" y="118" on="0"/>
        <pt x="454" y="78" on="0"/>
        <pt x="452" y="66" on="1"/>
        <pt x="451" y="52" on="0"/>
        <pt x="402" y="18" on="0"/>
        <pt x="324" y="-6" on="0"/>
        <pt x="283" y="-6" on="1"/>
      </contour>
    </TTGlyph>
    <TTGlyph name="F" xMin="52" yMin="-2" xMax="432" yMax="700">
      <contour>
        <pt x="52" y="-2" on="0"/>
        <pt x="54" y="20" on="1"/>
        <pt x="123" y="670" on="1"/>
        <pt x="125" y="686" on="0"/>
        <pt x="139" y="700" on="0"/>
        <pt x="153" y="700" on="1"/>
        <pt x="413" y="700" on="1"/>
        <pt x="432" y="700" on="0"/>
        <pt x="429" y="670" on="1"/>
        <pt x="427" y="654" on="1"/>
        <pt x="424" y="624" on="0"/>
        <pt x="405" y="624" on="1"/>
        <pt x="208" y="624" on="1"/>
        <pt x="184" y="396" on="1"/>
        <pt x="364" y="396" on="1"/>
        <pt x="383" y="396" on="0"/>
        <pt x="380" y="366" on="1"/>
        <pt x="378" y="350" on="1"/>
        <pt x="375" y="320" on="0"/>
        <pt x="356" y="320" on="1"/>
        <pt x="176" y="320" on="1"/>
        <pt x="144" y="20" on="1"/>
        <pt x="142" y="-2" on="0"/>
        <pt x="104" y="-2" on="1"/>
        <pt x="90" y="-2" on="1"/>
      </contour>
    </TTGlyph>
    <TTGlyph name="G" xMin="54" yMin="-6" xMax="512" yMax="706">
      <contour>
        <pt x="261" y="627" on="0"/>
        <pt x="166" y="488" on="0"/>
        <pt x="152" y="353" on="1"/>
        <pt x="148" y="318" on="0"/>
        <pt x="148" y="277" on="1"/>
        <pt x="148" y="181" on="0"/>
        <pt x="213" y="70" on="0"/>
        <pt x="286" y="70" on="1"/>
        <pt x="339" y="70" on="0"/>
        <pt x="376" y="83" on="1"/>
        <pt x="399" y="306" on="1"/>
        <pt x="314" y="306" on="1"/>
        <pt x="297" y="306" on="0"/>
        <pt x="297" y="326" on="1"/>
        <pt x="297" y="332" on="0"/>
        <pt x="298" y="336" on="1"/>
        <pt x="299" y="352" on="1"/>
        <pt x="302" y="382" on="0"/>
        <pt x="322" y="382" on="1"/>
        <pt x="470" y="382" on="1"/>
        <pt x="497" y="382" on="0"/>
        <pt x="494" y="352" on="1"/>
        <pt x="464" y="66" on="1"/>
        <pt x="460" y="28" on="0"/>
        <pt x="347" y="-6" on="0"/>
        <pt x="275" y="-6" on="1"/>
        <pt x="172" y="-6" on="0"/>
        <pt x="54" y="133" on="0"/>
        <pt x="54" y="270" on="1"/>
        <pt x="54" y="309" on="0"/>
        <pt x="58" y="344" on="1"/>
        <pt x="72" y="470" on="0"/>
        <pt x="141" y="629" on="0"/>
        <pt x="264" y="706" on="0"/>
        <pt x="358" y="706" on="1"/>
        <pt x="394" y="706" on="0"/>
        <pt x="466" y="687" on="0"/>
        <pt x="512" y="658" on="0"/>
        <pt x="512" y="645" on="1"/>
        <pt x="512" y="633" on="0"/>
        <pt x="480" y="586" on="0"/>
        <pt x="470" y="586" on="1"/>
        <pt x="467" y="586" on="0"/>
        <pt x="433" y="609" on="0"/>
        <pt x="384" y="627" on="0"/>
        <pt x="351" y="627" on="1"/>
      </contour>
    </TTGlyph>
    <TTGlyph name="Gbreve" xMin="54" yMin="-6" xMax="512" yMax="892">
      <component glyphName="G" x="0" y="0" flags="0x0"/>
      <component glyphName="breve" x="186" y="177" flags="0x4"/>
    </TTGlyph>
    <TTGlyph name="Gcircumflex" xMin="54" yMin="-6" xMax="512" yMax="895">
      <component glyphName="G" x="0" y="0" flags="0x0"/>
      <component glyphName="circumflex" x="185" y="177" flags="0x4"/>
    </TTGlyph>
    <TTGlyph name="Gcommaaccent" xMin="54" yMin="-235" xMax="512" yMax="706">
      <component glyphName="G" x="0" y="0" flags="0x0"/>
      <component glyphName="uni0326" x="413" y="0" flags="0x0"/>
    </TTGlyph>
    <TTGlyph name="Gdotaccent" xMin="54" yMin="-6" xMax="512" yMax="879">
      <component glyphName="G" x="0" y="0" flags="0x0"/>
      <component glyphName="dotaccent" x="182" y="177" flags="0x4"/>
    </TTGlyph>
    <TTGlyph name="H" xMin="52" yMin="-2" xMax="569" yMax="702">
      <contour>
        <pt x="52" y="-2" on="0"/>
        <pt x="54" y="20" on="1"/>
        <pt x="124" y="680" on="1"/>
        <pt x="126" y="702" on="0"/>
        <pt x="164" y="702" on="1"/>
        <pt x="179" y="702" on="1"/>
        <pt x="216" y="702" on="0"/>
        <pt x="214" y="680" on="1"/>
        <pt x="184" y="397" on="1"/>
        <pt x="447" y="397" on="1"/>
        <pt x="477" y="680" on="1"/>
        <pt x="479" y="702" on="0"/>
        <pt x="517" y="702" on="1"/>
        <pt x="531" y="702" on="1"/>
        <pt x="569" y="702" on="0"/>
        <pt x="567" y="680" on="1"/>
        <pt x="497" y="20" on="1"/>
        <pt x="495" y="-2" on="0"/>
        <pt x="457" y="-2" on="1"/>
        <pt x="443" y="-2" on="1"/>
        <pt x="405" y="-2" on="0"/>
        <pt x="407" y="20" on="1"/>
        <pt x="439" y="321" on="1"/>
        <pt x="176" y="321" on="1"/>
        <pt x="144" y="20" on="1"/>
        <pt x="142" y="-2" on="0"/>
        <pt x="105" y="-2" on="1"/>
        <pt x="90" y="-2" on="1"/>
      </contour>
    </TTGlyph>
    <TTGlyph name="Hbar" xMin="12" yMin="-2" xMax="650" yMax="702">
      <contour>
        <pt x="643" y="562" on="0"/>
        <pt x="650" y="549" on="0"/>
        <pt x="650" y="536" on="1"/>
        <pt x="650" y="491" on="0"/>
        <pt x="625" y="491" on="1"/>
        <pt x="547" y="491" on="1"/>
        <pt x="497" y="20" on="1"/>
        <pt x="495" y="-2" on="0"/>
        <pt x="457" y="-2" on="1"/>
        <pt x="443" y="-2" on="1"/>
        <pt x="405" y="-2" on="0"/>
        <pt x="407" y="20" on="1"/>
        <pt x="439" y="321" on="1"/>
        <pt x="176" y="321" on="1"/>
        <pt x="144" y="20" on="1"/>
        <pt x="142" y="-2" on="0"/>
        <pt x="105" y="-2" on="1"/>
        <pt x="90" y="-2" on="1"/>
        <pt x="52" y="-2" on="0"/>
        <pt x="54" y="20" on="1"/>
        <pt x="104" y="491" on="1"/>
        <pt x="29" y="491" on="1"/>
        <pt x="19" y="491" on="0"/>
        <pt x="12" y="505" on="0"/>
        <pt x="12" y="518" on="1"/>
        <pt x="12" y="562" on="0"/>
        <pt x="37" y="562" on="1"/>
        <pt x="111" y="562" on="1"/>
        <pt x="124" y="680" on="1"/>
        <pt x="126" y="702" on="0"/>
        <pt x="164" y="702" on="1"/>
        <pt x="179" y="702" on="1"/>
        <pt x="216" y="702" on="0"/>
        <pt x="214" y="680" on="1"/>
        <pt x="201" y="562" on="1"/>
        <pt x="464" y="562" on="1"/>
        <pt x="477" y="680" on="1"/>
        <pt x="479" y="702" on="0"/>
        <pt x="517" y="702" on="1"/>
        <pt x="531" y="702" on="1"/>
        <pt x="569" y="702" on="0"/>
        <pt x="567" y="680" on="1"/>
        <pt x="554" y="562" on="1"/>
        <pt x="633" y="562" on="1"/>
      </contour>
      <contour>
        <pt x="457" y="491" on="1"/>
        <pt x="194" y="491" on="1"/>
        <pt x="184" y="397" on="1"/>
        <pt x="447" y="397" on="1"/>
      </contour>
    </TTGlyph>
    <TTGlyph name="Hcircumflex" xMin="54" yMin="-2" xMax="567" yMax="895">
      <component glyphName="H" x="0" y="0" flags="0x0"/>
      <component glyphName="circumflex" x="194" y="177" flags="0x4"/>
    </TTGlyph>
    <TTGlyph name="I" xMin="58" yMin="-2" xMax="222" yMax="702">
      <contour>
        <pt x="58" y="-2" on="0"/>
        <pt x="60" y="20" on="1"/>
        <pt x="130" y="680" on="1"/>
        <pt x="132" y="702" on="0"/>
        <pt x="170" y="702" on="1"/>
        <pt x="185" y="702" on="1"/>
        <pt x="222" y="702" on="0"/>
        <pt x="220" y="680" on="1"/>
        <pt x="150" y="20" on="1"/>
        <pt x="148" y="-2" on="0"/>
        <pt x="111" y="-2" on="1"/>
        <pt x="96" y="-2" on="1"/>
      </contour>
    </TTGlyph>
    <TTGlyph name="IJ" xMin="60" yMin="-6" xMax="572" yMax="702">
      <component glyphName="I" x="0" y="0" flags="0x0"/>
      <component glyphName="J" x="262" y="0" flags="0x0"/>
    </TTGlyph>
    <TTGlyph name="Iacute" xMin="60" yMin="-2" xMax="288" yMax="909">
      <component glyphName="I" x="0" y="0" flags="0x0"/>
      <component glyphName="acute" x="88" y="177" flags="0x4"/>
    </TTGlyph>
    <TTGlyph name="Iacute_J.loclNLD" xMin="60" yMin="-6" xMax="638" yMax="909">
      <component glyphName="I" x="0" y="0" flags="0x0"/>
      <component glyphName="acute" x="88" y="177" flags="0x4"/>
      <component glyphName="J" x="262" y="0" flags="0x0"/>
      <component glyphName="acute" x="438" y="177" flags="0x4"/>
    </TTGlyph>
    <TTGlyph name="Ibreve" xMin="60" yMin="-2" xMax="313" yMax="892">
      <component glyphName="I" x="0" y="0" flags="0x0"/>
      <component glyphName="breve" x="24" y="177" flags="0x4"/>
    </TTGlyph>
    <TTGlyph name="Icircumflex" xMin="60" yMin="-2" xMax="292" yMax="895">
      <component glyphName="I" x="0" y="0" flags="0x0"/>
      <component glyphName="circumflex" x="23" y="177" flags="0x4"/>
    </TTGlyph>
    <TTGlyph name="Idieresis" xMin="60" yMin="-2" xMax="296" yMax="879">
      <component glyphName="I" x="0" y="0" flags="0x0"/>
      <component glyphName="dieresis" x="21" y="177" flags="0x4"/>
    </TTGlyph>
    <TTGlyph name="Idotaccent" xMin="60" yMin="-2" xMax="239" yMax="879">
      <component glyphName="I" x="0" y="0" flags="0x0"/>
      <component glyphName="dotaccent" x="20" y="177" flags="0x4"/>
    </TTGlyph>
    <TTGlyph name="Igrave" xMin="60" yMin="-2" xMax="220" yMax="909">
      <component glyphName="I" x="0" y="0" flags="0x0"/>
      <component glyphName="grave" x="16" y="177" flags="0x4"/>
    </TTGlyph>
    <TTGlyph name="Imacron" xMin="60" yMin="-2" xMax="309" yMax="859">
      <component glyphName="I" x="0" y="0" flags="0x0"/>
      <component glyphName="macron" x="23" y="177" flags="0x4"/>
    </TTGlyph>
    <TTGlyph name="Iogonek" xMin="58" yMin="-176" xMax="231" yMax="702">
      <contour>
        <pt x="231" y="-106" on="0"/>
        <pt x="231" y="-130" on="1"/>
        <pt x="231" y="-148" on="0"/>
        <pt x="218" y="-157" on="1"/>
        <pt x="190" y="-176" on="0"/>
        <pt x="152" y="-176" on="1"/>
        <pt x="98" y="-176" on="0"/>
        <pt x="60" y="-119" on="0"/>
        <pt x="60" y="-88" on="1"/>
        <pt x="60" y="-45" on="0"/>
        <pt x="84" y="-1" on="1"/>
        <pt x="58" y="2" on="0"/>
        <pt x="60" y="20" on="1"/>
        <pt x="130" y="680" on="1"/>
        <pt x="132" y="702" on="0"/>
        <pt x="170" y="702" on="1"/>
        <pt x="185" y="702" on="1"/>
        <pt x="222" y="702" on="0"/>
        <pt x="220" y="680" on="1"/>
        <pt x="150" y="20" on="1"/>
        <pt x="150" y="13" on="0"/>
        <pt x="145" y="8" on="1"/>
        <pt x="133" y="-13" on="0"/>
        <pt x="121" y="-55" on="0"/>
        <pt x="121" y="-70" on="1"/>
        <pt x="121" y="-113" on="0"/>
        <pt x="171" y="-113" on="1"/>
        <pt x="179" y="-113" on="0"/>
        <pt x="207" y="-106" on="0"/>
        <pt x="211" y="-106" on="1"/>
      </contour>
    </TTGlyph>
    <TTGlyph name="Itilde" xMin="46" yMin="-2" xMax="316" yMax="868">
      <contour>
        <pt x="55" y="773" on="1"/>
        <pt x="46" y="777" on="0"/>
        <pt x="46" y="785" on="1"/>
        <pt x="46" y="793" on="0"/>
        <pt x="48" y="798" on="1"/>
        <pt x="61" y="835" on="0"/>
        <pt x="97" y="867" on="0"/>
        <pt x="123" y="867" on="1"/>
        <pt x="136" y="867" on="0"/>
        <pt x="166" y="856" on="0"/>
        <pt x="186" y="845" on="1"/>
        <pt x="199" y="838" on="0"/>
        <pt x="227" y="827" on="0"/>
        <pt x="237" y="827" on="1"/>
        <pt x="248" y="827" on="0"/>
        <pt x="263" y="838" on="0"/>
        <pt x="271" y="853" on="1"/>
        <pt x="279" y="868" on="0"/>
        <pt x="289" y="868" on="1"/>
        <pt x="294" y="868" on="0"/>
        <pt x="298" y="865" on="1"/>
        <pt x="305" y="862" on="1"/>
        <pt x="310" y="860" on="0"/>
        <pt x="316" y="854" on="0"/>
        <pt x="316" y="850" on="1"/>
        <pt x="316" y="844" on="0"/>
        <pt x="312" y="836" on="1"/>
        <pt x="299" y="799" on="0"/>
        <pt x="263" y="768" on="0"/>
        <pt x="238" y="768" on="1"/>
        <pt x="215" y="768" on="0"/>
        <pt x="173" y="790" on="1"/>
        <pt x="159" y="797" on="0"/>
        <pt x="131" y="808" on="0"/>
        <pt x="121" y="808" on="1"/>
        <pt x="112" y="808" on="0"/>
        <pt x="97" y="796" on="0"/>
        <pt x="89" y="781" on="1"/>
        <pt x="81" y="767" on="0"/>
        <pt x="73" y="767" on="1"/>
        <pt x="70" y="767" on="0"/>
        <pt x="64" y="769" on="1"/>
      </contour>
      <contour>
        <pt x="58" y="-2" on="0"/>
        <pt x="60" y="20" on="1"/>
        <pt x="130" y="680" on="1"/>
        <pt x="132" y="702" on="0"/>
        <pt x="170" y="702" on="1"/>
        <pt x="185" y="702" on="1"/>
        <pt x="222" y="702" on="0"/>
        <pt x="220" y="680" on="1"/>
        <pt x="150" y="20" on="1"/>
        <pt x="148" y="-2" on="0"/>
        <pt x="111" y="-2" on="1"/>
        <pt x="96" y="-2" on="1"/>
      </contour>
    </TTGlyph>
    <TTGlyph name="J" xMin="-26" yMin="-6" xMax="312" yMax="702">
      <contour>
        <pt x="30" y="-6" on="0"/>
        <pt x="-26" y="11" on="0"/>
        <pt x="-25" y="26" on="1"/>
        <pt x="-23" y="40" on="0"/>
        <pt x="-5" y="81" on="0"/>
        <pt x="4" y="81" on="1"/>
        <pt x="10" y="81" on="0"/>
        <pt x="43" y="72" on="0"/>
        <pt x="60" y="72" on="1"/>
        <pt x="110" y="72" on="0"/>
        <pt x="161" y="130" on="0"/>
        <pt x="168" y="195" on="1"/>
        <pt x="219" y="680" on="1"/>
        <pt x="221" y="702" on="0"/>
        <pt x="259" y="702" on="1"/>
        <pt x="273" y="702" on="1"/>
        <pt x="312" y="702" on="0"/>
        <pt x="310" y="680" on="1"/>
        <pt x="260" y="205" on="1"/>
        <pt x="250" y="106" on="0"/>
        <pt x="153" y="-6" on="0"/>
        <pt x="62" y="-6" on="1"/>
      </contour>
    </TTGlyph>
    <TTGlyph name="Jcircumflex" xMin="-25" yMin="-6" xMax="380" yMax="895">
      <component glyphName="J" x="0" y="0" flags="0x0"/>
      <component glyphName="circumflex" x="111" y="177" flags="0x4"/>
    </TTGlyph>
    <TTGlyph name="K" xMin="52" yMin="-2" xMax="519" yMax="702">
      <contour>
        <pt x="52" y="-2" on="0"/>
        <pt x="54" y="20" on="1"/>
        <pt x="124" y="680" on="1"/>
        <pt x="126" y="702" on="0"/>
        <pt x="164" y="702" on="1"/>
        <pt x="177" y="702" on="1"/>
        <pt x="216" y="702" on="0"/>
        <pt x="214" y="680" on="1"/>
        <pt x="182" y="374" on="1"/>
        <pt x="185" y="374" on="1"/>
        <pt x="420" y="688" on="1"/>
        <pt x="431" y="702" on="0"/>
        <pt x="468" y="702" on="1"/>
        <pt x="485" y="702" on="1"/>
        <pt x="502" y="702" on="0"/>
        <pt x="519" y="695" on="0"/>
        <pt x="519" y="689" on="1"/>
        <pt x="517" y="680" on="0"/>
        <pt x="508" y="669" on="1"/>
        <pt x="270" y="352" on="1"/>
        <pt x="469" y="28" on="1"/>
        <pt x="475" y="18" on="0"/>
        <pt x="474" y="12" on="1"/>
        <pt x="473" y="4" on="0"/>
        <pt x="455" y="-2" on="0"/>
        <pt x="433" y="-2" on="1"/>
        <pt x="422" y="-2" on="1"/>
        <pt x="402" y="-2" on="0"/>
        <pt x="380" y="2" on="0"/>
        <pt x="375" y="11" on="1"/>
        <pt x="180" y="333" on="1"/>
        <pt x="177" y="333" on="1"/>
        <pt x="144" y="20" on="1"/>
        <pt x="142" y="-2" on="0"/>
        <pt x="103" y="-2" on="1"/>
        <pt x="90" y="-2" on="1"/>
      </contour>
    </TTGlyph>
    <TTGlyph name="Kcommaaccent" xMin="54" yMin="-235" xMax="519" yMax="702">
      <component glyphName="K" x="0" y="0" flags="0x0"/>
      <component glyphName="uni0326" x="358" y="0" flags="0x0"/>
    </TTGlyph>
    <TTGlyph name="L" xMin="53" yMin="0" xMax="377" yMax="702">
      <contour>
        <pt x="65" y="0" on="0"/>
        <pt x="53" y="14" on="0"/>
        <pt x="55" y="30" on="1"/>
        <pt x="124" y="680" on="1"/>
        <pt x="126" y="702" on="0"/>
        <pt x="164" y="702" on="1"/>
        <pt x="178" y="702" on="1"/>
        <pt x="216" y="702" on="0"/>
        <pt x="214" y="680" on="1"/>
        <pt x="150" y="76" on="1"/>
        <pt x="358" y="76" on="1"/>
        <pt x="368" y="76" on="0"/>
        <pt x="377" y="62" on="0"/>
        <pt x="375" y="46" on="1"/>
        <pt x="373" y="30" on="1"/>
        <pt x="370" y="0" on="0"/>
        <pt x="350" y="0" on="1"/>
        <pt x="79" y="0" on="1"/>
      </contour>
    </TTGlyph>
    <TTGlyph name="Lacute" xMin="55" yMin="0" xMax="375" yMax="911">
      <component glyphName="L" x="0" y="0" flags="0x0"/>
      <component glyphName="acute" x="84" y="179" flags="0x4"/>
    </TTGlyph>
    <TTGlyph name="Lcaron" xMin="55" yMin="0" xMax="391" yMax="702">
      <component glyphName="L" x="0" y="0" flags="0x0"/>
      <component glyphName="caron.alt" x="210" y="0" flags="0x0"/>
    </TTGlyph>
    <TTGlyph name="Lcommaaccent" xMin="55" yMin="-235" xMax="375" yMax="702">
      <component glyphName="L" x="0" y="0" flags="0x0"/>
      <component glyphName="uni0326" x="339" y="0" flags="0x0"/>
    </TTGlyph>
    <TTGlyph name="Ldot" xMin="55" yMin="0" xMax="375" yMax="702">
      <component glyphName="L" x="0" y="0" flags="0x0"/>
      <component glyphName="periodcentered" x="181" y="0" flags="0x0"/>
    </TTGlyph>
    <TTGlyph name="Lslash" xMin="14" yMin="0" xMax="375" yMax="702">
      <contour>
        <pt x="366" y="76" on="0"/>
        <pt x="375" y="62" on="0"/>
        <pt x="373" y="46" on="1"/>
        <pt x="371" y="30" on="1"/>
        <pt x="368" y="0" on="0"/>
        <pt x="348" y="0" on="1"/>
        <pt x="77" y="0" on="1"/>
        <pt x="63" y="0" on="0"/>
        <pt x="51" y="14" on="0"/>
        <pt x="53" y="30" on="1"/>
        <pt x="86" y="339" on="1"/>
        <pt x="33" y="308" on="1"/>
        <pt x="25" y="304" on="0"/>
        <pt x="23" y="304" on="1"/>
        <pt x="19" y="304" on="0"/>
        <pt x="14" y="311" on="0"/>
        <pt x="14" y="318" on="1"/>
        <pt x="14" y="324" on="1"/>
        <pt x="14" y="343" on="0"/>
        <pt x="33" y="354" on="1"/>
        <pt x="91" y="389" on="1"/>
        <pt x="122" y="680" on="1"/>
        <pt x="124" y="702" on="0"/>
        <pt x="162" y="702" on="1"/>
        <pt x="176" y="702" on="1"/>
        <pt x="214" y="702" on="0"/>
        <pt x="212" y="680" on="1"/>
        <pt x="187" y="446" on="1"/>
        <pt x="260" y="489" on="1"/>
        <pt x="268" y="493" on="0"/>
        <pt x="270" y="493" on="1"/>
        <pt x="274" y="493" on="0"/>
        <pt x="279" y="486" on="0"/>
        <pt x="279" y="479" on="1"/>
        <pt x="279" y="473" on="1"/>
        <pt x="279" y="454" on="0"/>
        <pt x="260" y="443" on="1"/>
        <pt x="182" y="397" on="1"/>
        <pt x="148" y="76" on="1"/>
        <pt x="356" y="76" on="1"/>
      </contour>
    </TTGlyph>
    <TTGlyph name="M" xMin="45" yMin="-2" xMax="665" yMax="702">
      <contour>
        <pt x="310" y="239" on="0"/>
        <pt x="306" y="252" on="1"/>
        <pt x="213" y="482" on="1"/>
        <pt x="205" y="501" on="0"/>
        <pt x="190" y="551" on="1"/>
        <pt x="186" y="549" on="1"/>
        <pt x="187" y="518" on="0"/>
        <pt x="184" y="478" on="1"/>
        <pt x="136" y="20" on="1"/>
        <pt x="133" y="-2" on="0"/>
        <pt x="95" y="-2" on="1"/>
        <pt x="83" y="-2" on="1"/>
        <pt x="45" y="-2" on="0"/>
        <pt x="48" y="20" on="1"/>
        <pt x="117" y="680" on="1"/>
        <pt x="119" y="702" on="0"/>
        <pt x="157" y="702" on="1"/>
        <pt x="178" y="702" on="1"/>
        <pt x="208" y="702" on="0"/>
        <pt x="214" y="684" on="1"/>
        <pt x="342" y="371" on="1"/>
        <pt x="350" y="349" on="0"/>
        <pt x="352" y="323" on="1"/>
        <pt x="360" y="349" on="0"/>
        <pt x="374" y="371" on="1"/>
        <pt x="566" y="684" on="1"/>
        <pt x="578" y="702" on="0"/>
        <pt x="606" y="702" on="1"/>
        <pt x="627" y="702" on="1"/>
        <pt x="665" y="702" on="0"/>
        <pt x="663" y="680" on="1"/>
        <pt x="594" y="20" on="1"/>
        <pt x="591" y="-2" on="0"/>
        <pt x="553" y="-2" on="1"/>
        <pt x="541" y="-2" on="1"/>
        <pt x="503" y="-2" on="0"/>
        <pt x="506" y="20" on="1"/>
        <pt x="554" y="478" on="1"/>
        <pt x="556" y="500" on="0"/>
        <pt x="566" y="549" on="1"/>
        <pt x="562" y="551" on="1"/>
        <pt x="546" y="518" on="0"/>
        <pt x="525" y="482" on="1"/>
        <pt x="384" y="252" on="1"/>
        <pt x="377" y="239" on="0"/>
        <pt x="361" y="239" on="1"/>
        <pt x="327" y="239" on="1"/>
      </contour>
    </TTGlyph>
    <TTGlyph name="N" xMin="45" yMin="-2" xMax="563" yMax="702">
      <contour>
        <pt x="45" y="-2" on="0"/>
        <pt x="48" y="20" on="1"/>
        <pt x="117" y="680" on="1"/>
        <pt x="119" y="702" on="0"/>
        <pt x="157" y="702" on="1"/>
        <pt x="181" y="702" on="1"/>
        <pt x="196" y="702" on="0"/>
        <pt x="214" y="693" on="0"/>
        <pt x="218" y="682" on="1"/>
        <pt x="401" y="225" on="1"/>
        <pt x="414" y="190" on="0"/>
        <pt x="421" y="162" on="1"/>
        <pt x="426" y="164" on="1"/>
        <pt x="424" y="176" on="0"/>
        <pt x="424" y="200" on="1"/>
        <pt x="424" y="220" on="0"/>
        <pt x="425" y="230" on="1"/>
        <pt x="473" y="680" on="1"/>
        <pt x="475" y="702" on="0"/>
        <pt x="513" y="702" on="1"/>
        <pt x="525" y="702" on="1"/>
        <pt x="563" y="702" on="0"/>
        <pt x="561" y="680" on="1"/>
        <pt x="492" y="20" on="1"/>
        <pt x="489" y="-2" on="0"/>
        <pt x="451" y="-2" on="1"/>
        <pt x="433" y="-2" on="1"/>
        <pt x="405" y="-2" on="0"/>
        <pt x="399" y="13" on="1"/>
        <pt x="208" y="485" on="1"/>
        <pt x="197" y="513" on="0"/>
        <pt x="189" y="548" on="1"/>
        <pt x="184" y="546" on="1"/>
        <pt x="186" y="534" on="0"/>
        <pt x="186" y="510" on="1"/>
        <pt x="186" y="490" on="0"/>
        <pt x="185" y="480" on="1"/>
        <pt x="136" y="20" on="1"/>
        <pt x="134" y="-2" on="0"/>
        <pt x="95" y="-2" on="1"/>
        <pt x="83" y="-2" on="1"/>
      </contour>
    </TTGlyph>
    <TTGlyph name="Nacute" xMin="48" yMin="-2" xMax="561" yMax="909">
      <component glyphName="N" x="0" y="0" flags="0x0"/>
      <component glyphName="acute" x="248" y="177" flags="0x4"/>
    </TTGlyph>
    <TTGlyph name="Nacute.loclPLK" xMin="48" yMin="-2" xMax="561" yMax="909">
      <component glyphName="N" x="0" y="0" flags="0x0"/>
      <component glyphName="acute.loclPLK" x="245" y="177" flags="0x4"/>
    </TTGlyph>
    <TTGlyph name="Ncaron" xMin="48" yMin="-2" xMax="561" yMax="902">
      <component glyphName="N" x="0" y="0" flags="0x0"/>
      <component glyphName="caron" x="185" y="177" flags="0x4"/>
    </TTGlyph>
    <TTGlyph name="Ncommaaccent" xMin="48" yMin="-235" xMax="561" yMax="702">
      <component glyphName="N" x="0" y="0" flags="0x0"/>
      <component glyphName="uni0326" x="391" y="0" flags="0x0"/>
    </TTGlyph>
    <TTGlyph name="Ntilde" xMin="48" yMin="-2" xMax="561" yMax="868">
      <component glyphName="N" x="0" y="0" flags="0x0"/>
      <component glyphName="tilde" x="187" y="177" flags="0x4"/>
    </TTGlyph>
    <TTGlyph name="O" xMin="55" yMin="-6" xMax="564" yMax="706">
      <contour>
        <pt x="171" y="-6" on="0"/>
        <pt x="55" y="136" on="0"/>
        <pt x="55" y="275" on="1"/>
        <pt x="55" y="316" on="0"/>
        <pt x="59" y="352" on="1"/>
        <pt x="97" y="706" on="0"/>
        <pt x="346" y="706" on="1"/>
        <pt x="448" y="706" on="0"/>
        <pt x="564" y="568" on="0"/>
        <pt x="564" y="430" on="1"/>
        <pt x="564" y="389" on="0"/>
        <pt x="560" y="352" on="1"/>
        <pt x="541" y="172" on="0"/>
        <pt x="395" y="-6" on="0"/>
        <pt x="272" y="-6" on="1"/>
      </contour>
      <contour>
        <pt x="439" y="70" on="0"/>
        <pt x="468" y="352" on="1"/>
        <pt x="473" y="400" on="0"/>
        <pt x="473" y="432" on="1"/>
        <pt x="473" y="630" on="0"/>
        <pt x="339" y="630" on="1"/>
        <pt x="260" y="630" on="0"/>
        <pt x="167" y="495" on="0"/>
        <pt x="152" y="352" on="1"/>
        <pt x="147" y="302" on="0"/>
        <pt x="147" y="271" on="1"/>
        <pt x="147" y="70" on="0"/>
        <pt x="281" y="70" on="1"/>
      </contour>
    </TTGlyph>
    <TTGlyph name="OE" xMin="55" yMin="-6" xMax="831" yMax="706">
      <contour>
        <pt x="831" y="700" on="0"/>
        <pt x="828" y="670" on="1"/>
        <pt x="826" y="654" on="1"/>
        <pt x="823" y="624" on="0"/>
        <pt x="804" y="624" on="1"/>
        <pt x="579" y="624" on="1"/>
        <pt x="555" y="396" on="1"/>
        <pt x="757" y="396" on="1"/>
        <pt x="776" y="396" on="0"/>
        <pt x="773" y="366" on="1"/>
        <pt x="771" y="350" on="1"/>
        <pt x="768" y="320" on="0"/>
        <pt x="749" y="320" on="1"/>
        <pt x="547" y="320" on="1"/>
        <pt x="521" y="76" on="1"/>
        <pt x="746" y="76" on="1"/>
        <pt x="756" y="76" on="0"/>
        <pt x="764" y="62" on="0"/>
        <pt x="762" y="46" on="1"/>
        <pt x="760" y="30" on="1"/>
        <pt x="758" y="14" on="0"/>
        <pt x="748" y="0" on="0"/>
        <pt x="738" y="0" on="1"/>
        <pt x="450" y="0" on="1"/>
        <pt x="436" y="0" on="0"/>
        <pt x="424" y="14" on="0"/>
        <pt x="426" y="30" on="1"/>
        <pt x="429" y="61" on="1"/>
        <pt x="364" y="-6" on="0"/>
        <pt x="272" y="-6" on="1"/>
        <pt x="171" y="-6" on="0"/>
        <pt x="55" y="136" on="0"/>
        <pt x="55" y="275" on="1"/>
        <pt x="55" y="316" on="0"/>
        <pt x="59" y="352" on="1"/>
        <pt x="97" y="706" on="0"/>
        <pt x="346" y="706" on="1"/>
        <pt x="439" y="706" on="0"/>
        <pt x="491" y="637" on="1"/>
        <pt x="494" y="670" on="1"/>
        <pt x="496" y="686" on="0"/>
        <pt x="510" y="700" on="0"/>
        <pt x="524" y="700" on="1"/>
        <pt x="812" y="700" on="1"/>
      </contour>
      <contour>
        <pt x="473" y="400" on="0"/>
        <pt x="473" y="432" on="1"/>
        <pt x="473" y="630" on="0"/>
        <pt x="339" y="630" on="1"/>
        <pt x="260" y="630" on="0"/>
        <pt x="167" y="495" on="0"/>
        <pt x="152" y="352" on="1"/>
        <pt x="147" y="302" on="0"/>
        <pt x="147" y="271" on="1"/>
        <pt x="147" y="70" on="0"/>
        <pt x="281" y="70" on="1"/>
        <pt x="439" y="70" on="0"/>
        <pt x="468" y="352" on="1"/>
      </contour>
    </TTGlyph>
    <TTGlyph name="Oacute" xMin="55" yMin="-6" xMax="564" yMax="909">
      <component glyphName="O" x="0" y="0" flags="0x0"/>
      <component glyphName="acute" x="258" y="177" flags="0x4"/>
    </TTGlyph>
    <TTGlyph name="Oacute.loclPLK" xMin="55" yMin="-6" xMax="564" yMax="909">
      <component glyphName="O" x="0" y="0" flags="0x0"/>
      <component glyphName="acute.loclPLK" x="255" y="177" flags="0x4"/>
    </TTGlyph>
    <TTGlyph name="Obreve" xMin="55" yMin="-6" xMax="564" yMax="892">
      <component glyphName="O" x="0" y="0" flags="0x0"/>
      <component glyphName="breve" x="194" y="177" flags="0x4"/>
    </TTGlyph>
    <TTGlyph name="Ocircumflex" xMin="55" yMin="-6" xMax="564" yMax="895">
      <component glyphName="O" x="0" y="0" flags="0x0"/>
      <component glyphName="circumflex" x="193" y="177" flags="0x4"/>
    </TTGlyph>
    <TTGlyph name="Odieresis" xMin="55" yMin="-6" xMax="564" yMax="879">
      <component glyphName="O" x="0" y="0" flags="0x0"/>
      <component glyphName="dieresis" x="191" y="177" flags="0x4"/>
    </TTGlyph>
    <TTGlyph name="Ograve" xMin="55" yMin="-6" xMax="564" yMax="909">
      <component glyphName="O" x="0" y="0" flags="0x0"/>
      <component glyphName="grave" x="186" y="177" flags="0x4"/>
    </TTGlyph>
    <TTGlyph name="Ohorn" xMin="55" yMin="-6" xMax="610" yMax="788">
      <contour>
        <pt x="610" y="674" on="0"/>
        <pt x="563" y="625" on="0"/>
        <pt x="516" y="624" on="1"/>
        <pt x="564" y="554" on="0"/>
        <pt x="564" y="430" on="1"/>
        <pt x="564" y="389" on="0"/>
        <pt x="560" y="352" on="1"/>
        <pt x="541" y="172" on="0"/>
        <pt x="395" y="-6" on="0"/>
        <pt x="272" y="-6" on="1"/>
        <pt x="171" y="-6" on="0"/>
        <pt x="55" y="136" on="0"/>
        <pt x="55" y="275" on="1"/>
        <pt x="55" y="316" on="0"/>
        <pt x="59" y="352" on="1"/>
        <pt x="78" y="531" on="0"/>
        <pt x="224" y="706" on="0"/>
        <pt x="345" y="706" on="1"/>
        <pt x="384" y="706" on="0"/>
        <pt x="444" y="686" on="0"/>
        <pt x="472" y="669" on="1"/>
        <pt x="495" y="655" on="0"/>
        <pt x="512" y="655" on="1"/>
        <pt x="529" y="655" on="0"/>
        <pt x="549" y="674" on="0"/>
        <pt x="549" y="690" on="1"/>
        <pt x="549" y="703" on="0"/>
        <pt x="539" y="724" on="0"/>
        <pt x="523" y="748" on="0"/>
        <pt x="522" y="752" on="1"/>
        <pt x="522" y="762" on="0"/>
        <pt x="531" y="768" on="1"/>
        <pt x="555" y="784" on="1"/>
        <pt x="560" y="788" on="0"/>
        <pt x="567" y="788" on="1"/>
        <pt x="583" y="788" on="0"/>
        <pt x="610" y="738" on="0"/>
        <pt x="610" y="714" on="1"/>
      </contour>
      <contour>
        <pt x="473" y="400" on="0"/>
        <pt x="473" y="432" on="1"/>
        <pt x="473" y="630" on="0"/>
        <pt x="339" y="630" on="1"/>
        <pt x="260" y="630" on="0"/>
        <pt x="167" y="495" on="0"/>
        <pt x="152" y="352" on="1"/>
        <pt x="147" y="302" on="0"/>
        <pt x="147" y="271" on="1"/>
        <pt x="147" y="70" on="0"/>
        <pt x="281" y="70" on="1"/>
        <pt x="439" y="70" on="0"/>
        <pt x="468" y="352" on="1"/>
      </contour>
    </TTGlyph>
    <TTGlyph name="Ohungarumlaut" xMin="55" yMin="-6" xMax="564" yMax="909">
      <component glyphName="O" x="0" y="0" flags="0x0"/>
      <component glyphName="hungarumlaut" x="228" y="177" flags="0x4"/>
    </TTGlyph>
    <TTGlyph name="Omacron" xMin="55" yMin="-6" xMax="564" yMax="859">
      <component glyphName="O" x="0" y="0" flags="0x0"/>
      <component glyphName="macron" x="193" y="177" flags="0x4"/>
    </TTGlyph>
    <TTGlyph name="Oslash" xMin="55" yMin="-18" xMax="564" yMax="716">
      <contour>
        <pt x="564" y="566" on="0"/>
        <pt x="564" y="430" on="1"/>
        <pt x="564" y="389" on="0"/>
        <pt x="560" y="352" on="1"/>
        <pt x="541" y="172" on="0"/>
        <pt x="395" y="-6" on="0"/>
        <pt x="272" y="-6" on="1"/>
        <pt x="190" y="-6" on="0"/>
        <pt x="137" y="40" on="1"/>
        <pt x="109" y="-6" on="1"/>
        <pt x="102" y="-18" on="0"/>
        <pt x="94" y="-18" on="1"/>
        <pt x="87" y="-18" on="0"/>
        <pt x="71" y="-6" on="0"/>
        <pt x="71" y="1" on="1"/>
        <pt x="71" y="9" on="0"/>
        <pt x="76" y="15" on="1"/>
        <pt x="109" y="69" on="1"/>
        <pt x="55" y="142" on="0"/>
        <pt x="55" y="275" on="1"/>
        <pt x="55" y="316" on="0"/>
        <pt x="59" y="352" on="1"/>
        <pt x="97" y="706" on="0"/>
        <pt x="346" y="706" on="1"/>
        <pt x="424" y="706" on="0"/>
        <pt x="477" y="665" on="1"/>
        <pt x="501" y="705" on="1"/>
        <pt x="507" y="716" on="0"/>
        <pt x="516" y="716" on="1"/>
        <pt x="524" y="716" on="0"/>
        <pt x="539" y="705" on="0"/>
        <pt x="539" y="697" on="1"/>
        <pt x="539" y="692" on="0"/>
        <pt x="535" y="685" on="1"/>
        <pt x="506" y="637" on="1"/>
      </contour>
      <contour>
        <pt x="147" y="302" on="0"/>
        <pt x="147" y="270" on="1"/>
        <pt x="147" y="204" on="0"/>
        <pt x="163" y="156" on="1"/>
        <pt x="431" y="592" on="1"/>
        <pt x="399" y="630" on="0"/>
        <pt x="339" y="630" on="1"/>
        <pt x="260" y="630" on="0"/>
        <pt x="167" y="495" on="0"/>
        <pt x="152" y="352" on="1"/>
      </contour>
      <contour>
        <pt x="472" y="391" on="0"/>
        <pt x="472" y="432" on="1"/>
        <pt x="472" y="508" on="0"/>
        <pt x="454" y="553" on="1"/>
        <pt x="184" y="116" on="1"/>
        <pt x="217" y="70" on="0"/>
        <pt x="281" y="70" on="1"/>
        <pt x="439" y="70" on="0"/>
        <pt x="468" y="352" on="1"/>
      </contour>
    </TTGlyph>
    <TTGlyph name="Oslashacute" xMin="55" yMin="-18" xMax="564" yMax="909">
      <component glyphName="Oslash" x="0" y="0" flags="0x0"/>
      <component glyphName="acute" x="254" y="177" flags="0x4"/>
    </TTGlyph>
    <TTGlyph name="Otilde" xMin="55" yMin="-6" xMax="564" yMax="868">
      <component glyphName="O" x="0" y="0" flags="0x0"/>
      <component glyphName="tilde" x="197" y="177" flags="0x4"/>
    </TTGlyph>
    <TTGlyph name="P" xMin="52" yMin="-2" xMax="481" yMax="700">
      <contour>
        <pt x="52" y="-2" on="0"/>
        <pt x="54" y="20" on="1"/>
        <pt x="123" y="670" on="1"/>
        <pt x="125" y="686" on="0"/>
        <pt x="139" y="700" on="0"/>
        <pt x="153" y="700" on="1"/>
        <pt x="318" y="700" on="1"/>
        <pt x="383" y="700" on="0"/>
        <pt x="481" y="631" on="0"/>
        <pt x="481" y="539" on="1"/>
        <pt x="481" y="528" on="0"/>
        <pt x="479" y="504" on="1"/>
        <pt x="470" y="421" on="0"/>
        <pt x="398" y="329" on="0"/>
        <pt x="316" y="298" on="0"/>
        <pt x="284" y="298" on="1"/>
        <pt x="174" y="298" on="1"/>
        <pt x="144" y="20" on="1"/>
        <pt x="142" y="-2" on="0"/>
        <pt x="104" y="-2" on="1"/>
        <pt x="90" y="-2" on="1"/>
      </contour>
      <contour>
        <pt x="287" y="374" on="1"/>
        <pt x="320" y="374" on="0"/>
        <pt x="380" y="432" on="0"/>
        <pt x="387" y="504" on="1"/>
        <pt x="389" y="522" on="0"/>
        <pt x="389" y="530" on="1"/>
        <pt x="389" y="582" on="0"/>
        <pt x="340" y="624" on="0"/>
        <pt x="306" y="624" on="1"/>
        <pt x="208" y="624" on="1"/>
        <pt x="182" y="374" on="1"/>
      </contour>
    </TTGlyph>
    <TTGlyph name="Q" xMin="53" yMin="-169" xMax="563" yMax="706">
      <contour>
        <pt x="486" y="-169" on="0"/>
        <pt x="219" y="-20" on="0"/>
        <pt x="166" y="13" on="1"/>
        <pt x="109" y="48" on="0"/>
        <pt x="53" y="170" on="0"/>
        <pt x="53" y="265" on="1"/>
        <pt x="53" y="298" on="0"/>
        <pt x="58" y="350" on="1"/>
        <pt x="77" y="533" on="0"/>
        <pt x="215" y="706" on="0"/>
        <pt x="345" y="706" on="1"/>
        <pt x="450" y="706" on="0"/>
        <pt x="563" y="568" on="0"/>
        <pt x="563" y="430" on="1"/>
        <pt x="563" y="389" on="0"/>
        <pt x="559" y="350" on="1"/>
        <pt x="543" y="204" on="0"/>
        <pt x="435" y="32" on="0"/>
        <pt x="347" y="6" on="1"/>
        <pt x="347" y="3" on="1"/>
        <pt x="542" y="-86" on="1"/>
        <pt x="553" y="-92" on="0"/>
        <pt x="552" y="-102" on="1"/>
        <pt x="549" y="-116" on="0"/>
        <pt x="511" y="-169" on="0"/>
        <pt x="496" y="-169" on="1"/>
      </contour>
      <contour>
        <pt x="356" y="69" on="0"/>
        <pt x="451" y="209" on="0"/>
        <pt x="467" y="350" on="1"/>
        <pt x="471" y="389" on="0"/>
        <pt x="471" y="429" on="1"/>
        <pt x="471" y="630" on="0"/>
        <pt x="338" y="630" on="1"/>
        <pt x="180" y="630" on="0"/>
        <pt x="151" y="350" on="1"/>
        <pt x="146" y="300" on="0"/>
        <pt x="146" y="267" on="1"/>
        <pt x="146" y="69" on="0"/>
        <pt x="279" y="69" on="1"/>
      </contour>
    </TTGlyph>
    <TTGlyph name="R" xMin="48" yMin="-2" xMax="475" yMax="700">
      <contour>
        <pt x="48" y="-2" on="0"/>
        <pt x="50" y="20" on="1"/>
        <pt x="119" y="670" on="1"/>
        <pt x="121" y="686" on="0"/>
        <pt x="135" y="700" on="0"/>
        <pt x="149" y="700" on="1"/>
        <pt x="297" y="700" on="1"/>
        <pt x="387" y="700" on="0"/>
        <pt x="475" y="632" on="0"/>
        <pt x="475" y="557" on="1"/>
        <pt x="475" y="547" on="0"/>
        <pt x="473" y="523" on="1"/>
        <pt x="467" y="461" on="0"/>
        <pt x="409" y="376" on="0"/>
        <pt x="364" y="354" on="1"/>
        <pt x="363" y="350" on="1"/>
        <pt x="382" y="340" on="0"/>
        <pt x="406" y="282" on="0"/>
        <pt x="419" y="225" on="1"/>
        <pt x="461" y="28" on="1"/>
        <pt x="463" y="22" on="0"/>
        <pt x="463" y="14" on="1"/>
        <pt x="461" y="-2" on="0"/>
        <pt x="422" y="-2" on="1"/>
        <pt x="405" y="-2" on="1"/>
        <pt x="391" y="-2" on="0"/>
        <pt x="371" y="7" on="0"/>
        <pt x="370" y="14" on="1"/>
        <pt x="330" y="210" on="1"/>
        <pt x="318" y="267" on="0"/>
        <pt x="278" y="308" on="0"/>
        <pt x="234" y="308" on="1"/>
        <pt x="171" y="308" on="1"/>
        <pt x="140" y="20" on="1"/>
        <pt x="138" y="-2" on="0"/>
        <pt x="100" y="-2" on="1"/>
        <pt x="86" y="-2" on="1"/>
      </contour>
      <contour>
        <pt x="279" y="384" on="1"/>
        <pt x="315" y="384" on="0"/>
        <pt x="374" y="457" on="0"/>
        <pt x="379" y="507" on="1"/>
        <pt x="380" y="515" on="0"/>
        <pt x="380" y="530" on="1"/>
        <pt x="380" y="577" on="0"/>
        <pt x="337" y="624" on="0"/>
        <pt x="298" y="624" on="1"/>
        <pt x="203" y="624" on="1"/>
        <pt x="178" y="384" on="1"/>
      </contour>
    </TTGlyph>
    <TTGlyph name="Racute" xMin="50" yMin="-2" xMax="475" yMax="909">
      <component glyphName="R" x="0" y="0" flags="0x0"/>
      <component glyphName="acute" x="210" y="177" flags="0x4"/>
    </TTGlyph>
    <TTGlyph name="Rcaron" xMin="50" yMin="-2" xMax="475" yMax="902">
      <component glyphName="R" x="0" y="0" flags="0x0"/>
      <component glyphName="caron" x="147" y="177" flags="0x4"/>
    </TTGlyph>
    <TTGlyph name="Rcommaaccent" xMin="50" yMin="-235" xMax="475" yMax="700">
      <component glyphName="R" x="0" y="0" flags="0x0"/>
      <component glyphName="uni0326" x="354" y="0" flags="0x0"/>
    </TTGlyph>
    <TTGlyph name="S" xMin="10" yMin="-5" xMax="423" yMax="711">
      <contour>
        <pt x="130" y="-5" on="0"/>
        <pt x="50" y="13" on="0"/>
        <pt x="18" y="39" on="1"/>
        <pt x="14" y="43" on="0"/>
        <pt x="10" y="51" on="0"/>
        <pt x="10" y="61" on="1"/>
        <pt x="10" y="78" on="0"/>
        <pt x="23" y="115" on="0"/>
        <pt x="33" y="115" on="1"/>
        <pt x="38" y="115" on="0"/>
        <pt x="45" y="110" on="1"/>
        <pt x="93" y="73" on="0"/>
        <pt x="176" y="73" on="1"/>
        <pt x="234" y="73" on="0"/>
        <pt x="306" y="130" on="0"/>
        <pt x="306" y="188" on="1"/>
        <pt x="306" y="230" on="0"/>
        <pt x="260" y="287" on="0"/>
        <pt x="217" y="312" on="1"/>
        <pt x="148" y="353" on="0"/>
        <pt x="67" y="443" on="0"/>
        <pt x="67" y="509" on="1"/>
        <pt x="67" y="569" on="0"/>
        <pt x="117" y="660" on="0"/>
        <pt x="208" y="711" on="0"/>
        <pt x="269" y="711" on="1"/>
        <pt x="310" y="711" on="0"/>
        <pt x="394" y="695" on="0"/>
        <pt x="417" y="681" on="1"/>
        <pt x="423" y="677" on="0"/>
        <pt x="423" y="670" on="1"/>
        <pt x="423" y="658" on="0"/>
        <pt x="402" y="607" on="0"/>
        <pt x="394" y="607" on="1"/>
        <pt x="391" y="607" on="0"/>
        <pt x="382" y="611" on="0"/>
        <pt x="380" y="612" on="1"/>
        <pt x="331" y="634" on="0"/>
        <pt x="282" y="634" on="1"/>
        <pt x="231" y="634" on="0"/>
        <pt x="154" y="584" on="0"/>
        <pt x="154" y="525" on="1"/>
        <pt x="154" y="484" on="0"/>
        <pt x="206" y="423" on="0"/>
        <pt x="257" y="394" on="1"/>
        <pt x="321" y="358" on="0"/>
        <pt x="395" y="272" on="0"/>
        <pt x="395" y="207" on="1"/>
        <pt x="395" y="108" on="0"/>
        <pt x="284" y="-5" on="0"/>
        <pt x="184" y="-5" on="1"/>
      </contour>
    </TTGlyph>
    <TTGlyph name="Sacute" xMin="10" yMin="-5" xMax="423" yMax="909">
      <component glyphName="S" x="0" y="0" flags="0x0"/>
      <component glyphName="acute" x="189" y="177" flags="0x4"/>
    </TTGlyph>
    <TTGlyph name="Sacute.loclPLK" xMin="10" yMin="-5" xMax="423" yMax="909">
      <component glyphName="S" x="0" y="0" flags="0x0"/>
      <component glyphName="acute.loclPLK" x="186" y="177" flags="0x4"/>
    </TTGlyph>
    <TTGlyph name="Scaron" xMin="10" yMin="-5" xMax="423" yMax="902">
      <component glyphName="S" x="0" y="0" flags="0x0"/>
      <component glyphName="caron" x="126" y="177" flags="0x4"/>
    </TTGlyph>
    <TTGlyph name="Scedilla" xMin="10" yMin="-210" xMax="423" yMax="711">
      <contour>
        <pt x="231" y="634" on="0"/>
        <pt x="154" y="584" on="0"/>
        <pt x="154" y="525" on="1"/>
        <pt x="154" y="484" on="0"/>
        <pt x="206" y="423" on="0"/>
        <pt x="257" y="394" on="1"/>
        <pt x="321" y="358" on="0"/>
        <pt x="395" y="272" on="0"/>
        <pt x="395" y="207" on="1"/>
        <pt x="395" y="116" on="0"/>
        <pt x="300" y="4" on="0"/>
        <pt x="213" y="-4" on="1"/>
        <pt x="197" y="-60" on="1"/>
        <pt x="224" y="-60" on="0"/>
        <pt x="271" y="-89" on="0"/>
        <pt x="271" y="-127" on="1"/>
        <pt x="271" y="-210" on="0"/>
        <pt x="175" y="-210" on="1"/>
        <pt x="143" y="-210" on="0"/>
        <pt x="81" y="-186" on="0"/>
        <pt x="81" y="-167" on="1"/>
        <pt x="81" y="-158" on="0"/>
        <pt x="93" y="-141" on="0"/>
        <pt x="100" y="-141" on="1"/>
        <pt x="107" y="-141" on="0"/>
        <pt x="123" y="-148" on="1"/>
        <pt x="149" y="-161" on="0"/>
        <pt x="169" y="-161" on="1"/>
        <pt x="183" y="-161" on="0"/>
        <pt x="205" y="-146" on="0"/>
        <pt x="205" y="-132" on="1"/>
        <pt x="205" y="-117" on="0"/>
        <pt x="188" y="-103" on="0"/>
        <pt x="172" y="-98" on="1"/>
        <pt x="161" y="-94" on="0"/>
        <pt x="150" y="-86" on="0"/>
        <pt x="150" y="-79" on="1"/>
        <pt x="150" y="-72" on="0"/>
        <pt x="159" y="-40" on="0"/>
        <pt x="171" y="-5" on="1"/>
        <pt x="122" y="-4" on="0"/>
        <pt x="48" y="15" on="0"/>
        <pt x="18" y="39" on="1"/>
        <pt x="14" y="43" on="0"/>
        <pt x="10" y="51" on="0"/>
        <pt x="10" y="61" on="1"/>
        <pt x="10" y="78" on="0"/>
        <pt x="23" y="115" on="0"/>
        <pt x="33" y="115" on="1"/>
        <pt x="38" y="115" on="0"/>
        <pt x="45" y="110" on="1"/>
        <pt x="93" y="73" on="0"/>
        <pt x="176" y="73" on="1"/>
        <pt x="234" y="73" on="0"/>
        <pt x="306" y="130" on="0"/>
        <pt x="306" y="188" on="1"/>
        <pt x="306" y="230" on="0"/>
        <pt x="260" y="287" on="0"/>
        <pt x="217" y="312" on="1"/>
        <pt x="148" y="353" on="0"/>
        <pt x="67" y="443" on="0"/>
        <pt x="67" y="509" on="1"/>
        <pt x="67" y="569" on="0"/>
        <pt x="117" y="660" on="0"/>
        <pt x="208" y="711" on="0"/>
        <pt x="269" y="711" on="1"/>
        <pt x="310" y="711" on="0"/>
        <pt x="394" y="695" on="0"/>
        <pt x="417" y="681" on="1"/>
        <pt x="423" y="677" on="0"/>
        <pt x="423" y="670" on="1"/>
        <pt x="423" y="658" on="0"/>
        <pt x="402" y="607" on="0"/>
        <pt x="394" y="607" on="1"/>
        <pt x="391" y="607" on="0"/>
        <pt x="382" y="611" on="0"/>
        <pt x="380" y="612" on="1"/>
        <pt x="331" y="634" on="0"/>
        <pt x="282" y="634" on="1"/>
      </contour>
    </TTGlyph>
    <TTGlyph name="Scircumflex" xMin="10" yMin="-5" xMax="423" yMax="895">
      <component glyphName="S" x="0" y="0" flags="0x0"/>
      <component glyphName="circumflex" x="124" y="177" flags="0x4"/>
    </TTGlyph>
    <TTGlyph name="Scommaaccent" xMin="10" yMin="-235" xMax="423" yMax="711">
      <component glyphName="S" x="0" y="0" flags="0x0"/>
      <component glyphName="uni0326" x="322" y="0" flags="0x0"/>
    </TTGlyph>
    <TTGlyph name="T" xMin="57" yMin="-2" xMax="479" yMax="700">
      <contour>
        <pt x="154" y="-2" on="0"/>
        <pt x="156" y="20" on="1"/>
        <pt x="220" y="624" on="1"/>
        <pt x="76" y="624" on="1"/>
        <pt x="57" y="624" on="0"/>
        <pt x="60" y="654" on="1"/>
        <pt x="62" y="670" on="1"/>
        <pt x="65" y="700" on="0"/>
        <pt x="84" y="700" on="1"/>
        <pt x="460" y="700" on="1"/>
        <pt x="470" y="700" on="0"/>
        <pt x="479" y="686" on="0"/>
        <pt x="477" y="670" on="1"/>
        <pt x="475" y="654" on="1"/>
        <pt x="472" y="624" on="0"/>
        <pt x="452" y="624" on="1"/>
        <pt x="310" y="624" on="1"/>
        <pt x="246" y="20" on="1"/>
        <pt x="244" y="-2" on="0"/>
        <pt x="206" y="-2" on="1"/>
        <pt x="192" y="-2" on="1"/>
      </contour>
    </TTGlyph>
    <TTGlyph name="Tbar" xMin="26" yMin="-2" xMax="479" yMax="700">
      <contour>
        <pt x="470" y="700" on="0"/>
        <pt x="479" y="686" on="0"/>
        <pt x="477" y="670" on="1"/>
        <pt x="475" y="654" on="1"/>
        <pt x="472" y="624" on="0"/>
        <pt x="452" y="624" on="1"/>
        <pt x="310" y="624" on="1"/>
        <pt x="285" y="389" on="1"/>
        <pt x="417" y="389" on="1"/>
        <pt x="427" y="389" on="0"/>
        <pt x="434" y="376" on="0"/>
        <pt x="434" y="363" on="1"/>
        <pt x="434" y="318" on="0"/>
        <pt x="409" y="318" on="1"/>
        <pt x="278" y="318" on="1"/>
        <pt x="246" y="20" on="1"/>
        <pt x="244" y="-2" on="0"/>
        <pt x="206" y="-2" on="1"/>
        <pt x="192" y="-2" on="1"/>
        <pt x="154" y="-2" on="0"/>
        <pt x="156" y="20" on="1"/>
        <pt x="188" y="318" on="1"/>
        <pt x="43" y="318" on="1"/>
        <pt x="33" y="318" on="0"/>
        <pt x="26" y="332" on="0"/>
        <pt x="26" y="345" on="1"/>
        <pt x="26" y="389" on="0"/>
        <pt x="51" y="389" on="1"/>
        <pt x="195" y="389" on="1"/>
        <pt x="220" y="624" on="1"/>
        <pt x="76" y="624" on="1"/>
        <pt x="57" y="624" on="0"/>
        <pt x="60" y="654" on="1"/>
        <pt x="62" y="670" on="1"/>
        <pt x="65" y="700" on="0"/>
        <pt x="84" y="700" on="1"/>
        <pt x="460" y="700" on="1"/>
      </contour>
    </TTGlyph>
    <TTGlyph name="Tcaron" xMin="60" yMin="-2" xMax="477" yMax="902">
      <component glyphName="T" x="0" y="0" flags="0x0"/>
      <component glyphName="caron" x="120" y="177" flags="0x4"/>
    </TTGlyph>
    <TTGlyph name="Thorn" xMin="45" yMin="-2" xMax="462" yMax="702">
      <contour>
        <pt x="45" y="-2" on="0"/>
        <pt x="48" y="20" on="1"/>
        <pt x="117" y="680" on="1"/>
        <pt x="119" y="702" on="0"/>
        <pt x="157" y="702" on="1"/>
        <pt x="171" y="702" on="1"/>
        <pt x="209" y="702" on="0"/>
        <pt x="207" y="680" on="1"/>
        <pt x="196" y="579" on="1"/>
        <pt x="298" y="579" on="1"/>
        <pt x="363" y="579" on="0"/>
        <pt x="462" y="510" on="0"/>
        <pt x="462" y="418" on="1"/>
        <pt x="462" y="407" on="0"/>
        <pt x="460" y="383" on="1"/>
        <pt x="451" y="300" on="0"/>
        <pt x="378" y="208" on="0"/>
        <pt x="296" y="177" on="0"/>
        <pt x="264" y="177" on="1"/>
        <pt x="154" y="177" on="1"/>
        <pt x="138" y="20" on="1"/>
        <pt x="135" y="-2" on="0"/>
        <pt x="97" y="-2" on="1"/>
        <pt x="83" y="-2" on="1"/>
      </contour>
      <contour>
        <pt x="267" y="253" on="1"/>
        <pt x="299" y="253" on="0"/>
        <pt x="359" y="311" on="0"/>
        <pt x="367" y="383" on="1"/>
        <pt x="368" y="392" on="0"/>
        <pt x="368" y="407" on="1"/>
        <pt x="368" y="461" on="0"/>
        <pt x="320" y="503" on="0"/>
        <pt x="285" y="503" on="1"/>
        <pt x="188" y="503" on="1"/>
        <pt x="162" y="253" on="1"/>
      </contour>
    </TTGlyph>
    <TTGlyph name="U" xMin="60" yMin="-6" xMax="561" yMax="702">
      <contour>
        <pt x="165" y="-6" on="0"/>
        <pt x="60" y="85" on="0"/>
        <pt x="60" y="167" on="1"/>
        <pt x="60" y="185" on="0"/>
        <pt x="61" y="195" on="1"/>
        <pt x="112" y="680" on="1"/>
        <pt x="114" y="702" on="0"/>
        <pt x="152" y="702" on="1"/>
        <pt x="166" y="702" on="1"/>
        <pt x="204" y="702" on="0"/>
        <pt x="202" y="680" on="1"/>
        <pt x="151" y="192" on="1"/>
        <pt x="150" y="187" on="0"/>
        <pt x="150" y="177" on="1"/>
        <pt x="150" y="129" on="0"/>
        <pt x="217" y="70" on="0"/>
        <pt x="272" y="70" on="1"/>
        <pt x="330" y="70" on="0"/>
        <pt x="412" y="139" on="0"/>
        <pt x="418" y="192" on="1"/>
        <pt x="469" y="680" on="1"/>
        <pt x="471" y="702" on="0"/>
        <pt x="509" y="702" on="1"/>
        <pt x="523" y="702" on="1"/>
        <pt x="561" y="702" on="0"/>
        <pt x="559" y="680" on="1"/>
        <pt x="508" y="195" on="1"/>
        <pt x="498" y="100" on="0"/>
        <pt x="371" y="-6" on="0"/>
        <pt x="264" y="-6" on="1"/>
      </contour>
    </TTGlyph>
    <TTGlyph name="Uacute" xMin="60" yMin="-6" xMax="559" yMax="909">
      <component glyphName="U" x="0" y="0" flags="0x0"/>
      <component glyphName="acute" x="249" y="177" flags="0x4"/>
    </TTGlyph>
    <TTGlyph name="Ubreve" xMin="60" yMin="-6" xMax="559" yMax="892">
      <component glyphName="U" x="0" y="0" flags="0x0"/>
      <component glyphName="breve" x="185" y="177" flags="0x4"/>
    </TTGlyph>
    <TTGlyph name="Ucircumflex" xMin="60" yMin="-6" xMax="559" yMax="895">
      <component glyphName="U" x="0" y="0" flags="0x0"/>
      <component glyphName="circumflex" x="184" y="177" flags="0x4"/>
    </TTGlyph>
    <TTGlyph name="Udieresis" xMin="60" yMin="-6" xMax="559" yMax="879">
      <component glyphName="U" x="0" y="0" flags="0x0"/>
      <component glyphName="dieresis" x="182" y="177" flags="0x4"/>
    </TTGlyph>
    <TTGlyph name="Ugrave" xMin="60" yMin="-6" xMax="559" yMax="909">
      <component glyphName="U" x="0" y="0" flags="0x0"/>
      <component glyphName="grave" x="177" y="177" flags="0x4"/>
    </TTGlyph>
    <TTGlyph name="Uhorn" xMin="60" yMin="-6" xMax="643" yMax="833">
      <contour>
        <pt x="643" y="721" on="0"/>
        <pt x="601" y="674" on="0"/>
        <pt x="558" y="670" on="1"/>
        <pt x="508" y="195" on="1"/>
        <pt x="498" y="100" on="0"/>
        <pt x="371" y="-6" on="0"/>
        <pt x="264" y="-6" on="1"/>
        <pt x="165" y="-6" on="0"/>
        <pt x="60" y="85" on="0"/>
        <pt x="60" y="167" on="1"/>
        <pt x="60" y="185" on="0"/>
        <pt x="61" y="195" on="1"/>
        <pt x="112" y="680" on="1"/>
        <pt x="114" y="702" on="0"/>
        <pt x="152" y="702" on="1"/>
        <pt x="166" y="702" on="1"/>
        <pt x="204" y="702" on="0"/>
        <pt x="202" y="680" on="1"/>
        <pt x="151" y="192" on="1"/>
        <pt x="150" y="187" on="0"/>
        <pt x="150" y="177" on="1"/>
        <pt x="150" y="129" on="0"/>
        <pt x="217" y="70" on="0"/>
        <pt x="272" y="70" on="1"/>
        <pt x="330" y="70" on="0"/>
        <pt x="412" y="139" on="0"/>
        <pt x="418" y="192" on="1"/>
        <pt x="469" y="680" on="1"/>
        <pt x="471" y="702" on="0"/>
        <pt x="509" y="702" on="1"/>
        <pt x="539" y="702" on="1"/>
        <pt x="562" y="702" on="0"/>
        <pt x="582" y="721" on="0"/>
        <pt x="582" y="735" on="1"/>
        <pt x="582" y="748" on="0"/>
        <pt x="572" y="769" on="0"/>
        <pt x="556" y="793" on="0"/>
        <pt x="555" y="797" on="1"/>
        <pt x="555" y="807" on="0"/>
        <pt x="564" y="813" on="1"/>
        <pt x="588" y="829" on="1"/>
        <pt x="593" y="833" on="0"/>
        <pt x="600" y="833" on="1"/>
        <pt x="616" y="833" on="0"/>
        <pt x="643" y="783" on="0"/>
        <pt x="643" y="759" on="1"/>
      </contour>
    </TTGlyph>
    <TTGlyph name="Uhungarumlaut" xMin="60" yMin="-6" xMax="559" yMax="909">
      <component glyphName="U" x="0" y="0" flags="0x0"/>
      <component glyphName="hungarumlaut" x="219" y="177" flags="0x4"/>
    </TTGlyph>
    <TTGlyph name="Umacron" xMin="60" yMin="-6" xMax="559" yMax="859">
      <component glyphName="U" x="0" y="0" flags="0x0"/>
      <component glyphName="macron" x="184" y="177" flags="0x4"/>
    </TTGlyph>
    <TTGlyph name="Uogonek" xMin="60" yMin="-165" xMax="561" yMax="702">
      <contour>
        <pt x="561" y="702" on="0"/>
        <pt x="559" y="680" on="1"/>
        <pt x="508" y="195" on="1"/>
        <pt x="501" y="133" on="0"/>
        <pt x="442" y="44" on="0"/>
        <pt x="392" y="20" on="1"/>
        <pt x="380" y="-1" on="0"/>
        <pt x="367" y="-43" on="0"/>
        <pt x="367" y="-59" on="1"/>
        <pt x="367" y="-102" on="0"/>
        <pt x="417" y="-102" on="1"/>
        <pt x="425" y="-102" on="0"/>
        <pt x="453" y="-95" on="0"/>
        <pt x="457" y="-95" on="1"/>
        <pt x="477" y="-95" on="0"/>
        <pt x="477" y="-119" on="1"/>
        <pt x="477" y="-137" on="0"/>
        <pt x="464" y="-146" on="1"/>
        <pt x="436" y="-165" on="0"/>
        <pt x="398" y="-165" on="1"/>
        <pt x="344" y="-165" on="0"/>
        <pt x="306" y="-108" on="0"/>
        <pt x="306" y="-77" on="1"/>
        <pt x="306" y="-41" on="0"/>
        <pt x="324" y="-1" on="1"/>
        <pt x="294" y="-6" on="0"/>
        <pt x="264" y="-6" on="1"/>
        <pt x="165" y="-6" on="0"/>
        <pt x="60" y="85" on="0"/>
        <pt x="60" y="167" on="1"/>
        <pt x="60" y="185" on="0"/>
        <pt x="61" y="195" on="1"/>
        <pt x="112" y="680" on="1"/>
        <pt x="114" y="702" on="0"/>
        <pt x="152" y="702" on="1"/>
        <pt x="166" y="702" on="1"/>
        <pt x="204" y="702" on="0"/>
        <pt x="202" y="680" on="1"/>
        <pt x="151" y="192" on="1"/>
        <pt x="150" y="187" on="0"/>
        <pt x="150" y="177" on="1"/>
        <pt x="150" y="129" on="0"/>
        <pt x="217" y="70" on="0"/>
        <pt x="272" y="70" on="1"/>
        <pt x="330" y="70" on="0"/>
        <pt x="412" y="139" on="0"/>
        <pt x="418" y="192" on="1"/>
        <pt x="469" y="680" on="1"/>
        <pt x="471" y="702" on="0"/>
        <pt x="509" y="702" on="1"/>
        <pt x="523" y="702" on="1"/>
      </contour>
    </TTGlyph>
    <TTGlyph name="Uring" xMin="60" yMin="-6" xMax="559" yMax="910">
      <component glyphName="U" x="0" y="0" flags="0x0"/>
      <component glyphName="ring" x="181" y="177" flags="0x4"/>
    </TTGlyph>
    <TTGlyph name="Utilde" xMin="60" yMin="-6" xMax="559" yMax="868">
      <component glyphName="U" x="0" y="0" flags="0x0"/>
      <component glyphName="tilde" x="188" y="177" flags="0x4"/>
    </TTGlyph>
    <TTGlyph name="V" xMin="63" yMin="-2" xMax="534" yMax="702">
      <contour>
        <pt x="178" y="-2" on="0"/>
        <pt x="175" y="14" on="1"/>
        <pt x="65" y="672" on="1"/>
        <pt x="63" y="682" on="0"/>
        <pt x="63" y="685" on="1"/>
        <pt x="65" y="702" on="0"/>
        <pt x="105" y="702" on="1"/>
        <pt x="119" y="702" on="1"/>
        <pt x="151" y="702" on="0"/>
        <pt x="154" y="686" on="1"/>
        <pt x="232" y="154" on="1"/>
        <pt x="235" y="102" on="1"/>
        <pt x="238" y="102" on="1"/>
        <pt x="253" y="155" on="1"/>
        <pt x="443" y="686" on="1"/>
        <pt x="450" y="702" on="0"/>
        <pt x="482" y="702" on="1"/>
        <pt x="494" y="702" on="1"/>
        <pt x="534" y="702" on="0"/>
        <pt x="532" y="685" on="1"/>
        <pt x="532" y="683" on="0"/>
        <pt x="528" y="671" on="1"/>
        <pt x="284" y="14" on="1"/>
        <pt x="279" y="-2" on="0"/>
        <pt x="245" y="-2" on="1"/>
        <pt x="209" y="-2" on="1"/>
      </contour>
    </TTGlyph>
    <TTGlyph name="W" xMin="67" yMin="-2" xMax="775" yMax="702">
      <contour>
        <pt x="149" y="-2" on="0"/>
        <pt x="148" y="14" on="1"/>
        <pt x="68" y="671" on="1"/>
        <pt x="67" y="676" on="0"/>
        <pt x="67" y="683" on="1"/>
        <pt x="70" y="702" on="0"/>
        <pt x="109" y="702" on="1"/>
        <pt x="122" y="702" on="1"/>
        <pt x="159" y="702" on="0"/>
        <pt x="160" y="686" on="1"/>
        <pt x="201" y="203" on="1"/>
        <pt x="204" y="169" on="0"/>
        <pt x="204" y="120" on="1"/>
        <pt x="205" y="110" on="0"/>
        <pt x="205" y="92" on="1"/>
        <pt x="237" y="206" on="1"/>
        <pt x="381" y="685" on="1"/>
        <pt x="386" y="702" on="0"/>
        <pt x="418" y="702" on="1"/>
        <pt x="438" y="702" on="1"/>
        <pt x="472" y="702" on="0"/>
        <pt x="473" y="685" on="1"/>
        <pt x="520" y="204" on="1"/>
        <pt x="525" y="155" on="0"/>
        <pt x="525" y="92" on="1"/>
        <pt x="556" y="203" on="1"/>
        <pt x="682" y="686" on="1"/>
        <pt x="686" y="702" on="0"/>
        <pt x="723" y="702" on="1"/>
        <pt x="734" y="702" on="1"/>
        <pt x="775" y="702" on="0"/>
        <pt x="772" y="683" on="1"/>
        <pt x="772" y="679" on="0"/>
        <pt x="769" y="671" on="1"/>
        <pt x="570" y="14" on="1"/>
        <pt x="565" y="-2" on="0"/>
        <pt x="532" y="-2" on="1"/>
        <pt x="502" y="-2" on="1"/>
        <pt x="469" y="-2" on="0"/>
        <pt x="468" y="14" on="1"/>
        <pt x="424" y="435" on="1"/>
        <pt x="417" y="571" on="1"/>
        <pt x="382" y="435" on="1"/>
        <pt x="250" y="14" on="1"/>
        <pt x="246" y="-2" on="0"/>
        <pt x="212" y="-2" on="1"/>
        <pt x="182" y="-2" on="1"/>
      </contour>
    </TTGlyph>
    <TTGlyph name="Wacute" xMin="67" yMin="-2" xMax="772" yMax="909">
      <component glyphName="W" x="0" y="0" flags="0x0"/>
      <component glyphName="acute" x="338" y="177" flags="0x4"/>
    </TTGlyph>
    <TTGlyph name="Wcircumflex" xMin="67" yMin="-2" xMax="772" yMax="895">
      <component glyphName="W" x="0" y="0" flags="0x0"/>
      <component glyphName="circumflex" x="273" y="177" flags="0x4"/>
    </TTGlyph>
    <TTGlyph name="Wdieresis" xMin="67" yMin="-2" xMax="772" yMax="879">
      <component glyphName="W" x="0" y="0" flags="0x0"/>
      <component glyphName="dieresis" x="271" y="177" flags="0x4"/>
    </TTGlyph>
    <TTGlyph name="Wgrave" xMin="67" yMin="-2" xMax="772" yMax="909">
      <component glyphName="W" x="0" y="0" flags="0x0"/>
      <component glyphName="grave" x="266" y="177" flags="0x4"/>
    </TTGlyph>
    <TTGlyph name="X" xMin="-6" yMin="-2" xMax="516" yMax="702">
      <contour>
        <pt x="13" y="-2" on="0"/>
        <pt x="-6" y="6" on="0"/>
        <pt x="-5" y="15" on="1"/>
        <pt x="-4" y="20" on="0"/>
        <pt x="4" y="33" on="1"/>
        <pt x="214" y="369" on="1"/>
        <pt x="90" y="667" on="1"/>
        <pt x="84" y="681" on="0"/>
        <pt x="85" y="685" on="1"/>
        <pt x="87" y="702" on="0"/>
        <pt x="128" y="702" on="1"/>
        <pt x="148" y="702" on="1"/>
        <pt x="164" y="702" on="0"/>
        <pt x="182" y="696" on="0"/>
        <pt x="185" y="687" on="1"/>
        <pt x="273" y="445" on="1"/>
        <pt x="420" y="688" on="1"/>
        <pt x="425" y="696" on="0"/>
        <pt x="444" y="702" on="0"/>
        <pt x="460" y="702" on="1"/>
        <pt x="474" y="702" on="1"/>
        <pt x="516" y="702" on="0"/>
        <pt x="515" y="685" on="1"/>
        <pt x="514" y="680" on="0"/>
        <pt x="506" y="667" on="1"/>
        <pt x="315" y="365" on="1"/>
        <pt x="455" y="33" on="1"/>
        <pt x="456" y="30" on="0"/>
        <pt x="461" y="19" on="0"/>
        <pt x="460" y="15" on="1"/>
        <pt x="458" y="-2" on="0"/>
        <pt x="416" y="-2" on="1"/>
        <pt x="396" y="-2" on="1"/>
        <pt x="364" y="-2" on="0"/>
        <pt x="359" y="13" on="1"/>
        <pt x="257" y="289" on="1"/>
        <pt x="91" y="12" on="1"/>
        <pt x="83" y="-2" on="0"/>
        <pt x="50" y="-2" on="1"/>
        <pt x="35" y="-2" on="1"/>
      </contour>
    </TTGlyph>
    <TTGlyph name="Y" xMin="64" yMin="-2" xMax="509" yMax="702">
      <contour>
        <pt x="169" y="-2" on="0"/>
        <pt x="171" y="20" on="1"/>
        <pt x="203" y="317" on="1"/>
        <pt x="69" y="667" on="1"/>
        <pt x="64" y="679" on="0"/>
        <pt x="64" y="685" on="1"/>
        <pt x="65" y="694" on="0"/>
        <pt x="82" y="702" on="0"/>
        <pt x="104" y="702" on="1"/>
        <pt x="119" y="702" on="1"/>
        <pt x="136" y="702" on="0"/>
        <pt x="152" y="696" on="0"/>
        <pt x="156" y="687" on="1"/>
        <pt x="255" y="404" on="1"/>
        <pt x="416" y="688" on="1"/>
        <pt x="421" y="696" on="0"/>
        <pt x="441" y="702" on="0"/>
        <pt x="457" y="702" on="1"/>
        <pt x="472" y="702" on="1"/>
        <pt x="492" y="701" on="0"/>
        <pt x="509" y="693" on="0"/>
        <pt x="508" y="685" on="1"/>
        <pt x="508" y="678" on="0"/>
        <pt x="500" y="667" on="1"/>
        <pt x="292" y="314" on="1"/>
        <pt x="261" y="20" on="1"/>
        <pt x="259" y="-2" on="0"/>
        <pt x="221" y="-2" on="1"/>
        <pt x="207" y="-2" on="1"/>
      </contour>
    </TTGlyph>
    <TTGlyph name="Y.loclGUA" xMin="44" yMin="-8" xMax="482" yMax="702">
      <contour>
        <pt x="482" y="702" on="0"/>
        <pt x="480" y="680" on="1"/>
        <pt x="437" y="274" on="1"/>
        <pt x="426" y="166" on="0"/>
        <pt x="374" y="44" on="0"/>
        <pt x="285" y="-8" on="0"/>
        <pt x="216" y="-8" on="1"/>
        <pt x="169" y="-8" on="0"/>
        <pt x="90" y="8" on="0"/>
        <pt x="45" y="31" on="0"/>
        <pt x="44" y="42" on="1"/>
        <pt x="44" y="59" on="0"/>
        <pt x="46" y="67" on="1"/>
        <pt x="47" y="83" on="0"/>
        <pt x="55" y="97" on="0"/>
        <pt x="58" y="97" on="1"/>
        <pt x="61" y="97" on="0"/>
        <pt x="108" y="79" on="0"/>
        <pt x="171" y="64" on="0"/>
        <pt x="211" y="64" on="1"/>
        <pt x="257" y="64" on="0"/>
        <pt x="313" y="104" on="0"/>
        <pt x="346" y="195" on="0"/>
        <pt x="354" y="275" on="1"/>
        <pt x="322" y="243" on="0"/>
        <pt x="248" y="211" on="0"/>
        <pt x="210" y="211" on="1"/>
        <pt x="145" y="211" on="0"/>
        <pt x="73" y="278" on="0"/>
        <pt x="73" y="339" on="1"/>
        <pt x="73" y="354" on="0"/>
        <pt x="74" y="362" on="1"/>
        <pt x="107" y="680" on="1"/>
        <pt x="109" y="702" on="0"/>
        <pt x="149" y="702" on="1"/>
        <pt x="153" y="702" on="1"/>
        <pt x="193" y="702" on="0"/>
        <pt x="191" y="680" on="1"/>
        <pt x="158" y="370" on="1"/>
        <pt x="154" y="329" on="0"/>
        <pt x="197" y="284" on="0"/>
        <pt x="240" y="284" on="1"/>
        <pt x="271" y="284" on="0"/>
        <pt x="335" y="322" on="0"/>
        <pt x="362" y="354" on="1"/>
        <pt x="396" y="680" on="1"/>
        <pt x="398" y="702" on="0"/>
        <pt x="438" y="702" on="1"/>
        <pt x="442" y="702" on="1"/>
      </contour>
    </TTGlyph>
    <TTGlyph name="Yacute" xMin="64" yMin="-2" xMax="508" yMax="909">
      <component glyphName="Y" x="0" y="0" flags="0x0"/>
      <component glyphName="acute" x="199" y="177" flags="0x4"/>
    </TTGlyph>
    <TTGlyph name="Yacute.loclGUA" xMin="44" yMin="-8" xMax="480" yMax="909">
      <component glyphName="Y.loclGUA" x="0" y="0" flags="0x0"/>
      <component glyphName="acute" x="207" y="177" flags="0x4"/>
    </TTGlyph>
    <TTGlyph name="Ycircumflex" xMin="64" yMin="-2" xMax="508" yMax="895">
      <component glyphName="Y" x="0" y="0" flags="0x0"/>
      <component glyphName="circumflex" x="134" y="177" flags="0x4"/>
    </TTGlyph>
    <TTGlyph name="Ycircumflex.loclGUA" xMin="44" yMin="-8" xMax="480" yMax="895">
      <component glyphName="Y.loclGUA" x="0" y="0" flags="0x0"/>
      <component glyphName="circumflex" x="142" y="177" flags="0x4"/>
    </TTGlyph>
    <TTGlyph name="Ydieresis" xMin="64" yMin="-2" xMax="508" yMax="879">
      <component glyphName="Y" x="0" y="0" flags="0x0"/>
      <component glyphName="dieresis" x="132" y="177" flags="0x4"/>
    </TTGlyph>
    <TTGlyph name="Ydieresis.loclGUA" xMin="44" yMin="-8" xMax="480" yMax="879">
      <component glyphName="Y.loclGUA" x="0" y="0" flags="0x0"/>
      <component glyphName="dieresis" x="140" y="177" flags="0x4"/>
    </TTGlyph>
    <TTGlyph name="Ygrave" xMin="64" yMin="-2" xMax="508" yMax="909">
      <component glyphName="Y" x="0" y="0" flags="0x0"/>
      <component glyphName="grave" x="127" y="177" flags="0x4"/>
    </TTGlyph>
    <TTGlyph name="Ygrave.loclGUA" xMin="44" yMin="-8" xMax="480" yMax="909">
      <component glyphName="Y.loclGUA" x="0" y="0" flags="0x0"/>
      <component glyphName="grave" x="135" y="177" flags="0x4"/>
    </TTGlyph>
    <TTGlyph name="Z" xMin="8" yMin="0" xMax="506" yMax="700">
      <contour>
        <pt x="20" y="0" on="0"/>
        <pt x="8" y="37" on="0"/>
        <pt x="10" y="53" on="1"/>
        <pt x="10" y="56" on="0"/>
        <pt x="13" y="65" on="1"/>
        <pt x="393" y="624" on="1"/>
        <pt x="114" y="624" on="1"/>
        <pt x="104" y="624" on="0"/>
        <pt x="97" y="640" on="0"/>
        <pt x="99" y="658" on="1"/>
        <pt x="100" y="666" on="1"/>
        <pt x="102" y="684" on="0"/>
        <pt x="112" y="700" on="0"/>
        <pt x="122" y="700" on="1"/>
        <pt x="488" y="700" on="1"/>
        <pt x="495" y="700" on="0"/>
        <pt x="506" y="663" on="0"/>
        <pt x="504" y="647" on="1"/>
        <pt x="504" y="641" on="0"/>
        <pt x="502" y="635" on="1"/>
        <pt x="124" y="76" on="1"/>
        <pt x="425" y="76" on="1"/>
        <pt x="435" y="76" on="0"/>
        <pt x="442" y="60" on="0"/>
        <pt x="441" y="42" on="1"/>
        <pt x="440" y="34" on="1"/>
        <pt x="438" y="16" on="0"/>
        <pt x="427" y="0" on="0"/>
        <pt x="417" y="0" on="1"/>
        <pt x="28" y="0" on="1"/>
      </contour>
    </TTGlyph>
    <TTGlyph name="Zacute" xMin="10" yMin="0" xMax="504" yMax="909">
      <component glyphName="Z" x="0" y="0" flags="0x0"/>
      <component glyphName="acute" x="212" y="177" flags="0x4"/>
    </TTGlyph>
    <TTGlyph name="Zacute.loclPLK" xMin="10" yMin="0" xMax="504" yMax="909">
      <component glyphName="Z" x="0" y="0" flags="0x0"/>
      <component glyphName="acute.loclPLK" x="209" y="177" flags="0x4"/>
    </TTGlyph>
    <TTGlyph name="Zcaron" xMin="10" yMin="0" xMax="504" yMax="902">
      <component glyphName="Z" x="0" y="0" flags="0x0"/>
      <component glyphName="caron" x="149" y="177" flags="0x4"/>
    </TTGlyph>
    <TTGlyph name="Zdotaccent" xMin="10" yMin="0" xMax="504" yMax="879">
      <component glyphName="Z" x="0" y="0" flags="0x0"/>
      <component glyphName="dotaccent" x="144" y="177" flags="0x4"/>
    </TTGlyph>
    <TTGlyph name="a" xMin="44" yMin="-7" xMax="450" yMax="529">
      <contour>
        <pt x="107" y="-7" on="0"/>
        <pt x="44" y="111" on="0"/>
        <pt x="44" y="203" on="1"/>
        <pt x="44" y="233" on="0"/>
        <pt x="47" y="263" on="1"/>
        <pt x="60" y="385" on="0"/>
        <pt x="167" y="529" on="0"/>
        <pt x="244" y="529" on="1"/>
        <pt x="310" y="529" on="0"/>
        <pt x="352" y="475" on="1"/>
        <pt x="361" y="502" on="0"/>
        <pt x="378" y="525" on="0"/>
        <pt x="397" y="525" on="1"/>
        <pt x="403" y="525" on="1"/>
        <pt x="417" y="525" on="0"/>
        <pt x="428" y="515" on="0"/>
        <pt x="428" y="504" on="1"/>
        <pt x="427" y="493" on="0"/>
        <pt x="423" y="456" on="0"/>
        <pt x="421" y="436" on="1"/>
        <pt x="416" y="393" on="1"/>
        <pt x="386" y="115" on="1"/>
        <pt x="382" y="66" on="0"/>
        <pt x="411" y="66" on="1"/>
        <pt x="418" y="66" on="0"/>
        <pt x="435" y="71" on="0"/>
        <pt x="440" y="71" on="1"/>
        <pt x="445" y="71" on="0"/>
        <pt x="450" y="58" on="0"/>
        <pt x="450" y="48" on="1"/>
        <pt x="450" y="-6" on="0"/>
        <pt x="385" y="-6" on="1"/>
        <pt x="353" y="-6" on="0"/>
        <pt x="303" y="33" on="0"/>
        <pt x="301" y="83" on="1"/>
        <pt x="255" y="-7" on="0"/>
        <pt x="174" y="-7" on="1"/>
      </contour>
      <contour>
        <pt x="230" y="66" on="0"/>
        <pt x="291" y="129" on="0"/>
        <pt x="311" y="198" on="1"/>
        <pt x="329" y="367" on="1"/>
        <pt x="331" y="385" on="0"/>
        <pt x="337" y="417" on="1"/>
        <pt x="321" y="434" on="0"/>
        <pt x="285" y="456" on="0"/>
        <pt x="257" y="456" on="1"/>
        <pt x="201" y="456" on="0"/>
        <pt x="143" y="357" on="0"/>
        <pt x="133" y="267" on="1"/>
        <pt x="129" y="225" on="0"/>
        <pt x="129" y="202" on="1"/>
        <pt x="129" y="141" on="0"/>
        <pt x="161" y="66" on="0"/>
        <pt x="198" y="66" on="1"/>
      </contour>
    </TTGlyph>
    <TTGlyph name="aacute" xMin="44" yMin="-7" xMax="450" yMax="732">
      <component glyphName="a" x="0" y="0" flags="0x0"/>
      <component glyphName="acute" x="171" y="0" flags="0x0"/>
    </TTGlyph>
    <TTGlyph name="abreve" xMin="44" yMin="-7" xMax="450" yMax="715">
      <component glyphName="a" x="0" y="0" flags="0x0"/>
      <component glyphName="breve" x="107" y="0" flags="0x0"/>
    </TTGlyph>
    <TTGlyph name="acircumflex" xMin="44" yMin="-7" xMax="450" yMax="718">
      <component glyphName="a" x="0" y="0" flags="0x0"/>
      <component glyphName="circumflex" x="106" y="0" flags="0x0"/>
    </TTGlyph>
    <TTGlyph name="acute" xMin="53" yMin="585" xMax="200" yMax="732">
      <contour>
        <pt x="53" y="585" on="0"/>
        <pt x="53" y="595" on="1"/>
        <pt x="53" y="602" on="0"/>
        <pt x="78" y="656" on="0"/>
        <pt x="102" y="706" on="1"/>
        <pt x="114" y="732" on="0"/>
        <pt x="158" y="732" on="1"/>
        <pt x="180" y="732" on="0"/>
        <pt x="200" y="726" on="0"/>
        <pt x="200" y="719" on="1"/>
        <pt x="200" y="713" on="0"/>
        <pt x="182" y="687" on="0"/>
        <pt x="164" y="661" on="1"/>
        <pt x="122" y="603" on="1"/>
        <pt x="110" y="585" on="0"/>
        <pt x="74" y="585" on="1"/>
      </contour>
    </TTGlyph>
    <TTGlyph name="acute.loclPLK" xMin="58" yMin="585" xMax="181" yMax="732">
      <contour>
        <pt x="70" y="585" on="0"/>
        <pt x="58" y="590" on="0"/>
        <pt x="58" y="595" on="1"/>
        <pt x="58" y="605" on="0"/>
        <pt x="83" y="706" on="1"/>
        <pt x="87" y="721" on="0"/>
        <pt x="117" y="732" on="0"/>
        <pt x="141" y="732" on="1"/>
        <pt x="162" y="732" on="0"/>
        <pt x="181" y="725" on="0"/>
        <pt x="181" y="718" on="1"/>
        <pt x="181" y="713" on="0"/>
        <pt x="152" y="653" on="0"/>
        <pt x="127" y="603" on="1"/>
        <pt x="117" y="585" on="0"/>
        <pt x="85" y="585" on="1"/>
      </contour>
    </TTGlyph>
    <TTGlyph name="acutecomb" xMin="0" yMin="585" xMax="147" yMax="732">
      <component glyphName="acute" x="-53" y="0" flags="0x0"/>
    </TTGlyph>
    <TTGlyph name="adieresis" xMin="44" yMin="-7" xMax="450" yMax="702">
      <component glyphName="a" x="0" y="0" flags="0x0"/>
      <component glyphName="dieresis" x="104" y="0" flags="0x0"/>
    </TTGlyph>
    <TTGlyph name="ae" xMin="27" yMin="-6" xMax="648" yMax="529">
      <contour>
        <pt x="104" y="-6" on="0"/>
        <pt x="27" y="65" on="0"/>
        <pt x="27" y="128" on="1"/>
        <pt x="27" y="142" on="0"/>
        <pt x="28" y="150" on="1"/>
        <pt x="38" y="248" on="0"/>
        <pt x="173" y="321" on="0"/>
        <pt x="285" y="325" on="1"/>
        <pt x="293" y="367" on="0"/>
        <pt x="311" y="404" on="1"/>
        <pt x="302" y="457" on="0"/>
        <pt x="241" y="457" on="1"/>
        <pt x="207" y="457" on="0"/>
        <pt x="156" y="441" on="0"/>
        <pt x="116" y="423" on="0"/>
        <pt x="113" y="423" on="1"/>
        <pt x="103" y="423" on="0"/>
        <pt x="84" y="459" on="0"/>
        <pt x="84" y="470" on="1"/>
        <pt x="84" y="483" on="0"/>
        <pt x="132" y="511" on="0"/>
        <pt x="209" y="529" on="0"/>
        <pt x="249" y="529" on="1"/>
        <pt x="330" y="529" on="0"/>
        <pt x="369" y="485" on="1"/>
        <pt x="424" y="529" on="0"/>
        <pt x="499" y="529" on="1"/>
        <pt x="648" y="529" on="0"/>
        <pt x="648" y="328" on="1"/>
        <pt x="648" y="293" on="0"/>
        <pt x="646" y="274" on="1"/>
        <pt x="645" y="265" on="0"/>
        <pt x="618" y="233" on="0"/>
        <pt x="609" y="233" on="1"/>
        <pt x="361" y="233" on="1"/>
        <pt x="360" y="223" on="0"/>
        <pt x="360" y="203" on="1"/>
        <pt x="360" y="132" on="0"/>
        <pt x="407" y="66" on="0"/>
        <pt x="461" y="66" on="1"/>
        <pt x="497" y="66" on="0"/>
        <pt x="546" y="86" on="0"/>
        <pt x="580" y="108" on="0"/>
        <pt x="583" y="108" on="1"/>
        <pt x="593" y="108" on="0"/>
        <pt x="613" y="70" on="0"/>
        <pt x="613" y="59" on="1"/>
        <pt x="613" y="47" on="0"/>
        <pt x="568" y="16" on="0"/>
        <pt x="495" y="-6" on="0"/>
        <pt x="455" y="-6" on="1"/>
        <pt x="352" y="-6" on="0"/>
        <pt x="308" y="53" on="1"/>
        <pt x="279" y="25" on="0"/>
        <pt x="204" y="-6" on="0"/>
        <pt x="161" y="-6" on="1"/>
      </contour>
      <contour>
        <pt x="561" y="305" on="1"/>
        <pt x="563" y="335" on="0"/>
        <pt x="563" y="346" on="1"/>
        <pt x="563" y="457" on="0"/>
        <pt x="489" y="457" on="1"/>
        <pt x="392" y="457" on="0"/>
        <pt x="369" y="305" on="1"/>
      </contour>
      <contour>
        <pt x="237" y="73" on="0"/>
        <pt x="280" y="116" on="1"/>
        <pt x="270" y="150" on="0"/>
        <pt x="270" y="199" on="1"/>
        <pt x="270" y="225" on="0"/>
        <pt x="273" y="252" on="1"/>
        <pt x="203" y="249" on="0"/>
        <pt x="115" y="201" on="0"/>
        <pt x="115" y="137" on="1"/>
        <pt x="115" y="106" on="0"/>
        <pt x="147" y="73" on="0"/>
        <pt x="178" y="73" on="1"/>
      </contour>
    </TTGlyph>
    <TTGlyph name="aeacute" xMin="27" yMin="-6" xMax="648" yMax="732">
      <component glyphName="ae" x="0" y="0" flags="0x0"/>
      <component glyphName="acute" x="283" y="0" flags="0x0"/>
    </TTGlyph>
    <TTGlyph name="agrave" xMin="44" yMin="-7" xMax="450" yMax="732">
      <component glyphName="a" x="0" y="0" flags="0x0"/>
      <component glyphName="grave" x="99" y="0" flags="0x0"/>
    </TTGlyph>
    <TTGlyph name="amacron" xMin="44" yMin="-7" xMax="450" yMax="682">
      <component glyphName="a" x="0" y="0" flags="0x0"/>
      <component glyphName="macron" x="106" y="0" flags="0x0"/>
    </TTGlyph>
    <TTGlyph name="ampersand" xMin="24" yMin="-6" xMax="500" yMax="706">
      <contour>
        <pt x="500" y="408" on="0"/>
        <pt x="497" y="378" on="1"/>
        <pt x="496" y="366" on="1"/>
        <pt x="493" y="336" on="0"/>
        <pt x="474" y="336" on="1"/>
        <pt x="417" y="336" on="1"/>
        <pt x="396" y="140" on="1"/>
        <pt x="395" y="131" on="0"/>
        <pt x="395" y="115" on="1"/>
        <pt x="395" y="87" on="0"/>
        <pt x="411" y="66" on="0"/>
        <pt x="426" y="66" on="1"/>
        <pt x="437" y="66" on="0"/>
        <pt x="452" y="71" on="0"/>
        <pt x="456" y="71" on="1"/>
        <pt x="464" y="71" on="0"/>
        <pt x="471" y="42" on="0"/>
        <pt x="471" y="28" on="1"/>
        <pt x="471" y="-6" on="0"/>
        <pt x="403" y="-6" on="1"/>
        <pt x="346" y="-6" on="0"/>
        <pt x="323" y="37" on="1"/>
        <pt x="288" y="17" on="0"/>
        <pt x="224" y="-6" on="0"/>
        <pt x="184" y="-6" on="1"/>
        <pt x="115" y="-6" on="0"/>
        <pt x="24" y="78" on="0"/>
        <pt x="24" y="167" on="1"/>
        <pt x="24" y="177" on="0"/>
        <pt x="26" y="203" on="1"/>
        <pt x="34" y="278" on="0"/>
        <pt x="99" y="374" on="0"/>
        <pt x="143" y="387" on="1"/>
        <pt x="144" y="391" on="1"/>
        <pt x="114" y="407" on="0"/>
        <pt x="78" y="470" on="0"/>
        <pt x="78" y="515" on="1"/>
        <pt x="78" y="530" on="0"/>
        <pt x="79" y="538" on="1"/>
        <pt x="88" y="620" on="0"/>
        <pt x="186" y="706" on="0"/>
        <pt x="260" y="706" on="1"/>
        <pt x="290" y="706" on="0"/>
        <pt x="333" y="692" on="0"/>
        <pt x="331" y="674" on="1"/>
        <pt x="331" y="668" on="0"/>
        <pt x="313" y="625" on="0"/>
        <pt x="305" y="625" on="1"/>
        <pt x="302" y="625" on="0"/>
        <pt x="277" y="634" on="0"/>
        <pt x="261" y="634" on="1"/>
        <pt x="225" y="634" on="0"/>
        <pt x="182" y="590" on="0"/>
        <pt x="164" y="535" on="0"/>
        <pt x="164" y="515" on="1"/>
        <pt x="164" y="473" on="0"/>
        <pt x="207" y="408" on="0"/>
        <pt x="250" y="408" on="1"/>
        <pt x="337" y="408" on="1"/>
        <pt x="359" y="513" on="1"/>
        <pt x="364" y="535" on="0"/>
        <pt x="394" y="535" on="1"/>
        <pt x="408" y="535" on="1"/>
        <pt x="438" y="535" on="0"/>
        <pt x="435" y="513" on="1"/>
        <pt x="424" y="408" on="1"/>
        <pt x="481" y="408" on="1"/>
      </contour>
      <contour>
        <pt x="112" y="184" on="0"/>
        <pt x="112" y="175" on="1"/>
        <pt x="112" y="117" on="0"/>
        <pt x="163" y="66" on="0"/>
        <pt x="201" y="66" on="1"/>
        <pt x="225" y="66" on="0"/>
        <pt x="274" y="84" on="0"/>
        <pt x="308" y="101" on="1"/>
        <pt x="307" y="115" on="1"/>
        <pt x="308" y="132" on="1"/>
        <pt x="330" y="336" on="1"/>
        <pt x="239" y="336" on="1"/>
        <pt x="183" y="336" on="0"/>
        <pt x="122" y="277" on="0"/>
        <pt x="114" y="204" on="1"/>
      </contour>
    </TTGlyph>
    <TTGlyph name="aogonek" xMin="44" yMin="-187" xMax="497" yMax="529">
      <contour>
        <pt x="497" y="-117" on="0"/>
        <pt x="497" y="-141" on="1"/>
        <pt x="497" y="-159" on="0"/>
        <pt x="484" y="-168" on="1"/>
        <pt x="456" y="-187" on="0"/>
        <pt x="418" y="-187" on="1"/>
        <pt x="364" y="-187" on="0"/>
        <pt x="326" y="-130" on="0"/>
        <pt x="326" y="-99" on="1"/>
        <pt x="326" y="-78" on="0"/>
        <pt x="340" y="-26" on="0"/>
        <pt x="356" y="-2" on="1"/>
        <pt x="333" y="5" on="0"/>
        <pt x="302" y="46" on="0"/>
        <pt x="301" y="83" on="1"/>
        <pt x="255" y="-7" on="0"/>
        <pt x="174" y="-7" on="1"/>
        <pt x="107" y="-7" on="0"/>
        <pt x="44" y="111" on="0"/>
        <pt x="44" y="203" on="1"/>
        <pt x="44" y="233" on="0"/>
        <pt x="47" y="263" on="1"/>
        <pt x="60" y="385" on="0"/>
        <pt x="167" y="529" on="0"/>
        <pt x="244" y="529" on="1"/>
        <pt x="310" y="529" on="0"/>
        <pt x="352" y="475" on="1"/>
        <pt x="361" y="502" on="0"/>
        <pt x="378" y="525" on="0"/>
        <pt x="397" y="525" on="1"/>
        <pt x="403" y="525" on="1"/>
        <pt x="417" y="525" on="0"/>
        <pt x="428" y="515" on="0"/>
        <pt x="428" y="504" on="1"/>
        <pt x="427" y="493" on="0"/>
        <pt x="423" y="456" on="0"/>
        <pt x="421" y="436" on="1"/>
        <pt x="416" y="393" on="1"/>
        <pt x="386" y="115" on="1"/>
        <pt x="382" y="66" on="0"/>
        <pt x="411" y="66" on="1"/>
        <pt x="418" y="66" on="0"/>
        <pt x="435" y="71" on="0"/>
        <pt x="440" y="71" on="1"/>
        <pt x="445" y="71" on="0"/>
        <pt x="450" y="58" on="0"/>
        <pt x="450" y="48" on="1"/>
        <pt x="450" y="6" on="0"/>
        <pt x="411" y="-3" on="1"/>
        <pt x="399" y="-23" on="0"/>
        <pt x="387" y="-65" on="0"/>
        <pt x="387" y="-81" on="1"/>
        <pt x="387" y="-124" on="0"/>
        <pt x="437" y="-124" on="1"/>
        <pt x="445" y="-124" on="0"/>
        <pt x="473" y="-117" on="0"/>
        <pt x="477" y="-117" on="1"/>
      </contour>
      <contour>
        <pt x="331" y="385" on="0"/>
        <pt x="337" y="417" on="1"/>
        <pt x="321" y="434" on="0"/>
        <pt x="285" y="456" on="0"/>
        <pt x="257" y="456" on="1"/>
        <pt x="201" y="456" on="0"/>
        <pt x="143" y="357" on="0"/>
        <pt x="133" y="267" on="1"/>
        <pt x="129" y="225" on="0"/>
        <pt x="129" y="202" on="1"/>
        <pt x="129" y="141" on="0"/>
        <pt x="161" y="66" on="0"/>
        <pt x="198" y="66" on="1"/>
        <pt x="230" y="66" on="0"/>
        <pt x="291" y="129" on="0"/>
        <pt x="311" y="198" on="1"/>
        <pt x="329" y="367" on="1"/>
      </contour>
    </TTGlyph>
    <TTGlyph name="approxequal" xMin="42" yMin="97" xMax="399" yMax="359">
      <contour>
        <pt x="214" y="283" on="0"/>
        <pt x="177" y="296" on="0"/>
        <pt x="149" y="302" on="0"/>
        <pt x="139" y="302" on="1"/>
        <pt x="121" y="302" on="0"/>
        <pt x="102" y="272" on="1"/>
        <pt x="93" y="257" on="0"/>
        <pt x="84" y="257" on="1"/>
        <pt x="81" y="257" on="0"/>
        <pt x="76" y="260" on="1"/>
        <pt x="69" y="264" on="1"/>
        <pt x="60" y="268" on="0"/>
        <pt x="59" y="275" on="1"/>
        <pt x="59" y="281" on="0"/>
        <pt x="63" y="289" on="1"/>
        <pt x="78" y="326" on="0"/>
        <pt x="119" y="358" on="0"/>
        <pt x="149" y="358" on="1"/>
        <pt x="166" y="358" on="0"/>
        <pt x="204" y="347" on="0"/>
        <pt x="238" y="335" on="1"/>
        <pt x="244" y="333" on="0"/>
        <pt x="281" y="320" on="0"/>
        <pt x="309" y="314" on="0"/>
        <pt x="319" y="314" on="1"/>
        <pt x="337" y="314" on="0"/>
        <pt x="356" y="344" on="1"/>
        <pt x="365" y="359" on="0"/>
        <pt x="374" y="359" on="1"/>
        <pt x="377" y="359" on="0"/>
        <pt x="382" y="356" on="1"/>
        <pt x="389" y="352" on="1"/>
        <pt x="398" y="348" on="0"/>
        <pt x="399" y="341" on="1"/>
        <pt x="399" y="335" on="0"/>
        <pt x="395" y="327" on="1"/>
        <pt x="380" y="290" on="0"/>
        <pt x="339" y="258" on="0"/>
        <pt x="309" y="258" on="1"/>
        <pt x="292" y="258" on="0"/>
        <pt x="254" y="269" on="0"/>
        <pt x="220" y="281" on="1"/>
      </contour>
      <contour>
        <pt x="197" y="123" on="0"/>
        <pt x="160" y="136" on="0"/>
        <pt x="132" y="142" on="0"/>
        <pt x="122" y="142" on="1"/>
        <pt x="104" y="142" on="0"/>
        <pt x="85" y="112" on="1"/>
        <pt x="76" y="97" on="0"/>
        <pt x="67" y="97" on="1"/>
        <pt x="63" y="97" on="0"/>
        <pt x="59" y="100" on="1"/>
        <pt x="52" y="104" on="1"/>
        <pt x="43" y="108" on="0"/>
        <pt x="42" y="115" on="1"/>
        <pt x="42" y="121" on="0"/>
        <pt x="46" y="129" on="1"/>
        <pt x="61" y="166" on="0"/>
        <pt x="102" y="198" on="0"/>
        <pt x="132" y="198" on="1"/>
        <pt x="149" y="198" on="0"/>
        <pt x="187" y="187" on="0"/>
        <pt x="221" y="175" on="1"/>
        <pt x="227" y="173" on="0"/>
        <pt x="264" y="160" on="0"/>
        <pt x="292" y="154" on="0"/>
        <pt x="302" y="154" on="1"/>
        <pt x="320" y="154" on="0"/>
        <pt x="339" y="184" on="1"/>
        <pt x="348" y="199" on="0"/>
        <pt x="357" y="199" on="1"/>
        <pt x="361" y="199" on="0"/>
        <pt x="365" y="196" on="1"/>
        <pt x="372" y="192" on="1"/>
        <pt x="381" y="188" on="0"/>
        <pt x="382" y="181" on="1"/>
        <pt x="382" y="175" on="0"/>
        <pt x="378" y="167" on="1"/>
        <pt x="363" y="130" on="0"/>
        <pt x="322" y="98" on="0"/>
        <pt x="292" y="98" on="1"/>
        <pt x="275" y="98" on="0"/>
        <pt x="237" y="109" on="0"/>
        <pt x="203" y="121" on="1"/>
      </contour>
    </TTGlyph>
    <TTGlyph name="aring" xMin="44" yMin="-7" xMax="450" yMax="733">
      <component glyphName="a" x="0" y="0" flags="0x0"/>
      <component glyphName="ring" x="103" y="0" flags="0x0"/>
    </TTGlyph>
    <TTGlyph name="aringacute" xMin="44" yMin="-7" xMax="450" yMax="922">
      <component glyphName="a" x="0" y="0" flags="0x0"/>
      <component glyphName="ring" x="103" y="0" flags="0x0"/>
      <component glyphName="acute" x="205" y="190" flags="0x4"/>
    </TTGlyph>
    <TTGlyph name="arrowdown" xMin="18" yMin="-4" xMax="520" yMax="708">
      <contour>
        <pt x="505" y="323" on="0"/>
        <pt x="510" y="323" on="1"/>
        <pt x="515" y="323" on="0"/>
        <pt x="520" y="315" on="0"/>
        <pt x="519" y="308" on="1"/>
        <pt x="513" y="253" on="1"/>
        <pt x="512" y="241" on="0"/>
        <pt x="506" y="228" on="0"/>
        <pt x="496" y="219" on="1"/>
        <pt x="258" y="3" on="1"/>
        <pt x="250" y="-4" on="0"/>
        <pt x="239" y="-4" on="1"/>
        <pt x="233" y="-4" on="0"/>
        <pt x="226" y="-1" on="0"/>
        <pt x="222" y="3" on="1"/>
        <pt x="30" y="219" on="1"/>
        <pt x="22" y="228" on="0"/>
        <pt x="18" y="240" on="0"/>
        <pt x="19" y="253" on="1"/>
        <pt x="25" y="305" on="1"/>
        <pt x="26" y="321" on="0"/>
        <pt x="35" y="321" on="1"/>
        <pt x="40" y="321" on="0"/>
        <pt x="47" y="314" on="1"/>
        <pt x="215" y="121" on="1"/>
        <pt x="275" y="686" on="1"/>
        <pt x="277" y="708" on="0"/>
        <pt x="307" y="708" on="1"/>
        <pt x="317" y="708" on="1"/>
        <pt x="347" y="708" on="0"/>
        <pt x="345" y="686" on="1"/>
        <pt x="285" y="120" on="1"/>
        <pt x="499" y="317" on="1"/>
      </contour>
    </TTGlyph>
    <TTGlyph name="arrowleft" xMin="-1" yMin="1" xMax="603" yMax="530">
      <contour>
        <pt x="603" y="297" on="0"/>
        <pt x="600" y="267" on="1"/>
        <pt x="599" y="257" on="1"/>
        <pt x="596" y="227" on="0"/>
        <pt x="575" y="227" on="1"/>
        <pt x="113" y="227" on="1"/>
        <pt x="253" y="22" on="1"/>
        <pt x="257" y="17" on="0"/>
        <pt x="257" y="11" on="1"/>
        <pt x="257" y="1" on="0"/>
        <pt x="243" y="1" on="1"/>
        <pt x="194" y="1" on="1"/>
        <pt x="173" y="1" on="0"/>
        <pt x="164" y="15" on="1"/>
        <pt x="4" y="248" on="1"/>
        <pt x="-1" y="255" on="0"/>
        <pt x="0" y="268" on="1"/>
        <pt x="0" y="276" on="0"/>
        <pt x="8" y="284" on="1"/>
        <pt x="217" y="516" on="1"/>
        <pt x="228" y="530" on="0"/>
        <pt x="249" y="530" on="1"/>
        <pt x="302" y="530" on="1"/>
        <pt x="316" y="530" on="0"/>
        <pt x="316" y="523" on="1"/>
        <pt x="316" y="517" on="0"/>
        <pt x="308" y="509" on="1"/>
        <pt x="117" y="297" on="1"/>
        <pt x="582" y="297" on="1"/>
      </contour>
    </TTGlyph>
    <TTGlyph name="arrowright" xMin="-3" yMin="1" xMax="601" yMax="530">
      <contour>
        <pt x="601" y="276" on="0"/>
        <pt x="600" y="263" on="1"/>
        <pt x="600" y="255" on="0"/>
        <pt x="592" y="247" on="1"/>
        <pt x="383" y="15" on="1"/>
        <pt x="372" y="1" on="0"/>
        <pt x="351" y="1" on="1"/>
        <pt x="298" y="1" on="1"/>
        <pt x="284" y="1" on="0"/>
        <pt x="284" y="8" on="1"/>
        <pt x="284" y="14" on="0"/>
        <pt x="292" y="22" on="1"/>
        <pt x="483" y="234" on="1"/>
        <pt x="18" y="234" on="1"/>
        <pt x="-3" y="234" on="0"/>
        <pt x="0" y="264" on="1"/>
        <pt x="1" y="274" on="1"/>
        <pt x="4" y="304" on="0"/>
        <pt x="25" y="304" on="1"/>
        <pt x="487" y="304" on="1"/>
        <pt x="347" y="509" on="1"/>
        <pt x="343" y="514" on="0"/>
        <pt x="343" y="520" on="1"/>
        <pt x="343" y="530" on="0"/>
        <pt x="357" y="530" on="1"/>
        <pt x="406" y="530" on="1"/>
        <pt x="427" y="530" on="0"/>
        <pt x="436" y="516" on="1"/>
        <pt x="596" y="283" on="1"/>
      </contour>
    </TTGlyph>
    <TTGlyph name="arrowup" xMin="18" yMin="-4" xMax="520" yMax="708">
      <contour>
        <pt x="516" y="476" on="0"/>
        <pt x="520" y="464" on="0"/>
        <pt x="519" y="451" on="1"/>
        <pt x="513" y="399" on="1"/>
        <pt x="512" y="383" on="0"/>
        <pt x="503" y="383" on="1"/>
        <pt x="498" y="383" on="0"/>
        <pt x="491" y="390" on="1"/>
        <pt x="323" y="583" on="1"/>
        <pt x="263" y="18" on="1"/>
        <pt x="261" y="-4" on="0"/>
        <pt x="231" y="-4" on="1"/>
        <pt x="221" y="-4" on="1"/>
        <pt x="191" y="-4" on="0"/>
        <pt x="193" y="18" on="1"/>
        <pt x="253" y="584" on="1"/>
        <pt x="39" y="387" on="1"/>
        <pt x="33" y="381" on="0"/>
        <pt x="28" y="381" on="1"/>
        <pt x="23" y="381" on="0"/>
        <pt x="18" y="389" on="0"/>
        <pt x="19" y="396" on="1"/>
        <pt x="25" y="451" on="1"/>
        <pt x="26" y="463" on="0"/>
        <pt x="32" y="476" on="0"/>
        <pt x="42" y="485" on="1"/>
        <pt x="280" y="701" on="1"/>
        <pt x="288" y="708" on="0"/>
        <pt x="299" y="708" on="1"/>
        <pt x="305" y="708" on="0"/>
        <pt x="312" y="705" on="0"/>
        <pt x="316" y="701" on="1"/>
        <pt x="508" y="485" on="1"/>
      </contour>
    </TTGlyph>
    <TTGlyph name="asciicircum" xMin="43" yMin="320" xMax="332" yMax="684">
      <contour>
        <pt x="331" y="352" on="0"/>
        <pt x="332" y="345" on="0"/>
        <pt x="331" y="341" on="1"/>
        <pt x="329" y="320" on="0"/>
        <pt x="306" y="320" on="1"/>
        <pt x="298" y="320" on="1"/>
        <pt x="273" y="320" on="0"/>
        <pt x="269" y="343" on="1"/>
        <pt x="219" y="611" on="1"/>
        <pt x="109" y="343" on="1"/>
        <pt x="99" y="320" on="0"/>
        <pt x="75" y="320" on="1"/>
        <pt x="66" y="320" on="1"/>
        <pt x="43" y="320" on="0"/>
        <pt x="45" y="341" on="1"/>
        <pt x="48" y="352" on="0"/>
        <pt x="49" y="355" on="1"/>
        <pt x="183" y="664" on="1"/>
        <pt x="188" y="675" on="0"/>
        <pt x="203" y="684" on="0"/>
        <pt x="214" y="684" on="1"/>
        <pt x="234" y="684" on="1"/>
        <pt x="246" y="684" on="0"/>
        <pt x="259" y="675" on="0"/>
        <pt x="261" y="664" on="1"/>
        <pt x="331" y="355" on="1"/>
      </contour>
    </TTGlyph>
    <TTGlyph name="asciitilde" xMin="50" yMin="224" xMax="390" yMax="326">
      <contour>
        <pt x="283" y="225" on="0"/>
        <pt x="245" y="236" on="0"/>
        <pt x="211" y="248" on="1"/>
        <pt x="205" y="250" on="0"/>
        <pt x="168" y="263" on="0"/>
        <pt x="140" y="269" on="0"/>
        <pt x="130" y="269" on="1"/>
        <pt x="112" y="269" on="0"/>
        <pt x="93" y="239" on="1"/>
        <pt x="84" y="224" on="0"/>
        <pt x="75" y="224" on="1"/>
        <pt x="72" y="224" on="0"/>
        <pt x="67" y="227" on="1"/>
        <pt x="60" y="231" on="1"/>
        <pt x="51" y="235" on="0"/>
        <pt x="50" y="242" on="1"/>
        <pt x="50" y="248" on="0"/>
        <pt x="54" y="256" on="1"/>
        <pt x="69" y="293" on="0"/>
        <pt x="110" y="325" on="0"/>
        <pt x="140" y="325" on="1"/>
        <pt x="157" y="325" on="0"/>
        <pt x="195" y="314" on="0"/>
        <pt x="229" y="302" on="1"/>
        <pt x="235" y="300" on="0"/>
        <pt x="272" y="287" on="0"/>
        <pt x="300" y="281" on="0"/>
        <pt x="310" y="281" on="1"/>
        <pt x="328" y="281" on="0"/>
        <pt x="347" y="311" on="1"/>
        <pt x="356" y="326" on="0"/>
        <pt x="365" y="326" on="1"/>
        <pt x="368" y="326" on="0"/>
        <pt x="373" y="323" on="1"/>
        <pt x="380" y="319" on="1"/>
        <pt x="389" y="315" on="0"/>
        <pt x="390" y="308" on="1"/>
        <pt x="390" y="302" on="0"/>
        <pt x="386" y="294" on="1"/>
        <pt x="371" y="257" on="0"/>
        <pt x="330" y="225" on="0"/>
        <pt x="300" y="225" on="1"/>
      </contour>
    </TTGlyph>
    <TTGlyph name="asterisk" xMin="57" yMin="436" xMax="310" yMax="709">
      <contour>
        <pt x="87" y="436" on="0"/>
        <pt x="73" y="448" on="0"/>
        <pt x="74" y="455" on="1"/>
        <pt x="76" y="461" on="0"/>
        <pt x="81" y="468" on="1"/>
        <pt x="147" y="559" on="1"/>
        <pt x="70" y="591" on="1"/>
        <pt x="64" y="594" on="0"/>
        <pt x="57" y="600" on="0"/>
        <pt x="57" y="604" on="1"/>
        <pt x="57" y="615" on="0"/>
        <pt x="71" y="630" on="0"/>
        <pt x="78" y="630" on="1"/>
        <pt x="86" y="630" on="0"/>
        <pt x="89" y="627" on="1"/>
        <pt x="163" y="598" on="1"/>
        <pt x="173" y="689" on="1"/>
        <pt x="174" y="709" on="0"/>
        <pt x="195" y="709" on="1"/>
        <pt x="205" y="709" on="0"/>
        <pt x="214" y="700" on="0"/>
        <pt x="213" y="689" on="1"/>
        <pt x="203" y="598" on="1"/>
        <pt x="282" y="627" on="1"/>
        <pt x="287" y="630" on="0"/>
        <pt x="295" y="630" on="1"/>
        <pt x="301" y="630" on="0"/>
        <pt x="310" y="620" on="0"/>
        <pt x="310" y="611" on="1"/>
        <pt x="310" y="603" on="0"/>
        <pt x="304" y="595" on="0"/>
        <pt x="295" y="591" on="1"/>
        <pt x="209" y="559" on="1"/>
        <pt x="258" y="468" on="1"/>
        <pt x="262" y="458" on="0"/>
        <pt x="261" y="455" on="1"/>
        <pt x="260" y="448" on="0"/>
        <pt x="244" y="436" on="0"/>
        <pt x="236" y="436" on="1"/>
        <pt x="228" y="436" on="0"/>
        <pt x="222" y="445" on="1"/>
        <pt x="176" y="531" on="1"/>
        <pt x="111" y="445" on="1"/>
        <pt x="105" y="436" on="0"/>
        <pt x="95" y="436" on="1"/>
      </contour>
    </TTGlyph>
    <TTGlyph name="at" xMin="55" yMin="-126" xMax="727" yMax="705">
      <contour>
        <pt x="527" y="705" on="0"/>
        <pt x="656" y="625" on="0"/>
        <pt x="727" y="475" on="0"/>
        <pt x="727" y="375" on="1"/>
        <pt x="727" y="286" on="0"/>
        <pt x="678" y="139" on="0"/>
        <pt x="591" y="54" on="0"/>
        <pt x="535" y="54" on="1"/>
        <pt x="498" y="54" on="0"/>
        <pt x="454" y="93" on="0"/>
        <pt x="451" y="131" on="1"/>
        <pt x="409" y="54" on="0"/>
        <pt x="337" y="54" on="1"/>
        <pt x="309" y="54" on="0"/>
        <pt x="255" y="87" on="0"/>
        <pt x="217" y="168" on="0"/>
        <pt x="217" y="236" on="1"/>
        <pt x="217" y="314" on="0"/>
        <pt x="261" y="436" on="0"/>
        <pt x="342" y="505" on="0"/>
        <pt x="395" y="505" on="1"/>
        <pt x="425" y="505" on="0"/>
        <pt x="472" y="478" on="0"/>
        <pt x="486" y="461" on="1"/>
        <pt x="495" y="488" on="0"/>
        <pt x="505" y="502" on="0"/>
        <pt x="520" y="502" on="1"/>
        <pt x="526" y="502" on="1"/>
        <pt x="548" y="502" on="0"/>
        <pt x="548" y="481" on="1"/>
        <pt x="539" y="375" on="1"/>
        <pt x="521" y="170" on="0"/>
        <pt x="521" y="146" on="1"/>
        <pt x="521" y="122" on="0"/>
        <pt x="543" y="107" on="0"/>
        <pt x="555" y="107" on="1"/>
        <pt x="585" y="107" on="0"/>
        <pt x="640" y="184" on="0"/>
        <pt x="673" y="309" on="0"/>
        <pt x="673" y="378" on="1"/>
        <pt x="673" y="463" on="0"/>
        <pt x="615" y="592" on="0"/>
        <pt x="509" y="661" on="0"/>
        <pt x="439" y="661" on="1"/>
        <pt x="348" y="661" on="0"/>
        <pt x="197" y="548" on="0"/>
        <pt x="109" y="354" on="0"/>
        <pt x="109" y="236" on="1"/>
        <pt x="109" y="142" on="0"/>
        <pt x="166" y="-2" on="0"/>
        <pt x="270" y="-82" on="0"/>
        <pt x="338" y="-82" on="1"/>
        <pt x="371" y="-82" on="0"/>
        <pt x="415" y="-71" on="0"/>
        <pt x="439" y="-61" on="1"/>
        <pt x="457" y="-53" on="0"/>
        <pt x="464" y="-53" on="1"/>
        <pt x="478" y="-53" on="0"/>
        <pt x="478" y="-76" on="1"/>
        <pt x="478" y="-102" on="0"/>
        <pt x="381" y="-126" on="0"/>
        <pt x="334" y="-126" on="1"/>
        <pt x="252" y="-126" on="0"/>
        <pt x="125" y="-34" on="0"/>
        <pt x="55" y="131" on="0"/>
        <pt x="55" y="237" on="1"/>
        <pt x="55" y="366" on="0"/>
        <pt x="157" y="581" on="0"/>
        <pt x="334" y="705" on="0"/>
        <pt x="442" y="705" on="1"/>
      </contour>
      <contour>
        <pt x="457" y="279" on="0"/>
        <pt x="468" y="396" on="0"/>
        <pt x="473" y="413" on="1"/>
        <pt x="441" y="443" on="0"/>
        <pt x="403" y="443" on="1"/>
        <pt x="341" y="443" on="0"/>
        <pt x="290" y="329" on="0"/>
        <pt x="290" y="241" on="1"/>
        <pt x="290" y="174" on="0"/>
        <pt x="327" y="115" on="0"/>
        <pt x="358" y="115" on="1"/>
        <pt x="383" y="115" on="0"/>
        <pt x="435" y="166" on="0"/>
        <pt x="454" y="225" on="1"/>
      </contour>
    </TTGlyph>
    <TTGlyph name="atilde" xMin="44" yMin="-7" xMax="450" yMax="691">
      <component glyphName="a" x="0" y="0" flags="0x0"/>
      <component glyphName="tilde" x="110" y="0" flags="0x0"/>
    </TTGlyph>
    <TTGlyph name="b" xMin="43" yMin="-6" xMax="432" yMax="752">
      <contour>
        <pt x="208" y="-6" on="0"/>
        <pt x="151" y="32" on="0"/>
        <pt x="131" y="69" on="1"/>
        <pt x="115" y="10" on="1"/>
        <pt x="108" y="-2" on="0"/>
        <pt x="83" y="-2" on="1"/>
        <pt x="77" y="-2" on="1"/>
        <pt x="43" y="-2" on="0"/>
        <pt x="46" y="20" on="1"/>
        <pt x="121" y="730" on="1"/>
        <pt x="123" y="752" on="0"/>
        <pt x="161" y="752" on="1"/>
        <pt x="172" y="752" on="1"/>
        <pt x="209" y="752" on="0"/>
        <pt x="207" y="730" on="1"/>
        <pt x="180" y="478" on="1"/>
        <pt x="205" y="503" on="0"/>
        <pt x="256" y="529" on="0"/>
        <pt x="291" y="529" on="1"/>
        <pt x="356" y="529" on="0"/>
        <pt x="432" y="421" on="0"/>
        <pt x="432" y="322" on="1"/>
        <pt x="432" y="295" on="0"/>
        <pt x="429" y="265" on="1"/>
        <pt x="421" y="185" on="0"/>
        <pt x="369" y="62" on="0"/>
        <pt x="290" y="-6" on="0"/>
        <pt x="243" y="-6" on="1"/>
      </contour>
      <contour>
        <pt x="273" y="67" on="0"/>
        <pt x="329" y="171" on="0"/>
        <pt x="339" y="266" on="1"/>
        <pt x="342" y="298" on="0"/>
        <pt x="342" y="325" on="1"/>
        <pt x="342" y="455" on="0"/>
        <pt x="263" y="455" on="1"/>
        <pt x="212" y="455" on="0"/>
        <pt x="173" y="410" on="1"/>
        <pt x="144" y="136" on="1"/>
        <pt x="160" y="103" on="0"/>
        <pt x="205" y="67" on="0"/>
        <pt x="230" y="67" on="1"/>
      </contour>
    </TTGlyph>
    <TTGlyph name="backslash" xMin="57" yMin="-20" xMax="266" yMax="702">
      <contour>
        <pt x="207" y="-20" on="0"/>
        <pt x="204" y="1" on="1"/>
        <pt x="59" y="668" on="1"/>
        <pt x="57" y="677" on="0"/>
        <pt x="57" y="684" on="1"/>
        <pt x="60" y="702" on="0"/>
        <pt x="81" y="702" on="1"/>
        <pt x="92" y="702" on="1"/>
        <pt x="115" y="702" on="0"/>
        <pt x="119" y="681" on="1"/>
        <pt x="265" y="11" on="1"/>
        <pt x="265" y="9" on="0"/>
        <pt x="266" y="1" on="0"/>
        <pt x="265" y="-2" on="1"/>
        <pt x="264" y="-10" on="0"/>
        <pt x="251" y="-20" on="0"/>
        <pt x="240" y="-20" on="1"/>
        <pt x="229" y="-20" on="1"/>
      </contour>
    </TTGlyph>
    <TTGlyph name="bar" xMin="29" yMin="-140" xMax="183" yMax="770">
      <contour>
        <pt x="183" y="770" on="0"/>
        <pt x="180" y="748" on="1"/>
        <pt x="89" y="-118" on="1"/>
        <pt x="87" y="-140" on="0"/>
        <pt x="63" y="-140" on="1"/>
        <pt x="53" y="-140" on="1"/>
        <pt x="29" y="-140" on="0"/>
        <pt x="31" y="-118" on="1"/>
        <pt x="122" y="748" on="1"/>
        <pt x="125" y="770" on="0"/>
        <pt x="148" y="770" on="1"/>
        <pt x="158" y="770" on="1"/>
      </contour>
    </TTGlyph>
    <TTGlyph name="baraccent" xMin="48" yMin="285" xMax="286" yMax="355">
      <component glyphName="macron" x="0" y="-327" flags="0x4"/>
    </TTGlyph>
    <TTGlyph name="baraccentlong" xMin="-57" yMin="285" xMax="581" yMax="356">
      <contour>
        <pt x="574" y="356" on="0"/>
        <pt x="581" y="343" on="0"/>
        <pt x="581" y="330" on="1"/>
        <pt x="581" y="285" on="0"/>
        <pt x="556" y="285" on="1"/>
        <pt x="-40" y="285" on="1"/>
        <pt x="-50" y="285" on="0"/>
        <pt x="-57" y="299" on="0"/>
        <pt x="-57" y="312" on="1"/>
        <pt x="-57" y="356" on="0"/>
        <pt x="-32" y="356" on="1"/>
        <pt x="564" y="356" on="1"/>
      </contour>
    </TTGlyph>
    <TTGlyph name="baraccentmedium" xMin="3" yMin="285" xMax="411" yMax="356">
      <contour>
        <pt x="404" y="356" on="0"/>
        <pt x="411" y="343" on="0"/>
        <pt x="411" y="330" on="1"/>
        <pt x="411" y="285" on="0"/>
        <pt x="386" y="285" on="1"/>
        <pt x="20" y="285" on="1"/>
        <pt x="10" y="285" on="0"/>
        <pt x="3" y="299" on="0"/>
        <pt x="3" y="312" on="1"/>
        <pt x="3" y="356" on="0"/>
        <pt x="28" y="356" on="1"/>
        <pt x="394" y="356" on="1"/>
      </contour>
    </TTGlyph>
    <TTGlyph name="braceleft" xMin="28" yMin="-138" xMax="288" yMax="768">
      <contour>
        <pt x="105" y="-138" on="0"/>
        <pt x="63" y="-96" on="0"/>
        <pt x="63" y="-46" on="1"/>
        <pt x="63" y="-31" on="0"/>
        <pt x="64" y="-22" on="1"/>
        <pt x="83" y="156" on="1"/>
        <pt x="86" y="180" on="0"/>
        <pt x="86" y="199" on="1"/>
        <pt x="86" y="228" on="0"/>
        <pt x="70" y="265" on="0"/>
        <pt x="50" y="274" on="1"/>
        <pt x="38" y="280" on="0"/>
        <pt x="28" y="295" on="0"/>
        <pt x="29" y="308" on="1"/>
        <pt x="30" y="322" on="1"/>
        <pt x="31" y="335" on="0"/>
        <pt x="46" y="350" on="0"/>
        <pt x="59" y="356" on="1"/>
        <pt x="88" y="369" on="0"/>
        <pt x="111" y="423" on="0"/>
        <pt x="116" y="474" on="1"/>
        <pt x="135" y="652" on="1"/>
        <pt x="142" y="715" on="0"/>
        <pt x="198" y="768" on="0"/>
        <pt x="225" y="768" on="1"/>
        <pt x="270" y="768" on="1"/>
        <pt x="281" y="768" on="0"/>
        <pt x="288" y="755" on="0"/>
        <pt x="287" y="739" on="1"/>
        <pt x="287" y="735" on="1"/>
        <pt x="286" y="719" on="0"/>
        <pt x="275" y="706" on="0"/>
        <pt x="264" y="706" on="1"/>
        <pt x="247" y="706" on="1"/>
        <pt x="227" y="706" on="0"/>
        <pt x="209" y="676" on="0"/>
        <pt x="206" y="645" on="1"/>
        <pt x="187" y="458" on="1"/>
        <pt x="181" y="400" on="0"/>
        <pt x="126" y="331" on="0"/>
        <pt x="100" y="314" on="1"/>
        <pt x="117" y="305" on="0"/>
        <pt x="158" y="244" on="0"/>
        <pt x="158" y="193" on="1"/>
        <pt x="158" y="179" on="0"/>
        <pt x="157" y="172" on="1"/>
        <pt x="137" y="-14" on="1"/>
        <pt x="136" y="-22" on="0"/>
        <pt x="136" y="-36" on="1"/>
        <pt x="136" y="-56" on="0"/>
        <pt x="149" y="-76" on="0"/>
        <pt x="165" y="-76" on="1"/>
        <pt x="182" y="-76" on="1"/>
        <pt x="199" y="-76" on="0"/>
        <pt x="199" y="-95" on="1"/>
        <pt x="199" y="-101" on="0"/>
        <pt x="198" y="-105" on="1"/>
        <pt x="198" y="-109" on="1"/>
        <pt x="197" y="-125" on="0"/>
        <pt x="186" y="-138" on="0"/>
        <pt x="175" y="-138" on="1"/>
        <pt x="130" y="-138" on="1"/>
      </contour>
    </TTGlyph>
    <TTGlyph name="braceright" xMin="-22" yMin="-138" xMax="238" yMax="768">
      <contour>
        <pt x="-15" y="-138" on="0"/>
        <pt x="-22" y="-125" on="0"/>
        <pt x="-21" y="-109" on="1"/>
        <pt x="-21" y="-105" on="1"/>
        <pt x="-19" y="-89" on="0"/>
        <pt x="-8" y="-76" on="0"/>
        <pt x="3" y="-76" on="1"/>
        <pt x="19" y="-76" on="1"/>
        <pt x="39" y="-76" on="0"/>
        <pt x="56" y="-46" on="0"/>
        <pt x="59" y="-14" on="1"/>
        <pt x="79" y="172" on="1"/>
        <pt x="83" y="214" on="0"/>
        <pt x="117" y="276" on="0"/>
        <pt x="155" y="309" on="0"/>
        <pt x="167" y="314" on="1"/>
        <pt x="146" y="329" on="0"/>
        <pt x="108" y="387" on="0"/>
        <pt x="108" y="436" on="1"/>
        <pt x="108" y="450" on="0"/>
        <pt x="109" y="458" on="1"/>
        <pt x="128" y="645" on="1"/>
        <pt x="129" y="654" on="0"/>
        <pt x="129" y="668" on="1"/>
        <pt x="129" y="688" on="0"/>
        <pt x="117" y="706" on="0"/>
        <pt x="101" y="706" on="1"/>
        <pt x="85" y="706" on="1"/>
        <pt x="74" y="706" on="0"/>
        <pt x="67" y="719" on="0"/>
        <pt x="68" y="735" on="1"/>
        <pt x="68" y="739" on="1"/>
        <pt x="69" y="755" on="0"/>
        <pt x="80" y="768" on="0"/>
        <pt x="91" y="768" on="1"/>
        <pt x="135" y="768" on="1"/>
        <pt x="159" y="768" on="0"/>
        <pt x="202" y="726" on="0"/>
        <pt x="202" y="676" on="1"/>
        <pt x="202" y="660" on="0"/>
        <pt x="201" y="652" on="1"/>
        <pt x="182" y="474" on="1"/>
        <pt x="180" y="444" on="0"/>
        <pt x="180" y="432" on="1"/>
        <pt x="180" y="402" on="0"/>
        <pt x="196" y="366" on="0"/>
        <pt x="216" y="356" on="1"/>
        <pt x="228" y="350" on="0"/>
        <pt x="238" y="335" on="0"/>
        <pt x="237" y="322" on="1"/>
        <pt x="236" y="308" on="1"/>
        <pt x="235" y="295" on="0"/>
        <pt x="220" y="280" on="0"/>
        <pt x="207" y="274" on="1"/>
        <pt x="178" y="261" on="0"/>
        <pt x="154" y="206" on="0"/>
        <pt x="149" y="156" on="1"/>
        <pt x="130" y="-22" on="1"/>
        <pt x="123" y="-86" on="0"/>
        <pt x="68" y="-138" on="0"/>
        <pt x="40" y="-138" on="1"/>
        <pt x="-4" y="-138" on="1"/>
      </contour>
    </TTGlyph>
    <TTGlyph name="bracketleft" xMin="4" yMin="-138" xMax="245" yMax="768">
      <contour>
        <pt x="16" y="-138" on="0"/>
        <pt x="4" y="-124" on="0"/>
        <pt x="6" y="-108" on="1"/>
        <pt x="95" y="738" on="1"/>
        <pt x="97" y="754" on="0"/>
        <pt x="111" y="768" on="0"/>
        <pt x="125" y="768" on="1"/>
        <pt x="227" y="768" on="1"/>
        <pt x="237" y="768" on="0"/>
        <pt x="245" y="755" on="0"/>
        <pt x="243" y="739" on="1"/>
        <pt x="243" y="734" on="1"/>
        <pt x="241" y="718" on="0"/>
        <pt x="231" y="705" on="0"/>
        <pt x="221" y="705" on="1"/>
        <pt x="164" y="705" on="1"/>
        <pt x="82" y="-76" on="1"/>
        <pt x="139" y="-76" on="1"/>
        <pt x="155" y="-76" on="0"/>
        <pt x="155" y="-94" on="1"/>
        <pt x="155" y="-101" on="0"/>
        <pt x="154" y="-105" on="1"/>
        <pt x="154" y="-109" on="1"/>
        <pt x="152" y="-125" on="0"/>
        <pt x="142" y="-138" on="0"/>
        <pt x="132" y="-138" on="1"/>
        <pt x="30" y="-138" on="1"/>
      </contour>
    </TTGlyph>
    <TTGlyph name="bracketright" xMin="5" yMin="-138" xMax="244" yMax="768">
      <contour>
        <pt x="12" y="-138" on="0"/>
        <pt x="5" y="-125" on="0"/>
        <pt x="6" y="-109" on="1"/>
        <pt x="6" y="-105" on="1"/>
        <pt x="8" y="-89" on="0"/>
        <pt x="19" y="-76" on="0"/>
        <pt x="29" y="-76" on="1"/>
        <pt x="87" y="-76" on="1"/>
        <pt x="169" y="705" on="1"/>
        <pt x="111" y="705" on="1"/>
        <pt x="94" y="705" on="0"/>
        <pt x="94" y="724" on="1"/>
        <pt x="94" y="730" on="0"/>
        <pt x="95" y="734" on="1"/>
        <pt x="95" y="739" on="1"/>
        <pt x="96" y="754" on="0"/>
        <pt x="107" y="768" on="0"/>
        <pt x="117" y="768" on="1"/>
        <pt x="220" y="768" on="1"/>
        <pt x="234" y="768" on="0"/>
        <pt x="244" y="754" on="0"/>
        <pt x="243" y="738" on="1"/>
        <pt x="154" y="-108" on="1"/>
        <pt x="153" y="-124" on="0"/>
        <pt x="139" y="-138" on="0"/>
        <pt x="125" y="-138" on="1"/>
        <pt x="22" y="-138" on="1"/>
      </contour>
    </TTGlyph>
    <TTGlyph name="breve" xMin="55" yMin="585" xMax="291" yMax="715">
      <contour>
        <pt x="115" y="585" on="0"/>
        <pt x="55" y="637" on="0"/>
        <pt x="55" y="684" on="1"/>
        <pt x="55" y="695" on="0"/>
        <pt x="56" y="700" on="1"/>
        <pt x="58" y="715" on="0"/>
        <pt x="76" y="715" on="1"/>
        <pt x="83" y="715" on="0"/>
        <pt x="89" y="707" on="0"/>
        <pt x="93" y="694" on="0"/>
        <pt x="94" y="690" on="1"/>
        <pt x="105" y="651" on="0"/>
        <pt x="168" y="651" on="1"/>
        <pt x="231" y="651" on="0"/>
        <pt x="250" y="690" on="1"/>
        <pt x="252" y="693" on="0"/>
        <pt x="259" y="709" on="0"/>
        <pt x="267" y="715" on="0"/>
        <pt x="273" y="715" on="1"/>
        <pt x="291" y="715" on="0"/>
        <pt x="289" y="700" on="1"/>
        <pt x="283" y="645" on="0"/>
        <pt x="210" y="585" on="0"/>
        <pt x="161" y="585" on="1"/>
      </contour>
    </TTGlyph>
    <TTGlyph name="brokenbar" xMin="31" yMin="-140" xMax="180" yMax="770">
      <contour>
        <pt x="170" y="770" on="0"/>
        <pt x="180" y="759" on="0"/>
        <pt x="180" y="748" on="1"/>
        <pt x="180" y="743" on="0"/>
        <pt x="165" y="599" on="1"/>
        <pt x="146" y="425" on="1"/>
        <pt x="143" y="403" on="0"/>
        <pt x="120" y="403" on="1"/>
        <pt x="110" y="403" on="1"/>
        <pt x="97" y="403" on="0"/>
        <pt x="88" y="414" on="0"/>
        <pt x="88" y="425" on="1"/>
        <pt x="90" y="446" on="0"/>
        <pt x="99" y="534" on="0"/>
        <pt x="104" y="583" on="1"/>
        <pt x="111" y="640" on="0"/>
        <pt x="119" y="723" on="0"/>
        <pt x="122" y="748" on="1"/>
        <pt x="124" y="770" on="0"/>
        <pt x="148" y="770" on="1"/>
        <pt x="158" y="770" on="1"/>
      </contour>
      <contour>
        <pt x="113" y="226" on="0"/>
        <pt x="123" y="215" on="0"/>
        <pt x="123" y="204" on="1"/>
        <pt x="123" y="206" on="0"/>
        <pt x="107" y="46" on="1"/>
        <pt x="110" y="69" on="0"/>
        <pt x="89" y="-118" on="1"/>
        <pt x="86" y="-140" on="0"/>
        <pt x="63" y="-140" on="1"/>
        <pt x="53" y="-140" on="1"/>
        <pt x="40" y="-140" on="0"/>
        <pt x="31" y="-129" on="0"/>
        <pt x="31" y="-118" on="1"/>
        <pt x="31" y="-108" on="0"/>
        <pt x="48" y="47" on="1"/>
        <pt x="66" y="217" on="0"/>
        <pt x="65" y="204" on="1"/>
        <pt x="67" y="226" on="0"/>
        <pt x="91" y="226" on="1"/>
        <pt x="101" y="226" on="1"/>
      </contour>
    </TTGlyph>
    <TTGlyph name="bullet" xMin="40" yMin="203" xMax="272" yMax="450">
      <contour>
        <pt x="97" y="203" on="0"/>
        <pt x="40" y="256" on="0"/>
        <pt x="40" y="306" on="1"/>
        <pt x="40" y="376" on="0"/>
        <pt x="114" y="450" on="0"/>
        <pt x="169" y="450" on="1"/>
        <pt x="215" y="450" on="0"/>
        <pt x="272" y="397" on="0"/>
        <pt x="272" y="346" on="1"/>
        <pt x="272" y="276" on="0"/>
        <pt x="198" y="203" on="0"/>
        <pt x="143" y="203" on="1"/>
      </contour>
    </TTGlyph>
    <TTGlyph name="c" xMin="42" yMin="-6" xMax="403" yMax="529">
      <contour>
        <pt x="134" y="-6" on="0"/>
        <pt x="42" y="91" on="0"/>
        <pt x="42" y="198" on="1"/>
        <pt x="42" y="216" on="0"/>
        <pt x="46" y="264" on="1"/>
        <pt x="61" y="411" on="0"/>
        <pt x="183" y="529" on="0"/>
        <pt x="281" y="529" on="1"/>
        <pt x="327" y="529" on="0"/>
        <pt x="403" y="501" on="0"/>
        <pt x="401" y="483" on="1"/>
        <pt x="400" y="471" on="0"/>
        <pt x="373" y="429" on="0"/>
        <pt x="365" y="429" on="1"/>
        <pt x="364" y="429" on="0"/>
        <pt x="354" y="433" on="1"/>
        <pt x="315" y="457" on="0"/>
        <pt x="276" y="457" on="1"/>
        <pt x="216" y="457" on="0"/>
        <pt x="148" y="368" on="0"/>
        <pt x="137" y="266" on="1"/>
        <pt x="133" y="220" on="0"/>
        <pt x="133" y="202" on="1"/>
        <pt x="133" y="131" on="0"/>
        <pt x="182" y="66" on="0"/>
        <pt x="237" y="66" on="1"/>
        <pt x="283" y="66" on="0"/>
        <pt x="323" y="88" on="1"/>
        <pt x="327" y="90" on="0"/>
        <pt x="334" y="95" on="0"/>
        <pt x="337" y="96" on="1"/>
        <pt x="347" y="96" on="0"/>
        <pt x="366" y="57" on="0"/>
        <pt x="364" y="45" on="1"/>
        <pt x="363" y="34" on="0"/>
        <pt x="318" y="10" on="0"/>
        <pt x="254" y="-6" on="0"/>
        <pt x="228" y="-6" on="1"/>
      </contour>
    </TTGlyph>
    <TTGlyph name="cacute" xMin="42" yMin="-6" xMax="401" yMax="732">
      <component glyphName="c" x="0" y="0" flags="0x0"/>
      <component glyphName="acute" x="176" y="0" flags="0x0"/>
    </TTGlyph>
    <TTGlyph name="cacute.loclPLK" xMin="42" yMin="-6" xMax="401" yMax="732">
      <component glyphName="c" x="0" y="0" flags="0x0"/>
      <component glyphName="acute.loclPLK" x="173" y="0" flags="0x0"/>
    </TTGlyph>
    <TTGlyph name="caron" xMin="64" yMin="583" xMax="282" yMax="725">
      <contour>
        <pt x="124" y="583" on="0"/>
        <pt x="112" y="605" on="1"/>
        <pt x="69" y="693" on="1"/>
        <pt x="64" y="706" on="0"/>
        <pt x="64" y="711" on="1"/>
        <pt x="65" y="717" on="0"/>
        <pt x="76" y="725" on="0"/>
        <pt x="85" y="725" on="1"/>
        <pt x="104" y="725" on="1"/>
        <pt x="119" y="725" on="0"/>
        <pt x="128" y="710" on="1"/>
        <pt x="165" y="638" on="1"/>
        <pt x="217" y="710" on="1"/>
        <pt x="228" y="725" on="0"/>
        <pt x="244" y="725" on="1"/>
        <pt x="264" y="725" on="1"/>
        <pt x="273" y="725" on="0"/>
        <pt x="282" y="717" on="0"/>
        <pt x="281" y="710" on="1"/>
        <pt x="281" y="705" on="0"/>
        <pt x="273" y="693" on="1"/>
        <pt x="210" y="605" on="1"/>
        <pt x="195" y="583" on="0"/>
        <pt x="167" y="583" on="1"/>
        <pt x="152" y="583" on="1"/>
      </contour>
    </TTGlyph>
    <TTGlyph name="caron.alt" xMin="79" yMin="526" xMax="181" yMax="700">
      <contour>
        <pt x="97" y="526" on="0"/>
        <pt x="79" y="533" on="0"/>
        <pt x="79" y="541" on="1"/>
        <pt x="79" y="547" on="0"/>
        <pt x="83" y="569" on="1"/>
        <pt x="92" y="619" on="0"/>
        <pt x="92" y="668" on="1"/>
        <pt x="92" y="683" on="0"/>
        <pt x="112" y="700" on="0"/>
        <pt x="132" y="700" on="1"/>
        <pt x="141" y="700" on="1"/>
        <pt x="160" y="700" on="0"/>
        <pt x="181" y="685" on="0"/>
        <pt x="181" y="672" on="1"/>
        <pt x="181" y="630" on="0"/>
        <pt x="156" y="563" on="0"/>
        <pt x="121" y="526" on="0"/>
        <pt x="108" y="526" on="1"/>
      </contour>
    </TTGlyph>
    <TTGlyph name="ccaron" xMin="42" yMin="-6" xMax="401" yMax="725">
      <component glyphName="c" x="0" y="0" flags="0x0"/>
      <component glyphName="caron" x="113" y="0" flags="0x0"/>
    </TTGlyph>
    <TTGlyph name="ccedilla" xMin="42" yMin="-210" xMax="403" yMax="529">
      <contour>
        <pt x="327" y="529" on="0"/>
        <pt x="403" y="501" on="0"/>
        <pt x="401" y="483" on="1"/>
        <pt x="400" y="471" on="0"/>
        <pt x="373" y="429" on="0"/>
        <pt x="365" y="429" on="1"/>
        <pt x="364" y="429" on="0"/>
        <pt x="354" y="433" on="1"/>
        <pt x="315" y="457" on="0"/>
        <pt x="276" y="457" on="1"/>
        <pt x="216" y="457" on="0"/>
        <pt x="148" y="368" on="0"/>
        <pt x="137" y="266" on="1"/>
        <pt x="133" y="220" on="0"/>
        <pt x="133" y="202" on="1"/>
        <pt x="133" y="131" on="0"/>
        <pt x="182" y="66" on="0"/>
        <pt x="237" y="66" on="1"/>
        <pt x="283" y="66" on="0"/>
        <pt x="323" y="88" on="1"/>
        <pt x="327" y="90" on="0"/>
        <pt x="334" y="95" on="0"/>
        <pt x="337" y="96" on="1"/>
        <pt x="347" y="96" on="0"/>
        <pt x="366" y="57" on="0"/>
        <pt x="364" y="45" on="1"/>
        <pt x="363" y="30" on="0"/>
        <pt x="281" y="-3" on="0"/>
        <pt x="239" y="-6" on="1"/>
        <pt x="224" y="-60" on="1"/>
        <pt x="251" y="-60" on="0"/>
        <pt x="298" y="-89" on="0"/>
        <pt x="298" y="-127" on="1"/>
        <pt x="298" y="-210" on="0"/>
        <pt x="202" y="-210" on="1"/>
        <pt x="170" y="-210" on="0"/>
        <pt x="108" y="-186" on="0"/>
        <pt x="108" y="-167" on="1"/>
        <pt x="108" y="-158" on="0"/>
        <pt x="120" y="-141" on="0"/>
        <pt x="127" y="-141" on="1"/>
        <pt x="134" y="-141" on="0"/>
        <pt x="150" y="-148" on="1"/>
        <pt x="176" y="-161" on="0"/>
        <pt x="196" y="-161" on="1"/>
        <pt x="210" y="-161" on="0"/>
        <pt x="232" y="-146" on="0"/>
        <pt x="232" y="-132" on="1"/>
        <pt x="232" y="-117" on="0"/>
        <pt x="215" y="-103" on="0"/>
        <pt x="199" y="-98" on="1"/>
        <pt x="188" y="-94" on="0"/>
        <pt x="177" y="-86" on="0"/>
        <pt x="177" y="-79" on="1"/>
        <pt x="177" y="-72" on="0"/>
        <pt x="186" y="-40" on="0"/>
        <pt x="198" y="-5" on="1"/>
        <pt x="119" y="3" on="0"/>
        <pt x="42" y="100" on="0"/>
        <pt x="42" y="197" on="1"/>
        <pt x="42" y="232" on="0"/>
        <pt x="46" y="264" on="1"/>
        <pt x="61" y="411" on="0"/>
        <pt x="183" y="529" on="0"/>
        <pt x="281" y="529" on="1"/>
      </contour>
    </TTGlyph>
    <TTGlyph name="ccircumflex" xMin="42" yMin="-6" xMax="401" yMax="718">
      <component glyphName="c" x="0" y="0" flags="0x0"/>
      <component glyphName="circumflex" x="111" y="0" flags="0x0"/>
    </TTGlyph>
    <TTGlyph name="cdotaccent" xMin="42" yMin="-6" xMax="401" yMax="702">
      <component glyphName="c" x="0" y="0" flags="0x0"/>
      <component glyphName="dotaccent" x="108" y="0" flags="0x0"/>
    </TTGlyph>
    <TTGlyph name="cedilla" xMin="31" yMin="-210" xMax="221" yMax="0">
      <contour>
        <pt x="174" y="-60" on="0"/>
        <pt x="221" y="-89" on="0"/>
        <pt x="221" y="-127" on="1"/>
        <pt x="221" y="-210" on="0"/>
        <pt x="125" y="-210" on="1"/>
        <pt x="93" y="-210" on="0"/>
        <pt x="31" y="-186" on="0"/>
        <pt x="31" y="-167" on="1"/>
        <pt x="31" y="-158" on="0"/>
        <pt x="43" y="-141" on="0"/>
        <pt x="50" y="-141" on="1"/>
        <pt x="57" y="-141" on="0"/>
        <pt x="73" y="-148" on="1"/>
        <pt x="99" y="-161" on="0"/>
        <pt x="119" y="-161" on="1"/>
        <pt x="133" y="-161" on="0"/>
        <pt x="155" y="-146" on="0"/>
        <pt x="155" y="-132" on="1"/>
        <pt x="155" y="-117" on="0"/>
        <pt x="138" y="-103" on="0"/>
        <pt x="122" y="-98" on="1"/>
        <pt x="111" y="-94" on="0"/>
        <pt x="100" y="-86" on="0"/>
        <pt x="100" y="-79" on="1"/>
        <pt x="100" y="-72" on="0"/>
        <pt x="110" y="-38" on="0"/>
        <pt x="123" y="0" on="1"/>
        <pt x="164" y="0" on="1"/>
        <pt x="147" y="-60" on="1"/>
      </contour>
    </TTGlyph>
    <TTGlyph name="cent" xMin="42" yMin="-71" xMax="403" yMax="578">
      <contour>
        <pt x="327" y="529" on="0"/>
        <pt x="403" y="501" on="0"/>
        <pt x="401" y="483" on="1"/>
        <pt x="400" y="471" on="0"/>
        <pt x="373" y="429" on="0"/>
        <pt x="365" y="429" on="1"/>
        <pt x="364" y="429" on="0"/>
        <pt x="354" y="433" on="1"/>
        <pt x="315" y="457" on="0"/>
        <pt x="276" y="457" on="1"/>
        <pt x="270" y="457" on="1"/>
        <pt x="229" y="66" on="1"/>
        <pt x="237" y="66" on="1"/>
        <pt x="283" y="66" on="0"/>
        <pt x="323" y="88" on="1"/>
        <pt x="327" y="90" on="0"/>
        <pt x="334" y="95" on="0"/>
        <pt x="337" y="96" on="1"/>
        <pt x="347" y="96" on="0"/>
        <pt x="366" y="57" on="0"/>
        <pt x="364" y="45" on="1"/>
        <pt x="363" y="34" on="0"/>
        <pt x="318" y="10" on="0"/>
        <pt x="254" y="-6" on="0"/>
        <pt x="228" y="-6" on="1"/>
        <pt x="221" y="-6" on="1"/>
        <pt x="216" y="-51" on="1"/>
        <pt x="213" y="-71" on="0"/>
        <pt x="196" y="-71" on="1"/>
        <pt x="194" y="-71" on="1"/>
        <pt x="183" y="-71" on="0"/>
        <pt x="176" y="-62" on="0"/>
        <pt x="176" y="-51" on="1"/>
        <pt x="181" y="-3" on="1"/>
        <pt x="111" y="8" on="0"/>
        <pt x="42" y="105" on="0"/>
        <pt x="42" y="197" on="1"/>
        <pt x="42" y="232" on="0"/>
        <pt x="46" y="264" on="1"/>
        <pt x="59" y="394" on="0"/>
        <pt x="158" y="515" on="0"/>
        <pt x="238" y="526" on="1"/>
        <pt x="241" y="558" on="1"/>
        <pt x="242" y="578" on="0"/>
        <pt x="261" y="578" on="1"/>
        <pt x="263" y="578" on="1"/>
        <pt x="273" y="578" on="0"/>
        <pt x="281" y="569" on="0"/>
        <pt x="281" y="558" on="1"/>
        <pt x="278" y="529" on="1"/>
        <pt x="281" y="529" on="1"/>
      </contour>
      <contour>
        <pt x="229" y="449" on="1"/>
        <pt x="192" y="434" on="0"/>
        <pt x="146" y="346" on="0"/>
        <pt x="137" y="266" on="1"/>
        <pt x="133" y="220" on="0"/>
        <pt x="133" y="203" on="1"/>
        <pt x="133" y="149" on="0"/>
        <pt x="160" y="87" on="0"/>
        <pt x="189" y="74" on="1"/>
      </contour>
    </TTGlyph>
    <TTGlyph name="circumflex" xMin="51" yMin="576" xMax="269" yMax="718">
      <contour>
        <pt x="60" y="576" on="0"/>
        <pt x="51" y="583" on="0"/>
        <pt x="51" y="589" on="1"/>
        <pt x="52" y="593" on="0"/>
        <pt x="59" y="605" on="0"/>
        <pt x="60" y="608" on="1"/>
        <pt x="122" y="696" on="1"/>
        <pt x="138" y="718" on="0"/>
        <pt x="166" y="718" on="1"/>
        <pt x="181" y="718" on="1"/>
        <pt x="207" y="718" on="0"/>
        <pt x="220" y="696" on="1"/>
        <pt x="264" y="608" on="1"/>
        <pt x="269" y="598" on="0"/>
        <pt x="269" y="591" on="1"/>
        <pt x="268" y="584" on="0"/>
        <pt x="257" y="576" on="0"/>
        <pt x="248" y="576" on="1"/>
        <pt x="228" y="576" on="1"/>
        <pt x="213" y="576" on="0"/>
        <pt x="205" y="590" on="1"/>
        <pt x="167" y="663" on="1"/>
        <pt x="116" y="590" on="1"/>
        <pt x="104" y="576" on="0"/>
        <pt x="88" y="576" on="1"/>
        <pt x="69" y="576" on="1"/>
      </contour>
    </TTGlyph>
    <TTGlyph name="colon" xMin="19" yMin="-2" xMax="169" yMax="525">
      <contour>
        <pt x="63" y="415" on="0"/>
        <pt x="65" y="437" on="1"/>
        <pt x="72" y="503" on="1"/>
        <pt x="75" y="525" on="0"/>
        <pt x="113" y="525" on="1"/>
        <pt x="131" y="525" on="1"/>
        <pt x="169" y="525" on="0"/>
        <pt x="166" y="503" on="1"/>
        <pt x="159" y="437" on="1"/>
        <pt x="157" y="415" on="0"/>
        <pt x="119" y="415" on="1"/>
        <pt x="101" y="415" on="1"/>
      </contour>
      <contour>
        <pt x="19" y="-2" on="0"/>
        <pt x="22" y="20" on="1"/>
        <pt x="29" y="86" on="1"/>
        <pt x="31" y="108" on="0"/>
        <pt x="69" y="108" on="1"/>
        <pt x="87" y="108" on="1"/>
        <pt x="125" y="108" on="0"/>
        <pt x="123" y="86" on="1"/>
        <pt x="116" y="20" on="1"/>
        <pt x="113" y="-2" on="0"/>
        <pt x="75" y="-2" on="1"/>
        <pt x="57" y="-2" on="1"/>
      </contour>
    </TTGlyph>
    <TTGlyph name="comma" xMin="-26" yMin="-116" xMax="117" yMax="108">
      <contour>
        <pt x="-9" y="-116" on="0"/>
        <pt x="-26" y="-109" on="0"/>
        <pt x="-25" y="-101" on="1"/>
        <pt x="-24" y="-95" on="0"/>
        <pt x="-16" y="-77" on="1"/>
        <pt x="2" y="-38" on="0"/>
        <pt x="24" y="33" on="0"/>
        <pt x="29" y="76" on="1"/>
        <pt x="31" y="91" on="0"/>
        <pt x="51" y="108" on="0"/>
        <pt x="70" y="108" on="1"/>
        <pt x="80" y="108" on="1"/>
        <pt x="98" y="108" on="0"/>
        <pt x="117" y="93" on="0"/>
        <pt x="115" y="80" on="1"/>
        <pt x="109" y="24" on="0"/>
        <pt x="67" y="-65" on="0"/>
        <pt x="17" y="-116" on="0"/>
        <pt x="1" y="-116" on="1"/>
      </contour>
    </TTGlyph>
    <TTGlyph name="commaaccentinvert" xMin="113" yMin="585" xMax="225" yMax="769">
      <contour>
        <pt x="208" y="769" on="0"/>
        <pt x="225" y="762" on="0"/>
        <pt x="225" y="754" on="1"/>
        <pt x="225" y="748" on="0"/>
        <pt x="218" y="727" on="0"/>
        <pt x="217" y="723" on="1"/>
        <pt x="207" y="697" on="0"/>
        <pt x="196" y="649" on="0"/>
        <pt x="196" y="617" on="1"/>
        <pt x="196" y="602" on="0"/>
        <pt x="177" y="585" on="0"/>
        <pt x="158" y="585" on="1"/>
        <pt x="148" y="585" on="1"/>
        <pt x="131" y="585" on="0"/>
        <pt x="113" y="600" on="0"/>
        <pt x="113" y="613" on="1"/>
        <pt x="113" y="658" on="0"/>
        <pt x="142" y="729" on="0"/>
        <pt x="182" y="769" on="0"/>
        <pt x="197" y="769" on="1"/>
      </contour>
    </TTGlyph>
    <TTGlyph name="copyright" xMin="19" yMin="-5" xMax="593" yMax="710">
      <contour>
        <pt x="226" y="-5" on="0"/>
        <pt x="95" y="80" on="0"/>
        <pt x="19" y="243" on="0"/>
        <pt x="19" y="354" on="1"/>
        <pt x="19" y="465" on="0"/>
        <pt x="95" y="626" on="0"/>
        <pt x="225" y="710" on="0"/>
        <pt x="306" y="710" on="1"/>
        <pt x="387" y="710" on="0"/>
        <pt x="517" y="626" on="0"/>
        <pt x="593" y="465" on="0"/>
        <pt x="593" y="354" on="1"/>
        <pt x="593" y="243" on="0"/>
        <pt x="517" y="80" on="0"/>
        <pt x="386" y="-5" on="0"/>
        <pt x="306" y="-5" on="1"/>
      </contour>
      <contour>
        <pt x="372" y="43" on="0"/>
        <pt x="480" y="116" on="0"/>
        <pt x="543" y="257" on="0"/>
        <pt x="543" y="354" on="1"/>
        <pt x="543" y="452" on="0"/>
        <pt x="480" y="591" on="0"/>
        <pt x="372" y="662" on="0"/>
        <pt x="306" y="662" on="1"/>
        <pt x="240" y="662" on="0"/>
        <pt x="132" y="591" on="0"/>
        <pt x="69" y="452" on="0"/>
        <pt x="69" y="354" on="1"/>
        <pt x="69" y="257" on="0"/>
        <pt x="132" y="116" on="0"/>
        <pt x="240" y="43" on="0"/>
        <pt x="306" y="43" on="1"/>
      </contour>
      <contour>
        <pt x="241" y="137" on="0"/>
        <pt x="167" y="241" on="0"/>
        <pt x="167" y="349" on="1"/>
        <pt x="167" y="562" on="0"/>
        <pt x="320" y="562" on="1"/>
        <pt x="353" y="562" on="0"/>
        <pt x="412" y="537" on="0"/>
        <pt x="412" y="525" on="1"/>
        <pt x="412" y="517" on="0"/>
        <pt x="397" y="490" on="0"/>
        <pt x="391" y="490" on="1"/>
        <pt x="390" y="490" on="0"/>
        <pt x="354" y="517" on="0"/>
        <pt x="320" y="517" on="1"/>
        <pt x="269" y="517" on="0"/>
        <pt x="220" y="436" on="0"/>
        <pt x="220" y="349" on="1"/>
        <pt x="220" y="263" on="0"/>
        <pt x="268" y="182" on="0"/>
        <pt x="318" y="182" on="1"/>
        <pt x="341" y="182" on="0"/>
        <pt x="374" y="196" on="0"/>
        <pt x="395" y="212" on="0"/>
        <pt x="397" y="212" on="1"/>
        <pt x="404" y="212" on="0"/>
        <pt x="418" y="187" on="0"/>
        <pt x="418" y="180" on="1"/>
        <pt x="418" y="172" on="0"/>
        <pt x="388" y="151" on="0"/>
        <pt x="341" y="137" on="0"/>
        <pt x="318" y="137" on="1"/>
      </contour>
    </TTGlyph>
    <TTGlyph name="currency" xMin="50" yMin="143" xMax="421" yMax="501">
      <contour>
        <pt x="67" y="143" on="0"/>
        <pt x="58" y="152" on="1"/>
        <pt x="57" y="154" on="1"/>
        <pt x="50" y="161" on="0"/>
        <pt x="50" y="171" on="1"/>
        <pt x="52" y="182" on="0"/>
        <pt x="64" y="193" on="1"/>
        <pt x="97" y="223" on="1"/>
        <pt x="80" y="257" on="0"/>
        <pt x="80" y="300" on="1"/>
        <pt x="80" y="368" on="0"/>
        <pt x="118" y="422" on="1"/>
        <pt x="91" y="450" on="1"/>
        <pt x="82" y="461" on="0"/>
        <pt x="83" y="472" on="1"/>
        <pt x="86" y="483" on="0"/>
        <pt x="91" y="488" on="1"/>
        <pt x="95" y="493" on="1"/>
        <pt x="103" y="501" on="0"/>
        <pt x="112" y="501" on="1"/>
        <pt x="124" y="501" on="0"/>
        <pt x="133" y="489" on="1"/>
        <pt x="155" y="464" on="1"/>
        <pt x="202" y="500" on="0"/>
        <pt x="254" y="500" on="1"/>
        <pt x="307" y="500" on="0"/>
        <pt x="345" y="465" on="1"/>
        <pt x="373" y="490" on="1"/>
        <pt x="385" y="500" on="0"/>
        <pt x="394" y="500" on="1"/>
        <pt x="405" y="500" on="0"/>
        <pt x="412" y="491" on="1"/>
        <pt x="414" y="489" on="1"/>
        <pt x="421" y="480" on="0"/>
        <pt x="421" y="474" on="1"/>
        <pt x="421" y="462" on="0"/>
        <pt x="408" y="450" on="1"/>
        <pt x="376" y="421" on="1"/>
        <pt x="392" y="384" on="0"/>
        <pt x="392" y="344" on="1"/>
        <pt x="392" y="278" on="0"/>
        <pt x="355" y="222" on="1"/>
        <pt x="381" y="193" on="1"/>
        <pt x="390" y="182" on="0"/>
        <pt x="390" y="172" on="1"/>
        <pt x="388" y="163" on="0"/>
        <pt x="378" y="153" on="1"/>
        <pt x="376" y="152" on="1"/>
        <pt x="367" y="143" on="0"/>
        <pt x="358" y="143" on="1"/>
        <pt x="346" y="143" on="0"/>
        <pt x="338" y="154" on="1"/>
        <pt x="315" y="179" on="1"/>
        <pt x="270" y="145" on="0"/>
        <pt x="217" y="145" on="1"/>
        <pt x="165" y="145" on="0"/>
        <pt x="126" y="179" on="1"/>
        <pt x="98" y="153" on="1"/>
        <pt x="87" y="143" on="0"/>
        <pt x="76" y="143" on="1"/>
      </contour>
      <contour>
        <pt x="267" y="206" on="0"/>
        <pt x="330" y="279" on="0"/>
        <pt x="330" y="342" on="1"/>
        <pt x="330" y="387" on="0"/>
        <pt x="284" y="439" on="0"/>
        <pt x="248" y="439" on="1"/>
        <pt x="204" y="439" on="0"/>
        <pt x="141" y="365" on="0"/>
        <pt x="141" y="303" on="1"/>
        <pt x="141" y="257" on="0"/>
        <pt x="187" y="206" on="0"/>
        <pt x="223" y="206" on="1"/>
      </contour>
    </TTGlyph>
    <TTGlyph name="d" xMin="43" yMin="-6" xMax="454" yMax="752">
      <contour>
        <pt x="112" y="-6" on="0"/>
        <pt x="43" y="108" on="0"/>
        <pt x="43" y="204" on="1"/>
        <pt x="43" y="233" on="0"/>
        <pt x="46" y="264" on="1"/>
        <pt x="59" y="389" on="0"/>
        <pt x="163" y="529" on="0"/>
        <pt x="238" y="529" on="1"/>
        <pt x="273" y="529" on="0"/>
        <pt x="320" y="503" on="0"/>
        <pt x="339" y="478" on="1"/>
        <pt x="366" y="730" on="1"/>
        <pt x="368" y="752" on="0"/>
        <pt x="405" y="752" on="1"/>
        <pt x="416" y="752" on="1"/>
        <pt x="454" y="752" on="0"/>
        <pt x="452" y="730" on="1"/>
        <pt x="388" y="123" on="1"/>
        <pt x="386" y="90" on="0"/>
        <pt x="398" y="66" on="0"/>
        <pt x="412" y="66" on="1"/>
        <pt x="419" y="66" on="0"/>
        <pt x="436" y="71" on="0"/>
        <pt x="441" y="71" on="1"/>
        <pt x="451" y="71" on="0"/>
        <pt x="451" y="50" on="1"/>
        <pt x="451" y="32" on="0"/>
        <pt x="445" y="20" on="1"/>
        <pt x="439" y="7" on="0"/>
        <pt x="406" y="-6" on="0"/>
        <pt x="386" y="-6" on="1"/>
        <pt x="356" y="-6" on="0"/>
        <pt x="308" y="28" on="0"/>
        <pt x="303" y="72" on="1"/>
        <pt x="277" y="33" on="0"/>
        <pt x="210" y="-6" on="0"/>
        <pt x="174" y="-6" on="1"/>
      </contour>
      <contour>
        <pt x="228" y="67" on="0"/>
        <pt x="280" y="103" on="0"/>
        <pt x="303" y="136" on="1"/>
        <pt x="332" y="410" on="1"/>
        <pt x="302" y="455" on="0"/>
        <pt x="253" y="455" on="1"/>
        <pt x="155" y="455" on="0"/>
        <pt x="135" y="265" on="1"/>
        <pt x="131" y="219" on="0"/>
        <pt x="131" y="202" on="1"/>
        <pt x="131" y="137" on="0"/>
        <pt x="167" y="67" on="0"/>
        <pt x="203" y="67" on="1"/>
      </contour>
    </TTGlyph>
    <TTGlyph name="dagger" xMin="55" yMin="-140" xMax="413" yMax="702">
      <contour>
        <pt x="135" y="-140" on="0"/>
        <pt x="137" y="-118" on="1"/>
        <pt x="194" y="422" on="1"/>
        <pt x="74" y="422" on="1"/>
        <pt x="55" y="422" on="0"/>
        <pt x="58" y="452" on="1"/>
        <pt x="60" y="472" on="1"/>
        <pt x="63" y="502" on="0"/>
        <pt x="82" y="502" on="1"/>
        <pt x="202" y="502" on="1"/>
        <pt x="221" y="680" on="1"/>
        <pt x="223" y="702" on="0"/>
        <pt x="257" y="702" on="1"/>
        <pt x="263" y="702" on="1"/>
        <pt x="298" y="702" on="0"/>
        <pt x="296" y="680" on="1"/>
        <pt x="277" y="502" on="1"/>
        <pt x="395" y="502" on="1"/>
        <pt x="405" y="502" on="0"/>
        <pt x="413" y="488" on="0"/>
        <pt x="411" y="472" on="1"/>
        <pt x="409" y="452" on="1"/>
        <pt x="407" y="436" on="0"/>
        <pt x="397" y="422" on="0"/>
        <pt x="387" y="422" on="1"/>
        <pt x="269" y="422" on="1"/>
        <pt x="212" y="-118" on="1"/>
        <pt x="210" y="-140" on="0"/>
        <pt x="176" y="-140" on="1"/>
        <pt x="170" y="-140" on="1"/>
      </contour>
    </TTGlyph>
    <TTGlyph name="daggerdbl" xMin="17" yMin="-140" xMax="413" yMax="702">
      <contour>
        <pt x="135" y="-140" on="0"/>
        <pt x="137" y="-118" on="1"/>
        <pt x="156" y="60" on="1"/>
        <pt x="36" y="60" on="1"/>
        <pt x="17" y="60" on="0"/>
        <pt x="20" y="90" on="1"/>
        <pt x="22" y="110" on="1"/>
        <pt x="25" y="140" on="0"/>
        <pt x="44" y="140" on="1"/>
        <pt x="164" y="140" on="1"/>
        <pt x="194" y="422" on="1"/>
        <pt x="74" y="422" on="1"/>
        <pt x="55" y="422" on="0"/>
        <pt x="58" y="452" on="1"/>
        <pt x="60" y="472" on="1"/>
        <pt x="63" y="502" on="0"/>
        <pt x="82" y="502" on="1"/>
        <pt x="202" y="502" on="1"/>
        <pt x="221" y="680" on="1"/>
        <pt x="223" y="702" on="0"/>
        <pt x="257" y="702" on="1"/>
        <pt x="263" y="702" on="1"/>
        <pt x="298" y="702" on="0"/>
        <pt x="296" y="680" on="1"/>
        <pt x="277" y="502" on="1"/>
        <pt x="395" y="502" on="1"/>
        <pt x="405" y="502" on="0"/>
        <pt x="413" y="488" on="0"/>
        <pt x="411" y="472" on="1"/>
        <pt x="409" y="452" on="1"/>
        <pt x="407" y="436" on="0"/>
        <pt x="397" y="422" on="0"/>
        <pt x="387" y="422" on="1"/>
        <pt x="269" y="422" on="1"/>
        <pt x="239" y="140" on="1"/>
        <pt x="357" y="140" on="1"/>
        <pt x="367" y="140" on="0"/>
        <pt x="375" y="126" on="0"/>
        <pt x="373" y="110" on="1"/>
        <pt x="371" y="90" on="1"/>
        <pt x="369" y="74" on="0"/>
        <pt x="359" y="60" on="0"/>
        <pt x="349" y="60" on="1"/>
        <pt x="231" y="60" on="1"/>
        <pt x="212" y="-118" on="1"/>
        <pt x="210" y="-140" on="0"/>
        <pt x="176" y="-140" on="1"/>
        <pt x="170" y="-140" on="1"/>
      </contour>
    </TTGlyph>
    <TTGlyph name="dcaron" xMin="43" yMin="-6" xMax="595" yMax="752">
      <component glyphName="d" x="0" y="0" flags="0x0"/>
      <component glyphName="caron.alt" x="414" y="0" flags="0x0"/>
    </TTGlyph>
    <TTGlyph name="dcroat" xMin="43" yMin="-6" xMax="524" yMax="752">
      <contour>
        <pt x="516" y="668" on="0"/>
        <pt x="524" y="654" on="0"/>
        <pt x="522" y="638" on="1"/>
        <pt x="521" y="628" on="1"/>
        <pt x="519" y="612" on="0"/>
        <pt x="509" y="598" on="0"/>
        <pt x="499" y="598" on="1"/>
        <pt x="438" y="598" on="1"/>
        <pt x="406" y="298" on="0"/>
        <pt x="388" y="123" on="1"/>
        <pt x="386" y="90" on="0"/>
        <pt x="398" y="66" on="0"/>
        <pt x="412" y="66" on="1"/>
        <pt x="419" y="66" on="0"/>
        <pt x="436" y="71" on="0"/>
        <pt x="441" y="71" on="1"/>
        <pt x="451" y="71" on="0"/>
        <pt x="451" y="50" on="1"/>
        <pt x="451" y="32" on="0"/>
        <pt x="445" y="20" on="1"/>
        <pt x="439" y="7" on="0"/>
        <pt x="406" y="-6" on="0"/>
        <pt x="386" y="-6" on="1"/>
        <pt x="356" y="-6" on="0"/>
        <pt x="308" y="28" on="0"/>
        <pt x="303" y="72" on="1"/>
        <pt x="277" y="33" on="0"/>
        <pt x="210" y="-6" on="0"/>
        <pt x="174" y="-6" on="1"/>
        <pt x="112" y="-6" on="0"/>
        <pt x="43" y="108" on="0"/>
        <pt x="43" y="204" on="1"/>
        <pt x="43" y="233" on="0"/>
        <pt x="46" y="264" on="1"/>
        <pt x="59" y="389" on="0"/>
        <pt x="163" y="529" on="0"/>
        <pt x="238" y="529" on="1"/>
        <pt x="273" y="529" on="0"/>
        <pt x="320" y="503" on="0"/>
        <pt x="339" y="478" on="1"/>
        <pt x="352" y="598" on="1"/>
        <pt x="300" y="598" on="1"/>
        <pt x="281" y="598" on="0"/>
        <pt x="284" y="628" on="1"/>
        <pt x="285" y="638" on="1"/>
        <pt x="288" y="668" on="0"/>
        <pt x="307" y="668" on="1"/>
        <pt x="359" y="668" on="1"/>
        <pt x="366" y="730" on="1"/>
        <pt x="368" y="752" on="0"/>
        <pt x="405" y="752" on="1"/>
        <pt x="416" y="752" on="1"/>
        <pt x="454" y="752" on="0"/>
        <pt x="452" y="730" on="1"/>
        <pt x="446" y="668" on="1"/>
        <pt x="506" y="668" on="1"/>
      </contour>
      <contour>
        <pt x="332" y="410" on="1"/>
        <pt x="302" y="455" on="0"/>
        <pt x="253" y="455" on="1"/>
        <pt x="155" y="455" on="0"/>
        <pt x="135" y="265" on="1"/>
        <pt x="131" y="219" on="0"/>
        <pt x="131" y="202" on="1"/>
        <pt x="131" y="137" on="0"/>
        <pt x="167" y="67" on="0"/>
        <pt x="203" y="67" on="1"/>
        <pt x="228" y="67" on="0"/>
        <pt x="280" y="103" on="0"/>
        <pt x="303" y="136" on="1"/>
      </contour>
    </TTGlyph>
    <TTGlyph name="degree" xMin="64" yMin="441" xMax="278" yMax="706">
      <contour>
        <pt x="115" y="441" on="0"/>
        <pt x="64" y="500" on="0"/>
        <pt x="64" y="550" on="1"/>
        <pt x="64" y="620" on="0"/>
        <pt x="133" y="706" on="0"/>
        <pt x="185" y="706" on="1"/>
        <pt x="227" y="706" on="0"/>
        <pt x="278" y="646" on="0"/>
        <pt x="278" y="594" on="1"/>
        <pt x="278" y="526" on="0"/>
        <pt x="208" y="441" on="0"/>
        <pt x="157" y="441" on="1"/>
      </contour>
      <contour>
        <pt x="191" y="486" on="0"/>
        <pt x="229" y="543" on="0"/>
        <pt x="229" y="592" on="1"/>
        <pt x="229" y="625" on="0"/>
        <pt x="203" y="661" on="0"/>
        <pt x="179" y="661" on="1"/>
        <pt x="149" y="661" on="0"/>
        <pt x="111" y="603" on="0"/>
        <pt x="111" y="554" on="1"/>
        <pt x="111" y="522" on="0"/>
        <pt x="137" y="486" on="0"/>
        <pt x="161" y="486" on="1"/>
      </contour>
    </TTGlyph>
    <TTGlyph name="dieresis" xMin="63" yMin="607" xMax="277" yMax="702">
      <contour>
        <pt x="63" y="607" on="0"/>
        <pt x="66" y="629" on="1"/>
        <pt x="71" y="680" on="1"/>
        <pt x="73" y="702" on="0"/>
        <pt x="113" y="702" on="1"/>
        <pt x="151" y="702" on="0"/>
        <pt x="149" y="680" on="1"/>
        <pt x="144" y="629" on="1"/>
        <pt x="141" y="607" on="0"/>
        <pt x="101" y="607" on="1"/>
      </contour>
      <contour>
        <pt x="189" y="607" on="0"/>
        <pt x="192" y="629" on="1"/>
        <pt x="197" y="680" on="1"/>
        <pt x="199" y="702" on="0"/>
        <pt x="239" y="702" on="1"/>
        <pt x="277" y="702" on="0"/>
        <pt x="275" y="680" on="1"/>
        <pt x="270" y="629" on="1"/>
        <pt x="267" y="607" on="0"/>
        <pt x="227" y="607" on="1"/>
      </contour>
    </TTGlyph>
    <TTGlyph name="divide" xMin="26" yMin="-2" xMax="416" yMax="463">
      <contour>
        <pt x="194" y="368" on="0"/>
        <pt x="197" y="390" on="1"/>
        <pt x="202" y="441" on="1"/>
        <pt x="204" y="463" on="0"/>
        <pt x="242" y="463" on="1"/>
        <pt x="247" y="463" on="1"/>
        <pt x="285" y="463" on="0"/>
        <pt x="283" y="441" on="1"/>
        <pt x="278" y="390" on="1"/>
        <pt x="275" y="368" on="0"/>
        <pt x="237" y="368" on="1"/>
        <pt x="232" y="368" on="1"/>
      </contour>
      <contour>
        <pt x="26" y="197" on="0"/>
        <pt x="29" y="227" on="1"/>
        <pt x="30" y="234" on="1"/>
        <pt x="33" y="264" on="0"/>
        <pt x="57" y="264" on="1"/>
        <pt x="392" y="264" on="1"/>
        <pt x="416" y="264" on="0"/>
        <pt x="413" y="234" on="1"/>
        <pt x="412" y="227" on="1"/>
        <pt x="409" y="197" on="0"/>
        <pt x="385" y="197" on="1"/>
        <pt x="50" y="197" on="1"/>
      </contour>
      <contour>
        <pt x="155" y="-2" on="0"/>
        <pt x="158" y="20" on="1"/>
        <pt x="163" y="71" on="1"/>
        <pt x="165" y="93" on="0"/>
        <pt x="203" y="93" on="1"/>
        <pt x="208" y="93" on="1"/>
        <pt x="246" y="93" on="0"/>
        <pt x="244" y="71" on="1"/>
        <pt x="239" y="20" on="1"/>
        <pt x="236" y="-2" on="0"/>
        <pt x="198" y="-2" on="1"/>
        <pt x="193" y="-2" on="1"/>
      </contour>
    </TTGlyph>
    <TTGlyph name="dollar" xMin="3" yMin="-68" xMax="416" yMax="755">
      <contour>
        <pt x="172" y="-68" on="0"/>
        <pt x="165" y="-59" on="0"/>
        <pt x="165" y="-48" on="1"/>
        <pt x="168" y="-5" on="1"/>
        <pt x="117" y="-4" on="0"/>
        <pt x="42" y="15" on="0"/>
        <pt x="11" y="39" on="1"/>
        <pt x="7" y="43" on="0"/>
        <pt x="3" y="51" on="0"/>
        <pt x="3" y="61" on="1"/>
        <pt x="3" y="78" on="0"/>
        <pt x="16" y="115" on="0"/>
        <pt x="26" y="115" on="1"/>
        <pt x="31" y="115" on="0"/>
        <pt x="38" y="110" on="1"/>
        <pt x="64" y="90" on="0"/>
        <pt x="131" y="73" on="0"/>
        <pt x="176" y="73" on="1"/>
        <pt x="202" y="317" on="1"/>
        <pt x="136" y="356" on="0"/>
        <pt x="60" y="446" on="0"/>
        <pt x="60" y="513" on="1"/>
        <pt x="60" y="596" on="0"/>
        <pt x="161" y="705" on="0"/>
        <pt x="245" y="710" on="1"/>
        <pt x="248" y="735" on="1"/>
        <pt x="250" y="746" on="0"/>
        <pt x="259" y="755" on="0"/>
        <pt x="270" y="755" on="1"/>
        <pt x="272" y="755" on="1"/>
        <pt x="288" y="755" on="0"/>
        <pt x="288" y="735" on="1"/>
        <pt x="286" y="710" on="1"/>
        <pt x="322" y="708" on="0"/>
        <pt x="390" y="693" on="0"/>
        <pt x="410" y="681" on="1"/>
        <pt x="416" y="677" on="0"/>
        <pt x="416" y="670" on="1"/>
        <pt x="416" y="658" on="0"/>
        <pt x="395" y="607" on="0"/>
        <pt x="387" y="607" on="1"/>
        <pt x="384" y="607" on="0"/>
        <pt x="375" y="611" on="0"/>
        <pt x="373" y="612" on="1"/>
        <pt x="326" y="634" on="0"/>
        <pt x="277" y="634" on="1"/>
        <pt x="252" y="393" on="1"/>
        <pt x="316" y="357" on="0"/>
        <pt x="388" y="271" on="0"/>
        <pt x="388" y="204" on="1"/>
        <pt x="388" y="116" on="0"/>
        <pt x="294" y="6" on="0"/>
        <pt x="210" y="-3" on="1"/>
        <pt x="205" y="-48" on="1"/>
        <pt x="204" y="-68" on="0"/>
        <pt x="183" y="-68" on="1"/>
        <pt x="182" y="-68" on="1"/>
      </contour>
      <contour>
        <pt x="237" y="630" on="1"/>
        <pt x="198" y="622" on="0"/>
        <pt x="147" y="572" on="0"/>
        <pt x="147" y="525" on="1"/>
        <pt x="147" y="492" on="0"/>
        <pt x="180" y="440" on="0"/>
        <pt x="213" y="417" on="1"/>
      </contour>
      <contour>
        <pt x="256" y="89" on="0"/>
        <pt x="299" y="144" on="0"/>
        <pt x="299" y="188" on="1"/>
        <pt x="299" y="249" on="0"/>
        <pt x="241" y="292" on="1"/>
        <pt x="218" y="79" on="1"/>
      </contour>
    </TTGlyph>
    <TTGlyph name="dotaccent" xMin="121" yMin="607" xMax="221" yMax="702">
      <contour>
        <pt x="121" y="607" on="0"/>
        <pt x="124" y="629" on="1"/>
        <pt x="129" y="680" on="1"/>
        <pt x="131" y="702" on="0"/>
        <pt x="177" y="702" on="1"/>
        <pt x="221" y="702" on="0"/>
        <pt x="219" y="680" on="1"/>
        <pt x="214" y="629" on="1"/>
        <pt x="211" y="607" on="0"/>
        <pt x="165" y="607" on="1"/>
      </contour>
    </TTGlyph>
    <TTGlyph name="dotbelowcomb" xMin="-87" yMin="-175" xMax="8" yMax="-80">
      <component glyphName="dotaccent" x="-211" y="-782" flags="0x4"/>
    </TTGlyph>
    <TTGlyph name="dotlessi" xMin="61" yMin="-3" xMax="207" yMax="525">
      <contour>
        <pt x="108" y="-3" on="0"/>
        <pt x="61" y="33" on="0"/>
        <pt x="61" y="88" on="1"/>
        <pt x="61" y="102" on="0"/>
        <pt x="62" y="110" on="1"/>
        <pt x="70" y="206" on="1"/>
        <pt x="99" y="503" on="0"/>
        <pt x="102" y="503" on="1"/>
        <pt x="103" y="515" on="0"/>
        <pt x="124" y="525" on="0"/>
        <pt x="144" y="525" on="1"/>
        <pt x="148" y="525" on="1"/>
        <pt x="169" y="525" on="0"/>
        <pt x="186" y="514" on="0"/>
        <pt x="186" y="503" on="1"/>
        <pt x="146" y="126" on="1"/>
        <pt x="145" y="118" on="0"/>
        <pt x="145" y="106" on="1"/>
        <pt x="145" y="69" on="0"/>
        <pt x="168" y="69" on="1"/>
        <pt x="175" y="69" on="0"/>
        <pt x="192" y="74" on="0"/>
        <pt x="197" y="74" on="1"/>
        <pt x="207" y="74" on="0"/>
        <pt x="207" y="53" on="1"/>
        <pt x="207" y="35" on="0"/>
        <pt x="201" y="23" on="1"/>
        <pt x="195" y="10" on="0"/>
        <pt x="162" y="-3" on="0"/>
        <pt x="142" y="-3" on="1"/>
      </contour>
    </TTGlyph>
    <TTGlyph name="e" xMin="48" yMin="-6" xMax="426" yMax="529">
      <contour>
        <pt x="377" y="115" on="0"/>
        <pt x="385" y="103" on="0"/>
        <pt x="385" y="94" on="1"/>
        <pt x="385" y="62" on="0"/>
        <pt x="368" y="42" on="1"/>
        <pt x="347" y="19" on="0"/>
        <pt x="268" y="-6" on="0"/>
        <pt x="237" y="-6" on="1"/>
        <pt x="48" y="-6" on="0"/>
        <pt x="48" y="194" on="1"/>
        <pt x="48" y="289" on="0"/>
        <pt x="100" y="440" on="0"/>
        <pt x="207" y="529" on="0"/>
        <pt x="286" y="529" on="1"/>
        <pt x="336" y="529" on="0"/>
        <pt x="399" y="486" on="0"/>
        <pt x="426" y="425" on="0"/>
        <pt x="426" y="396" on="1"/>
        <pt x="426" y="307" on="0"/>
        <pt x="302" y="213" on="0"/>
        <pt x="202" y="213" on="1"/>
        <pt x="169" y="213" on="0"/>
        <pt x="135" y="219" on="1"/>
        <pt x="135" y="210" on="1"/>
        <pt x="133" y="131" on="0"/>
        <pt x="189" y="66" on="0"/>
        <pt x="244" y="66" on="1"/>
        <pt x="277" y="66" on="0"/>
        <pt x="322" y="86" on="0"/>
        <pt x="349" y="103" on="1"/>
        <pt x="366" y="115" on="0"/>
        <pt x="371" y="115" on="1"/>
      </contour>
      <contour>
        <pt x="215" y="457" on="0"/>
        <pt x="150" y="363" on="0"/>
        <pt x="140" y="285" on="1"/>
        <pt x="193" y="285" on="1"/>
        <pt x="254" y="285" on="0"/>
        <pt x="340" y="334" on="0"/>
        <pt x="340" y="389" on="1"/>
        <pt x="340" y="418" on="0"/>
        <pt x="306" y="457" on="0"/>
        <pt x="277" y="457" on="1"/>
      </contour>
    </TTGlyph>
    <TTGlyph name="eacute" xMin="48" yMin="-6" xMax="426" yMax="732">
      <component glyphName="e" x="0" y="0" flags="0x0"/>
      <component glyphName="acute" x="184" y="0" flags="0x0"/>
    </TTGlyph>
    <TTGlyph name="ebreve" xMin="48" yMin="-6" xMax="426" yMax="715">
      <component glyphName="e" x="0" y="0" flags="0x0"/>
      <component glyphName="breve" x="120" y="0" flags="0x0"/>
    </TTGlyph>
    <TTGlyph name="ecaron" xMin="48" yMin="-6" xMax="426" yMax="725">
      <component glyphName="e" x="0" y="0" flags="0x0"/>
      <component glyphName="caron" x="121" y="0" flags="0x0"/>
    </TTGlyph>
    <TTGlyph name="ecircumflex" xMin="48" yMin="-6" xMax="426" yMax="718">
      <component glyphName="e" x="0" y="0" flags="0x0"/>
      <component glyphName="circumflex" x="119" y="0" flags="0x0"/>
    </TTGlyph>
    <TTGlyph name="edieresis" xMin="48" yMin="-6" xMax="426" yMax="702">
      <component glyphName="e" x="0" y="0" flags="0x0"/>
      <component glyphName="dieresis" x="117" y="0" flags="0x0"/>
    </TTGlyph>
    <TTGlyph name="edotaccent" xMin="48" yMin="-6" xMax="426" yMax="702">
      <component glyphName="e" x="0" y="0" flags="0x0"/>
      <component glyphName="dotaccent" x="116" y="0" flags="0x0"/>
    </TTGlyph>
    <TTGlyph name="egrave" xMin="48" yMin="-6" xMax="426" yMax="732">
      <component glyphName="e" x="0" y="0" flags="0x0"/>
      <component glyphName="grave" x="112" y="0" flags="0x0"/>
    </TTGlyph>
    <TTGlyph name="eight" xMin="30" yMin="-6" xMax="432" yMax="706">
      <contour>
        <pt x="123" y="-6" on="0"/>
        <pt x="30" y="79" on="0"/>
        <pt x="30" y="161" on="1"/>
        <pt x="30" y="170" on="0"/>
        <pt x="32" y="192" on="1"/>
        <pt x="46" y="321" on="0"/>
        <pt x="153" y="374" on="1"/>
        <pt x="88" y="421" on="0"/>
        <pt x="88" y="506" on="1"/>
        <pt x="88" y="522" on="0"/>
        <pt x="89" y="531" on="1"/>
        <pt x="98" y="615" on="0"/>
        <pt x="204" y="706" on="0"/>
        <pt x="278" y="706" on="1"/>
        <pt x="343" y="706" on="0"/>
        <pt x="432" y="633" on="0"/>
        <pt x="432" y="561" on="1"/>
        <pt x="432" y="546" on="0"/>
        <pt x="431" y="538" on="1"/>
        <pt x="425" y="478" on="0"/>
        <pt x="366" y="398" on="0"/>
        <pt x="321" y="376" on="1"/>
        <pt x="365" y="350" on="0"/>
        <pt x="414" y="283" on="0"/>
        <pt x="414" y="225" on="1"/>
        <pt x="414" y="216" on="0"/>
        <pt x="412" y="196" on="1"/>
        <pt x="402" y="101" on="0"/>
        <pt x="284" y="-6" on="0"/>
        <pt x="199" y="-6" on="1"/>
      </contour>
      <contour>
        <pt x="297" y="432" on="0"/>
        <pt x="341" y="491" on="0"/>
        <pt x="346" y="534" on="1"/>
        <pt x="347" y="540" on="0"/>
        <pt x="347" y="551" on="1"/>
        <pt x="347" y="593" on="0"/>
        <pt x="304" y="634" on="0"/>
        <pt x="269" y="634" on="1"/>
        <pt x="228" y="634" on="0"/>
        <pt x="173" y="575" on="0"/>
        <pt x="173" y="519" on="1"/>
        <pt x="173" y="478" on="0"/>
        <pt x="217" y="431" on="0"/>
        <pt x="260" y="409" on="1"/>
      </contour>
      <contour>
        <pt x="239" y="66" on="0"/>
        <pt x="294" y="103" on="0"/>
        <pt x="327" y="170" on="0"/>
        <pt x="327" y="214" on="1"/>
        <pt x="327" y="249" on="0"/>
        <pt x="296" y="295" on="0"/>
        <pt x="256" y="320" on="0"/>
        <pt x="211" y="342" on="1"/>
        <pt x="171" y="318" on="0"/>
        <pt x="124" y="250" on="0"/>
        <pt x="118" y="197" on="1"/>
        <pt x="117" y="189" on="0"/>
        <pt x="117" y="174" on="1"/>
        <pt x="117" y="120" on="0"/>
        <pt x="167" y="66" on="0"/>
        <pt x="207" y="66" on="1"/>
      </contour>
    </TTGlyph>
    <TTGlyph name="ellipsis" xMin="20" yMin="-2" xMax="490" yMax="108">
      <contour>
        <pt x="20" y="-2" on="0"/>
        <pt x="23" y="20" on="1"/>
        <pt x="30" y="86" on="1"/>
        <pt x="32" y="108" on="0"/>
        <pt x="70" y="108" on="1"/>
        <pt x="88" y="108" on="1"/>
        <pt x="126" y="108" on="0"/>
        <pt x="124" y="86" on="1"/>
        <pt x="117" y="20" on="1"/>
        <pt x="114" y="-2" on="0"/>
        <pt x="76" y="-2" on="1"/>
        <pt x="58" y="-2" on="1"/>
      </contour>
      <contour>
        <pt x="202" y="-2" on="0"/>
        <pt x="205" y="20" on="1"/>
        <pt x="212" y="86" on="1"/>
        <pt x="214" y="108" on="0"/>
        <pt x="252" y="108" on="1"/>
        <pt x="270" y="108" on="1"/>
        <pt x="308" y="108" on="0"/>
        <pt x="306" y="86" on="1"/>
        <pt x="299" y="20" on="1"/>
        <pt x="296" y="-2" on="0"/>
        <pt x="258" y="-2" on="1"/>
        <pt x="240" y="-2" on="1"/>
      </contour>
      <contour>
        <pt x="384" y="-2" on="0"/>
        <pt x="387" y="20" on="1"/>
        <pt x="394" y="86" on="1"/>
        <pt x="396" y="108" on="0"/>
        <pt x="434" y="108" on="1"/>
        <pt x="452" y="108" on="1"/>
        <pt x="490" y="108" on="0"/>
        <pt x="488" y="86" on="1"/>
        <pt x="481" y="20" on="1"/>
        <pt x="478" y="-2" on="0"/>
        <pt x="440" y="-2" on="1"/>
        <pt x="422" y="-2" on="1"/>
      </contour>
    </TTGlyph>
    <TTGlyph name="emacron" xMin="48" yMin="-6" xMax="426" yMax="682">
      <component glyphName="e" x="0" y="0" flags="0x0"/>
      <component glyphName="macron" x="119" y="0" flags="0x0"/>
    </TTGlyph>
    <TTGlyph name="emdash" xMin="-3" yMin="230" xMax="890" yMax="300">
      <contour>
        <pt x="-3" y="230" on="0"/>
        <pt x="0" y="260" on="1"/>
        <pt x="1" y="270" on="1"/>
        <pt x="4" y="300" on="0"/>
        <pt x="23" y="300" on="1"/>
        <pt x="871" y="300" on="1"/>
        <pt x="890" y="300" on="0"/>
        <pt x="887" y="270" on="1"/>
        <pt x="886" y="260" on="1"/>
        <pt x="883" y="230" on="0"/>
        <pt x="864" y="230" on="1"/>
        <pt x="16" y="230" on="1"/>
      </contour>
    </TTGlyph>
    <TTGlyph name="endash" xMin="-3" yMin="230" xMax="447" yMax="300">
      <contour>
        <pt x="-3" y="230" on="0"/>
        <pt x="0" y="260" on="1"/>
        <pt x="1" y="270" on="1"/>
        <pt x="4" y="300" on="0"/>
        <pt x="23" y="300" on="1"/>
        <pt x="428" y="300" on="1"/>
        <pt x="447" y="300" on="0"/>
        <pt x="444" y="270" on="1"/>
        <pt x="443" y="260" on="1"/>
        <pt x="440" y="230" on="0"/>
        <pt x="421" y="230" on="1"/>
        <pt x="16" y="230" on="1"/>
      </contour>
    </TTGlyph>
    <TTGlyph name="eng" xMin="44" yMin="-212" xMax="415" yMax="529">
      <contour>
        <pt x="172" y="-212" on="0"/>
        <pt x="174" y="-182" on="1"/>
        <pt x="175" y="-171" on="0"/>
        <pt x="191" y="-135" on="0"/>
        <pt x="200" y="-135" on="1"/>
        <pt x="204" y="-135" on="0"/>
        <pt x="220" y="-140" on="0"/>
        <pt x="236" y="-140" on="1"/>
        <pt x="274" y="-140" on="0"/>
        <pt x="281" y="-72" on="1"/>
        <pt x="325" y="365" on="1"/>
        <pt x="326" y="372" on="0"/>
        <pt x="326" y="385" on="1"/>
        <pt x="326" y="456" on="0"/>
        <pt x="266" y="456" on="1"/>
        <pt x="240" y="456" on="0"/>
        <pt x="189" y="418" on="0"/>
        <pt x="171" y="386" on="1"/>
        <pt x="132" y="20" on="1"/>
        <pt x="130" y="-2" on="0"/>
        <pt x="92" y="-2" on="1"/>
        <pt x="81" y="-2" on="1"/>
        <pt x="44" y="-2" on="0"/>
        <pt x="46" y="20" on="1"/>
        <pt x="84" y="373" on="1"/>
        <pt x="88" y="418" on="0"/>
        <pt x="88" y="453" on="1"/>
        <pt x="88" y="472" on="0"/>
        <pt x="86" y="494" on="0"/>
        <pt x="87" y="499" on="1"/>
        <pt x="88" y="511" on="0"/>
        <pt x="132" y="522" on="0"/>
        <pt x="147" y="522" on="1"/>
        <pt x="161" y="522" on="0"/>
        <pt x="169" y="497" on="0"/>
        <pt x="171" y="462" on="0"/>
        <pt x="172" y="454" on="1"/>
        <pt x="198" y="490" on="0"/>
        <pt x="266" y="529" on="0"/>
        <pt x="302" y="529" on="1"/>
        <pt x="356" y="529" on="0"/>
        <pt x="415" y="461" on="0"/>
        <pt x="415" y="401" on="1"/>
        <pt x="415" y="393" on="0"/>
        <pt x="413" y="373" on="1"/>
        <pt x="364" y="-80" on="1"/>
        <pt x="356" y="-154" on="0"/>
        <pt x="283" y="-212" on="0"/>
        <pt x="241" y="-212" on="1"/>
      </contour>
    </TTGlyph>
    <TTGlyph name="eogonek" xMin="48" yMin="-147" xMax="448" yMax="529">
      <contour>
        <pt x="448" y="-77" on="0"/>
        <pt x="448" y="-101" on="1"/>
        <pt x="448" y="-119" on="0"/>
        <pt x="435" y="-128" on="1"/>
        <pt x="407" y="-147" on="0"/>
        <pt x="369" y="-147" on="1"/>
        <pt x="315" y="-147" on="0"/>
        <pt x="277" y="-90" on="0"/>
        <pt x="277" y="-59" on="1"/>
        <pt x="277" y="-30" on="0"/>
        <pt x="289" y="1" on="1"/>
        <pt x="261" y="-6" on="0"/>
        <pt x="237" y="-6" on="1"/>
        <pt x="48" y="-6" on="0"/>
        <pt x="48" y="194" on="1"/>
        <pt x="48" y="289" on="0"/>
        <pt x="100" y="440" on="0"/>
        <pt x="207" y="529" on="0"/>
        <pt x="286" y="529" on="1"/>
        <pt x="336" y="529" on="0"/>
        <pt x="399" y="486" on="0"/>
        <pt x="426" y="425" on="0"/>
        <pt x="426" y="396" on="1"/>
        <pt x="426" y="307" on="0"/>
        <pt x="302" y="213" on="0"/>
        <pt x="202" y="213" on="1"/>
        <pt x="169" y="213" on="0"/>
        <pt x="135" y="219" on="1"/>
        <pt x="135" y="210" on="1"/>
        <pt x="133" y="131" on="0"/>
        <pt x="189" y="66" on="0"/>
        <pt x="244" y="66" on="1"/>
        <pt x="277" y="66" on="0"/>
        <pt x="322" y="86" on="0"/>
        <pt x="349" y="103" on="1"/>
        <pt x="366" y="115" on="0"/>
        <pt x="371" y="115" on="1"/>
        <pt x="377" y="115" on="0"/>
        <pt x="385" y="103" on="0"/>
        <pt x="385" y="94" on="1"/>
        <pt x="385" y="62" on="0"/>
        <pt x="368" y="42" on="1"/>
        <pt x="361" y="35" on="1"/>
        <pt x="350" y="15" on="0"/>
        <pt x="338" y="-26" on="0"/>
        <pt x="338" y="-41" on="1"/>
        <pt x="338" y="-84" on="0"/>
        <pt x="388" y="-84" on="1"/>
        <pt x="396" y="-84" on="0"/>
        <pt x="424" y="-77" on="0"/>
        <pt x="428" y="-77" on="1"/>
      </contour>
      <contour>
        <pt x="215" y="457" on="0"/>
        <pt x="150" y="363" on="0"/>
        <pt x="140" y="285" on="1"/>
        <pt x="193" y="285" on="1"/>
        <pt x="254" y="285" on="0"/>
        <pt x="340" y="334" on="0"/>
        <pt x="340" y="389" on="1"/>
        <pt x="340" y="418" on="0"/>
        <pt x="306" y="457" on="0"/>
        <pt x="277" y="457" on="1"/>
      </contour>
    </TTGlyph>
    <TTGlyph name="equal" xMin="21" yMin="107" xMax="420" yMax="338">
      <contour>
        <pt x="38" y="271" on="0"/>
        <pt x="41" y="301" on="1"/>
        <pt x="42" y="308" on="1"/>
        <pt x="45" y="338" on="0"/>
        <pt x="69" y="338" on="1"/>
        <pt x="397" y="338" on="1"/>
        <pt x="420" y="338" on="0"/>
        <pt x="417" y="308" on="1"/>
        <pt x="416" y="301" on="1"/>
        <pt x="413" y="271" on="0"/>
        <pt x="390" y="271" on="1"/>
        <pt x="62" y="271" on="1"/>
      </contour>
      <contour>
        <pt x="21" y="107" on="0"/>
        <pt x="24" y="137" on="1"/>
        <pt x="25" y="145" on="1"/>
        <pt x="28" y="175" on="0"/>
        <pt x="52" y="175" on="1"/>
        <pt x="380" y="175" on="1"/>
        <pt x="403" y="175" on="0"/>
        <pt x="400" y="145" on="1"/>
        <pt x="399" y="137" on="1"/>
        <pt x="396" y="107" on="0"/>
        <pt x="373" y="107" on="1"/>
        <pt x="45" y="107" on="1"/>
      </contour>
    </TTGlyph>
    <TTGlyph name="estimated" xMin="22" yMin="-7" xMax="593" yMax="707">
      <contour>
        <pt x="141" y="133" on="1"/>
        <pt x="174" y="91" on="0"/>
        <pt x="265" y="48" on="0"/>
        <pt x="320" y="48" on="1"/>
        <pt x="367" y="48" on="0"/>
        <pt x="463" y="93" on="0"/>
        <pt x="491" y="131" on="1"/>
        <pt x="501" y="146" on="0"/>
        <pt x="512" y="146" on="1"/>
        <pt x="525" y="146" on="0"/>
        <pt x="543" y="128" on="0"/>
        <pt x="543" y="118" on="1"/>
        <pt x="543" y="110" on="0"/>
        <pt x="533" y="97" on="1"/>
        <pt x="491" y="48" on="0"/>
        <pt x="380" y="-7" on="0"/>
        <pt x="320" y="-7" on="1"/>
        <pt x="237" y="-7" on="0"/>
        <pt x="102" y="79" on="0"/>
        <pt x="22" y="243" on="0"/>
        <pt x="22" y="355" on="1"/>
        <pt x="22" y="465" on="0"/>
        <pt x="99" y="624" on="0"/>
        <pt x="231" y="707" on="0"/>
        <pt x="312" y="707" on="1"/>
        <pt x="390" y="707" on="0"/>
        <pt x="518" y="624" on="0"/>
        <pt x="593" y="465" on="0"/>
        <pt x="593" y="355" on="1"/>
        <pt x="141" y="355" on="1"/>
      </contour>
      <contour>
        <pt x="261" y="657" on="0"/>
        <pt x="172" y="614" on="0"/>
        <pt x="141" y="573" on="1"/>
        <pt x="141" y="405" on="1"/>
        <pt x="478" y="405" on="1"/>
        <pt x="478" y="573" on="1"/>
        <pt x="446" y="614" on="0"/>
        <pt x="360" y="657" on="0"/>
        <pt x="312" y="657" on="1"/>
      </contour>
    </TTGlyph>
    <TTGlyph name="eth" xMin="44" yMin="-6" xMax="442" yMax="714">
      <contour>
        <pt x="440" y="628" on="0"/>
        <pt x="425" y="626" on="1"/>
        <pt x="364" y="618" on="1"/>
        <pt x="433" y="469" on="0"/>
        <pt x="433" y="327" on="1"/>
        <pt x="433" y="295" on="0"/>
        <pt x="430" y="260" on="1"/>
        <pt x="402" y="-6" on="0"/>
        <pt x="212" y="-6" on="1"/>
        <pt x="132" y="-6" on="0"/>
        <pt x="44" y="102" on="0"/>
        <pt x="44" y="204" on="1"/>
        <pt x="44" y="231" on="0"/>
        <pt x="47" y="259" on="1"/>
        <pt x="61" y="389" on="0"/>
        <pt x="166" y="526" on="0"/>
        <pt x="256" y="526" on="1"/>
        <pt x="296" y="526" on="0"/>
        <pt x="322" y="513" on="1"/>
        <pt x="312" y="553" on="0"/>
        <pt x="284" y="607" on="1"/>
        <pt x="197" y="595" on="1"/>
        <pt x="187" y="595" on="0"/>
        <pt x="173" y="616" on="0"/>
        <pt x="174" y="627" on="1"/>
        <pt x="175" y="637" on="0"/>
        <pt x="191" y="640" on="1"/>
        <pt x="264" y="650" on="1"/>
        <pt x="255" y="665" on="0"/>
        <pt x="242" y="691" on="0"/>
        <pt x="243" y="698" on="1"/>
        <pt x="245" y="709" on="0"/>
        <pt x="260" y="712" on="1"/>
        <pt x="274" y="714" on="0"/>
        <pt x="288" y="714" on="1"/>
        <pt x="303" y="714" on="0"/>
        <pt x="312" y="702" on="1"/>
        <pt x="330" y="678" on="0"/>
        <pt x="341" y="660" on="1"/>
        <pt x="415" y="671" on="0"/>
        <pt x="420" y="671" on="1"/>
        <pt x="432" y="671" on="0"/>
        <pt x="442" y="648" on="0"/>
        <pt x="442" y="639" on="1"/>
      </contour>
      <contour>
        <pt x="346" y="305" on="0"/>
        <pt x="346" y="322" on="1"/>
        <pt x="346" y="454" on="0"/>
        <pt x="258" y="454" on="1"/>
        <pt x="205" y="454" on="0"/>
        <pt x="146" y="360" on="0"/>
        <pt x="135" y="261" on="1"/>
        <pt x="131" y="215" on="0"/>
        <pt x="131" y="197" on="1"/>
        <pt x="131" y="130" on="0"/>
        <pt x="173" y="66" on="0"/>
        <pt x="217" y="66" on="1"/>
        <pt x="270" y="66" on="0"/>
        <pt x="332" y="161" on="0"/>
        <pt x="342" y="261" on="1"/>
      </contour>
    </TTGlyph>
    <TTGlyph name="exclam" xMin="40" yMin="-2" xMax="224" yMax="702">
      <contour>
        <pt x="88" y="202" on="0"/>
        <pt x="75" y="213" on="0"/>
        <pt x="76" y="224" on="1"/>
        <pt x="124" y="680" on="1"/>
        <pt x="126" y="702" on="0"/>
        <pt x="164" y="702" on="1"/>
        <pt x="187" y="702" on="1"/>
        <pt x="224" y="702" on="0"/>
        <pt x="222" y="680" on="1"/>
        <pt x="146" y="224" on="1"/>
        <pt x="144" y="213" on="0"/>
        <pt x="130" y="202" on="0"/>
        <pt x="113" y="202" on="1"/>
        <pt x="105" y="202" on="1"/>
      </contour>
      <contour>
        <pt x="40" y="-2" on="0"/>
        <pt x="43" y="20" on="1"/>
        <pt x="50" y="86" on="1"/>
        <pt x="52" y="108" on="0"/>
        <pt x="90" y="108" on="1"/>
        <pt x="108" y="108" on="1"/>
        <pt x="146" y="108" on="0"/>
        <pt x="144" y="86" on="1"/>
        <pt x="137" y="20" on="1"/>
        <pt x="134" y="-2" on="0"/>
        <pt x="96" y="-2" on="1"/>
        <pt x="78" y="-2" on="1"/>
      </contour>
    </TTGlyph>
    <TTGlyph name="exclamdown" xMin="27" yMin="-179" xMax="211" yMax="525">
      <contour>
        <pt x="105" y="415" on="0"/>
        <pt x="107" y="437" on="1"/>
        <pt x="114" y="503" on="1"/>
        <pt x="117" y="525" on="0"/>
        <pt x="155" y="525" on="1"/>
        <pt x="173" y="525" on="1"/>
        <pt x="211" y="525" on="0"/>
        <pt x="208" y="503" on="1"/>
        <pt x="201" y="437" on="1"/>
        <pt x="199" y="415" on="0"/>
        <pt x="161" y="415" on="1"/>
        <pt x="143" y="415" on="1"/>
      </contour>
      <contour>
        <pt x="27" y="-179" on="0"/>
        <pt x="29" y="-157" on="1"/>
        <pt x="38" y="-97" on="0"/>
        <pt x="83" y="167" on="0"/>
        <pt x="106" y="299" on="1"/>
        <pt x="108" y="310" on="0"/>
        <pt x="122" y="321" on="0"/>
        <pt x="138" y="321" on="1"/>
        <pt x="147" y="321" on="1"/>
        <pt x="163" y="321" on="0"/>
        <pt x="176" y="310" on="0"/>
        <pt x="175" y="299" on="1"/>
        <pt x="127" y="-157" on="1"/>
        <pt x="125" y="-179" on="0"/>
        <pt x="87" y="-179" on="1"/>
        <pt x="64" y="-179" on="1"/>
      </contour>
    </TTGlyph>
</ttFont>
